<?xml version="1.0" encoding="UTF-8" ?>
<!DOCTYPE svg PUBLIC "-//W3C//DTD SVG 1.1//EN" "http://www.w3.org/Graphics/SVG/1.1/DTD/svg11.dtd">
<svg width="330pt" height="330pt" viewBox="0 0 330 330" version="1.1" xmlns="http://www.w3.org/2000/svg">
<g id="#0077d4ff">
<path fill="#0077d4" opacity="1.00" d=" M 133.91 7.18 C 165.77 1.65 199.26 8.03 227.58 23.38 C 254.61 38.04 276.07 62.32 287.74 90.73 C 262.12 99.08 236.48 107.42 210.83 115.70 C 208.84 100.45 201.85 85.05 188.86 76.16 C 174.17 65.90 155.39 64.39 138.02 65.63 C 103.14 68.55 69.91 83.81 43.24 106.19 C 30.09 117.32 18.55 130.36 9.37 144.95 C 13.06 110.60 26.61 76.79 50.29 51.32 C 72.02 27.56 102.19 12.12 133.91 7.18 Z" />
<path fill="#0077d4" opacity="1.00" d=" M 94.46 98.46 C 103.23 91.84 112.88 86.44 123.00 82.18 C 110.47 95.74 103.59 113.73 100.96 131.80 C 120.96 131.91 140.97 131.76 160.97 131.88 C 123.69 144.05 86.38 156.17 49.06 168.22 C 55.12 140.49 71.74 115.39 94.46 98.46 Z" />
<path fill="#0077d4" opacity="1.00" d=" M 277.64 186.71 C 284.92 184.30 292.23 181.93 299.54 179.60 C 299.58 182.00 299.59 184.40 299.58 186.81 C 292.26 186.74 284.95 186.90 277.64 186.71 Z" />
<path fill="#0077d4" opacity="1.00" d=" M 186.99 253.43 C 216.79 253.46 246.85 245.93 272.16 229.93 C 272.23 252.12 272.11 274.31 272.22 296.50 C 240.05 313.05 203.39 320.10 167.35 318.63 C 136.96 317.20 106.81 305.49 84.51 284.58 C 75.65 276.35 68.02 266.82 61.99 256.34 C 83.09 249.52 104.18 242.70 125.28 235.89 C 142.84 249.11 165.39 253.62 186.99 253.43 Z" />
</g>
<g id="#6af2feff">
<path fill="#6af2fe" opacity="1.00" d=" M 287.74 90.73 C 292.85 89.00 298.01 87.43 303.11 85.66 C 307.89 92.60 310.27 100.80 312.58 108.80 C 316.48 123.27 319.03 138.12 320.23 153.06 C 320.59 159.75 320.98 166.55 319.53 173.15 C 312.86 175.28 306.20 177.43 299.54 179.60 C 292.23 181.93 284.92 184.30 277.64 186.71 C 226.82 203.02 176.07 219.52 125.28 235.89 C 104.18 242.70 83.09 249.52 61.99 256.34 C 56.68 258.05 51.38 259.82 46.04 261.45 C 35.10 233.69 29.36 203.43 32.55 173.60 C 38.04 171.77 43.55 170.02 49.06 168.22 C 86.38 156.17 123.69 144.05 160.97 131.88 C 177.59 126.49 194.20 121.06 210.83 115.70 C 236.48 107.42 262.12 99.08 287.74 90.73 M 262.73 116.30 C 260.76 136.00 258.61 155.69 256.55 175.39 C 260.63 174.03 264.72 172.71 268.83 171.44 C 269.33 167.03 269.47 162.59 269.80 158.17 C 276.39 156.10 282.92 153.81 289.57 151.95 C 292.34 155.33 295.17 158.65 297.95 162.02 C 302.09 160.79 306.17 159.40 310.30 158.13 C 297.32 143.23 284.43 128.27 271.43 113.39 C 268.53 114.36 265.61 115.27 262.73 116.30 M 182.68 141.89 C 183.85 145.34 184.96 148.80 186.03 152.28 C 191.13 150.63 196.24 149.02 201.33 147.34 C 205.79 161.16 210.18 175.00 214.65 188.81 C 218.25 187.61 221.87 186.48 225.47 185.30 C 220.96 171.51 216.55 157.70 212.17 143.87 C 217.27 142.30 222.32 140.59 227.43 139.02 C 226.32 135.55 225.20 132.07 224.10 128.59 C 210.30 133.06 196.49 137.46 182.68 141.89 M 120.00 161.97 C 125.47 179.29 131.05 196.56 136.62 213.84 C 148.67 209.91 160.76 206.10 172.82 202.20 C 171.67 198.74 170.59 195.26 169.44 191.81 C 160.97 194.55 152.51 197.30 144.01 199.93 C 142.90 196.30 141.70 192.70 140.59 189.07 C 148.08 186.76 155.51 184.24 163.01 181.96 C 162.08 178.43 160.86 174.99 159.79 171.50 C 152.33 173.90 144.84 176.19 137.43 178.75 C 136.04 175.57 135.20 172.20 134.10 168.92 C 142.19 166.34 150.27 163.76 158.35 161.15 C 157.17 157.71 156.07 154.24 154.99 150.77 C 143.33 154.52 131.67 158.27 120.00 161.97 M 71.42 177.56 C 65.48 179.52 59.49 181.34 53.57 183.36 C 59.17 200.54 64.69 217.75 70.13 234.99 C 76.47 233.30 82.65 231.05 88.92 229.10 C 95.47 227.06 101.86 222.18 103.21 215.10 C 104.69 207.42 99.40 199.39 91.85 197.48 C 96.81 190.56 92.99 179.69 85.06 176.97 C 80.64 175.46 75.76 176.09 71.42 177.56 Z" />
<path fill="#6af2fe" opacity="1.00" d=" M 271.92 130.98 C 275.36 135.02 278.74 139.12 282.16 143.18 C 278.33 144.42 274.49 145.63 270.66 146.87 C 271.15 141.58 271.56 136.28 271.92 130.98 Z" />
<path fill="#6af2fe" opacity="1.00" d=" M 67.58 189.83 C 71.04 188.80 74.40 187.36 77.97 186.77 C 82.00 186.69 84.43 192.64 81.30 195.31 C 78.28 197.73 74.26 198.19 70.74 199.56 C 69.69 196.31 68.67 193.06 67.58 189.83 Z" />
<path fill="#6af2fe" opacity="1.00" d=" M 73.92 209.58 C 77.89 208.44 81.75 206.43 85.96 206.46 C 90.60 206.38 93.47 212.90 90.27 216.25 C 87.02 219.62 81.99 220.01 77.82 221.67 C 76.53 217.63 75.24 213.60 73.92 209.58 Z" />
</g>
<g id="#000000ff">
<path fill="#000000" opacity="1.00" d=" M 262.73 116.30 C 265.61 115.27 268.53 114.36 271.43 113.39 C 284.43 128.27 297.32 143.23 310.30 158.13 C 306.17 159.40 302.09 160.79 297.95 162.02 C 295.17 158.65 292.34 155.33 289.57 151.95 C 282.92 153.81 276.39 156.10 269.80 158.17 C 269.47 162.59 269.33 167.03 268.83 171.44 C 264.72 172.71 260.63 174.03 256.55 175.39 C 258.61 155.69 260.76 136.00 262.73 116.30 M 271.92 130.98 C 271.56 136.28 271.15 141.58 270.66 146.87 C 274.49 145.63 278.33 144.42 282.16 143.18 C 278.74 139.12 275.36 135.02 271.92 130.98 Z" />
<path fill="#000000" opacity="1.00" d=" M 182.68 141.89 C 196.49 137.46 210.30 133.06 224.10 128.59 C 225.20 132.07 226.32 135.55 227.43 139.02 C 222.32 140.59 217.27 142.30 212.17 143.87 C 216.55 157.70 220.96 171.51 225.47 185.30 C 221.87 186.48 218.25 187.61 214.65 188.81 C 210.18 175.00 205.79 161.16 201.33 147.34 C 196.24 149.02 191.13 150.63 186.03 152.28 C 184.96 148.80 183.85 145.34 182.68 141.89 Z" />
<path fill="#000000" opacity="1.00" d=" M 120.00 161.97 C 131.67 158.27 143.33 154.52 154.99 150.77 C 156.07 154.24 157.17 157.71 158.35 161.15 C 150.27 163.76 142.19 166.34 134.10 168.92 C 135.20 172.20 136.04 175.57 137.43 178.75 C 144.84 176.19 152.33 173.90 159.79 171.50 C 160.86 174.99 162.08 178.43 163.01 181.96 C 155.51 184.24 148.08 186.76 140.59 189.07 C 141.70 192.70 142.90 196.30 144.01 199.93 C 152.51 197.30 160.97 194.55 169.44 191.81 C 170.59 195.26 171.67 198.74 172.82 202.20 C 160.76 206.10 148.67 209.91 136.62 213.84 C 131.05 196.56 125.47 179.29 120.00 161.97 Z" />
<path fill="#000000" opacity="1.00" d=" M 71.42 177.56 C 75.76 176.09 80.64 175.46 85.06 176.97 C 92.99 179.69 96.81 190.56 91.85 197.48 C 99.40 199.39 104.69 207.42 103.21 215.10 C 101.86 222.18 95.47 227.06 88.92 229.10 C 82.65 231.05 76.47 233.30 70.13 234.99 C 64.69 217.75 59.17 200.54 53.57 183.36 C 59.49 181.34 65.48 179.52 71.42 177.56 M 67.58 189.83 C 68.67 193.06 69.69 196.31 70.74 199.56 C 74.26 198.19 78.28 197.73 81.30 195.31 C 84.43 192.64 82.00 186.69 77.97 186.77 C 74.40 187.36 71.04 188.80 67.58 189.83 M 73.92 209.58 C 75.24 213.60 76.53 217.63 77.82 221.67 C 81.99 220.01 87.02 219.62 90.27 216.25 C 93.47 212.90 90.60 206.38 85.96 206.46 C 81.75 206.43 77.89 208.44 73.92 209.58 Z" />
</g>
</svg>
