<svg xmlns="http://www.w3.org/2000/svg" xmlns:xlink="http://www.w3.org/1999/xlink" version="1.1" x="0px" y="0px" fill="#FFF"
  viewBox="0 0 100 125" enable-background="new 0 0 100 100" xml:space="preserve">
  <path fill="#FFF"
    d="M142.121-239.646c11.984,0,24.188,0,36.763,0c3.394,0,9.191-0.861,12.089,0  c2.152,0.639,5.172,6.387,6.664,8.392c1.045,1.409,2.389,2.782,3.453,4.192c0.932,1.235,2.625,2.989,2.961,4.442  c1.01,4.416,0,10.94,0,16.529c0,5.741,0.398,11.342-0.492,16.038c-23.33,0.818-50.187,0.82-73.771,0  c-0.907-5.359-0.498-10.73-0.498-16.038c0-5.5-1.02-11.269,0-16.286c0.518-2.539,4.146-6.036,5.921-8.387  C137.93-234.363,139.624-237.172,142.121-239.646z M143.354-234.711c-2.029,2.85-4.848,6.105-6.906,8.879  c-0.686,0.921-1.665,2.128-1.482,2.966c7.812,0,15.631,0,23.442,0c-0.552,10.837,17.167,10.267,16.778,0c7.812,0,15.625,0,23.441,0  c-0.995-1.946-2.665-4.057-4.447-6.419c-0.972-1.279-3.543-5.67-5.178-6.167c-2.744-0.833-7.77,0-11.104,0  c-11.267,0-23.453,0-33.803,0C143.736-235.314,143.495-235.068,143.354-234.711z" />
  <polygon fill="#FFF" points="107.863,-222.711 32.537,-222.711 33.537,-190.053 106.863,-190.053 " />
  <polygon fill="#FFF" points="376.591,-222.711 301.266,-222.711 302.266,-190.053 375.591,-190.053 " />
  <polygon fill="#FFF" points="455.863,-222.711 380.537,-222.711 381.537,-190.053 454.863,-190.053 " />
  <rect x="216.883" y="-222.711" fill="#FFF" width="73.326" height="32.658" />
  <g opacity="0.5">
    <polygon fill="#FFF" points="36.539,-224.711 46.536,-238.03 93.864,-238.03 103.861,-224.711  " />
    <path fill="#FFF"
      d="M92.864-236.03l6.995,9.319H40.541l6.995-9.319H92.864 M94.863-240.03H45.537l-13,17.319h75.326   L94.863-240.03L94.863-240.03z" />
  </g>
  <g opacity="0.5">
    <polygon fill="#FFF" points="466.539,-224.711 476.536,-238.03 523.864,-238.03 533.861,-224.711  " />
    <path fill="#FFF"
      d="M522.864-236.03l6.995,9.319h-59.318l6.995-9.319H522.864 M524.863-240.03h-49.326l-13,17.319h75.326   L524.863-240.03L524.863-240.03z" />
  </g>
  <polygon opacity="0.5" fill="#FFF" enable-background="new    "
    points="442.863,-240.03 393.537,-240.03 380.537,-222.711   455.863,-222.711 " />
  <rect x="301.266" y="-240.03" fill="#FFF" width="75.325" height="17.319" />
  <circle fill="#FFF" cx="166.667" cy="-222.711" r="7.834" />
  <circle fill="#FFF" cx="70.201" cy="-222.711" r="7.834" />
  <polygon fill="#FFF" points="23.113,-222.711 -52.213,-222.711 -51.213,-190.053 22.113,-190.053 " />
  <g opacity="0.5">
    <polygon fill="#FFF" points="-48.211,-224.711 -38.213,-238.03 9.114,-238.03 19.111,-224.711  " />
    <path fill="#FFF"
      d="M8.114-236.03l6.995,9.319h-59.318l6.995-9.319H8.114 M10.113-240.03h-49.326l-13,17.319h75.326   L10.113-240.03L10.113-240.03z" />
  </g>
  <g opacity="0.5">
    <polygon fill="#FFF" points="-44.193,-224.22 -36.648,-234.271 7.565,-234.271 15.109,-224.22  " />
    <path fill="#FFF"
      d="M6.811-232.762l5.279,7.031H9.63h-48.342h-2.46l5.278-7.031h6.992H-0.18H6.811 M8.319-235.78h-8.5h-28.722   h-8.5l-9.81,13.069h8.5H9.629h8.5L8.319-235.78L8.319-235.78z" />
  </g>
  <circle fill="#FFF" cx="-14.549" cy="-222.711" r="7.834" />
  <polygon fill="#FFF" points="-63.637,-222.711 -138.963,-222.711 -137.963,-190.053 -64.637,-190.053 " />
  <g opacity="0.5">
    <polygon fill="#FFF" points="-125.151,-237.78 -124.963,-238.03 -77.636,-238.03 -77.449,-237.78  " />
    <polygon fill="#FFF"
      points="-76.637,-240.03 -125.963,-240.03 -138.963,-222.711 -133.963,-222.711 -124.153,-235.78    -115.653,-235.78 -86.931,-235.78 -78.431,-235.78 -68.621,-222.711 -63.637,-222.711  " />
  </g>
  <circle fill="#FFF" cx="-101.299" cy="-222.711" r="7.834" />
  <g opacity="0.5">
    <polygon fill="#FFF" points="-211.901,-237.78 -211.713,-238.03 -164.386,-238.03 -164.199,-237.78  " />
    <polygon fill="#FFF"
      points="-163.387,-240.03 -212.713,-240.03 -225.713,-222.711 -220.713,-222.711 -210.903,-235.78    -202.403,-235.78 -173.681,-235.78 -165.181,-235.78 -155.371,-222.711 -150.387,-222.711  " />
  </g>
  <path fill="#FFF"
    d="M-180.215-222.711c0,4.327-3.508,7.834-7.834,7.834c-4.327,0-7.835-3.507-7.835-7.834h-29.829l1,32.658  h73.326l1-32.658H-180.215z" />
  <g>
    <polygon
      points="73.113,-335.03 23.787,-335.03 10.787,-317.711 15.787,-317.711 25.597,-330.78 34.097,-330.78 62.818,-330.78    71.318,-330.78 81.129,-317.711 86.113,-317.711  " />
  </g>
  <path
    d="M56.285-317.711c0,4.327-3.508,7.834-7.834,7.834c-4.327,0-7.835-3.507-7.835-7.834H10.787l1,32.658h73.326l1-32.658H56.285  z" />
  <g>
    <path
      d="M55.615,37.692h7.23c0.55,0,1-0.45,1-1v-7.23c0-0.55-0.45-1-1-1h-7.23c-0.55,0-1,0.45-1,1v7.23   C54.615,37.242,55.065,37.692,55.615,37.692z" />
    <path
      d="M44.385,28.462h-7.231c-0.55,0-1,0.45-1,1v7.23c0,0.55,0.45,1,1,1h7.231c0.55,0,1-0.45,1-1v-7.23   C45.385,28.912,44.935,28.462,44.385,28.462z" />
    <path
      d="M55.615,53.077h7.23c0.55,0,1-0.45,1-1v-7.231c0-0.55-0.45-1-1-1h-7.23c-0.55,0-1,0.45-1,1v7.231   C54.615,52.627,55.065,53.077,55.615,53.077z" />
    <path
      d="M44.385,43.846h-7.231c-0.55,0-1,0.45-1,1v7.231c0,0.55,0.45,1,1,1h7.231c0.55,0,1-0.45,1-1v-7.231   C45.385,44.296,44.935,43.846,44.385,43.846z" />
    <path
      d="M44.385,59.23h-7.231c-0.55,0-1,0.45-1,1v7.231c0,0.55,0.45,1,1,1h7.231c0.55,0,1-0.45,1-1V60.23   C45.385,59.681,44.935,59.23,44.385,59.23z" />
    <path
      d="M79.77,80.77h-2.077V14.077c0-0.55-0.45-1-1-1h-8.231V11c0-0.55-0.45-1-1-1H32.538c-0.55,0-1,0.45-1,1v2.077h-8.23   c-0.55,0-1,0.45-1,1V80.77H20.23c-0.55,0-1,0.45-1,1V89c0,0.55,0.45,1,1,1H79.77c0.55,0,1-0.45,1-1v-7.23   C80.77,81.22,80.319,80.77,79.77,80.77z M28.461,19.231h4.077h34.923h4.077v61.538h-7.692V63.386c0-0.593-0.485-1.078-1.078-1.078   h-7.074c-0.593,0-1.078,0.485-1.078,1.078v17.383H28.461V19.231z" />
  </g>
  <!-- <text x="0" y="115" fill="#FFF" font-size="5px" font-weight="bold"
    font-family="'Helvetica Neue', Helvetica, Arial-Unicode, Arial, Sans-serif">Created by José Campos</text><text x="0"
    y="120" fill="#FFF" font-size="5px" font-weight="bold"
    font-family="'Helvetica Neue', Helvetica, Arial-Unicode, Arial, Sans-serif">from the Noun Project</text> -->
</svg>
