<svg xmlns="http://www.w3.org/2000/svg" xmlns:xlink="http://www.w3.org/1999/xlink" version="1.1" x="0px" y="0px" viewBox="0 0 120 120" enable-background="new 0 0 100 100" xml:space="preserve"><g><path d="M 105.4 38.4 l 0 -0.1 c 0 -0.1 0 -0.1 -0.1 -0.2 c -0.4 -0.9 -1.3 -1.5 -2.3 -1.6 c -0.9 -2.2 -2.2 -4.3 -3.7 -6.5 c 0 0 -0.1 -0.1 -0.1 -0.1 c -0.6 -0.7 -1.5 -1.1 -2.3 -1.1 c -0.4 0 -0.7 0.1 -1.1 0.2 c -12.3 4.9 -24.9 9.5 -37.5 13.6 c -0.8 -0.3 -1.6 -0.4 -2.4 -0.1 c -0.6 0.2 -1.1 0.5 -1.5 1 c -0.1 0.1 -0.2 0.2 -0.4 0.2 c -0.1 0 -0.2 0 -0.4 0 c -0.6 -0.2 -1.3 -0.2 -2 0 c -0.8 0.3 -1.5 0.9 -1.9 1.6 C 37 49.5 23.8 53.3 10.7 56.6 c -1.2 0.2 -2.2 1.4 -2.2 2.6 c -0.2 3.1 0.2 5.7 0.7 7.6 c -0.7 0.7 -1 1.7 -0.8 2.7 c 0.3 1.6 2.5 8.9 8 14.5 c 0.5 0.7 1.4 1.1 2.3 1.1 c 0.4 0 0.8 -0.1 1.1 -0.2 c 9.8 -3.9 19.4 -7.4 28.7 -10.6 l -1.8 4.7 c -0.2 0.5 -0.1 1 0.3 1.4 s 0.9 0.5 1.4 0.4 l 3.5 -1 l 2 2.8 c 0.3 0.4 0.7 0.6 1.1 0.6 c 0.1 0 0.1 0 0.2 0 c 0.5 -0.1 0.9 -0.4 1.1 -0.8 l 4.1 -10.5 l 4.8 7.4 c 0.2 0.4 0.7 0.6 1.1 0.6 c 0 0 0.1 0 0.1 0 c 0.5 0 0.9 -0.4 1.1 -0.8 l 1.4 -3.4 l 3.6 0.3 c 0 0 0.1 0 0.1 0 c 0.7 0 1.3 -0.6 1.3 -1.3 c 0 -0.3 -0.1 -0.6 -0.3 -0.8 l -4.1 -6.3 l 0.8 -0.3 c 11 -3.5 22.7 -6.8 34.8 -9.9 c 0 0 0.1 0 0.1 0 l 0.1 0 c 1 -0.3 1.7 -1.1 2 -2.1 c 0 0 0 -0.1 0 -0.1 C 108.5 47.7 106.4 40.9 105.4 38.4 z M 96.9 31.5 c 0 0 0 0 0.1 0 c 0 0 0.1 0 0.2 0.1 c 1.3 1.8 2.3 3.6 3.1 5.4 L 68.5 47.4 c 0 0 0 -0.1 0 -0.1 c 0 0 0 -0.1 0 -0.1 c 0 -0.1 0 -0.2 -0.1 -0.3 c -0.4 -1.3 -1.6 -2.2 -3 -2.2 c -0.1 0 -0.3 0 -0.4 0 c -0.2 0 -0.3 0 -0.5 -0.1 c -0.1 -0.1 -0.2 -0.1 -0.2 -0.2 c 0 0 0 -0.1 -0.1 -0.1 c -0.1 -0.1 -0.1 -0.2 -0.2 -0.3 c 0 0 -0.1 -0.1 -0.1 -0.1 c -0.1 -0.1 -0.1 -0.1 -0.2 -0.2 C 74.9 39.9 86 35.8 96.9 31.5 z M 52.5 46.4 c 0.1 0 0.3 0 0.4 0 c 0.1 0 0.1 0 0.2 0 c 0.6 0.1 1.2 0.1 1.8 -0.1 c 0.6 -0.2 1.1 -0.5 1.5 -1 c 0 0 0 0 0.1 -0.1 c 0.1 -0.1 0.2 -0.2 0.3 -0.2 c 0.2 -0.1 0.5 0 0.7 0.1 c 0 0 0 0 0.1 0.1 c 0 0 0.1 0.1 0.1 0.1 c 0 0 0.1 0 0.1 0.1 c 0 0 0.1 0.1 0.1 0.1 c 0 0 0.1 0 0.1 0 c 0 0 0.1 0.1 0.1 0.1 c 0 0 0.1 0 0.1 0 c 0 0 0.1 0 0.1 0.1 c 0 0 0.1 0 0.1 0 c 0 0 0.1 0 0.1 0 c 0 0 0.1 0 0.1 0 c 0 0 0.1 0 0.1 0 c 0.1 0 0.1 0 0.2 0 c 0 0 0.1 0 0.1 0 c 0.1 0 0.2 0 0.3 0 c 0.4 0 0.8 -0.1 1.2 -0.2 c 0.2 -0.1 0.3 -0.1 0.5 -0.2 c 0 0 0 0 0.1 0 c 0 0 0.1 0 0.1 -0.1 c 0.3 -0.1 0.5 0 0.7 0.2 c 0.3 0.6 0.8 1.1 1.4 1.4 c 0.6 0.3 1.2 0.4 1.9 0.4 c 0 0 0.1 0 0.1 0 c 0.3 0 0.5 0.1 0.6 0.3 c 0 0 0 0.1 0 0.1 c 0 0.1 0 0.1 0 0.2 c 0 0 0 0 0 0 c 0 0.2 0.1 0.3 0.1 0.4 c 0 0.1 0.1 0.3 0.2 0.4 c 0.2 0.4 0.4 0.7 0.7 1 c 0 0 0.1 0.1 0.1 0.1 c 0.4 0.3 0.8 0.6 1.3 0.7 c 0 0 0.1 0 0.1 0 c 0.1 0 0.2 0 0.3 0.3 c 0 0.1 0 0.2 0 0.3 c 0 0.1 0 0.1 0 0.2 c 0 0 0 0.1 0 0.1 c -0.1 0.3 -0.1 0.7 -0.1 1 c 0 0.1 0 0.2 0 0.2 c 0 0.2 0.1 0.5 0.1 0.7 c 0.2 0.6 0.6 1.1 1.1 1.5 c 0 0 0.1 0.1 0.1 0.1 c 0 0 0 0.1 0.1 0.1 c 0 0 0 0.1 0 0.2 c 0 0.2 0 0.3 -0.1 0.4 c -0.8 0.8 -1 2 -0.7 3 c 0.1 0.2 0.2 0.4 0.3 0.6 c 0 0 0 0.1 0 0.1 c 0 0.1 0 0.1 0 0.2 c 0 0.2 -0.1 0.4 -0.3 0.5 c -0.6 0.3 -1.1 0.8 -1.4 1.4 c -0.3 0.5 -0.4 1.1 -0.4 1.7 c 0 0 0 0.1 0 0.1 c 0 0.3 -0.1 0.6 -0.4 0.7 c 0 0 -0.1 0 -0.1 0 c 0 0 0 0 -0.1 0 c -0.2 0 -0.5 0.1 -0.7 0.1 c 0 0 0 0 -0.1 0 c 0 0 0 0 -0.1 0 c 0 0 0 0 0 0 c 0 0 -0.1 0 -0.1 0 c -0.1 0 -0.1 0 -0.2 0.1 c -0.1 0 -0.1 0.1 -0.2 0.1 c -0.1 0 -0.1 0.1 -0.2 0.1 c -0.1 0 -0.1 0.1 -0.2 0.1 c -0.1 0 -0.1 0.1 -0.2 0.1 c 0 0 -0.1 0.1 -0.1 0.1 c -0.1 0 -0.1 0.1 -0.1 0.1 c 0 0 -0.1 0.1 -0.1 0.1 c 0 0.1 -0.1 0.1 -0.1 0.2 c 0 0 -0.1 0.1 -0.1 0.1 c 0 0.1 -0.1 0.1 -0.1 0.2 c 0 0.1 -0.1 0.1 -0.1 0.2 c 0 0.1 -0.1 0.1 -0.1 0.2 c -0.1 0.1 -0.1 0.3 -0.2 0.4 c 0 0 0 0 0 0 c 0 0.1 0 0.1 0 0.1 c 0 0 0 0 0 0 c -0.1 0.1 -0.2 0.2 -0.4 0.2 c -0.1 0 -0.3 0.1 -0.4 0 c 0 0 -0.1 0 -0.1 0 c 0 0 0 0 0 0 c -0.1 0 -0.2 0 -0.3 0 c 0 0 0 0 0 0 c 0 0 0 0 0 0 c 0 0 0 0 0 0 c -0.4 -0.1 -0.9 0 -1.3 0.1 c -0.1 0 -0.2 0 -0.3 0.1 c -0.2 0.1 -0.4 0.2 -0.6 0.3 c 0 0 -0.1 0 -0.1 0.1 c -0.1 0 -0.1 0.1 -0.2 0.1 c -0.1 0 -0.1 0.1 -0.2 0.1 c 0 0 -0.1 0.1 -0.1 0.1 c 0 0 -0.1 0.1 -0.1 0.1 c 0 0 0 0 0 0 c 0 0 0 0 0 0 c 0 0 0 0 0 0 c 0 0 0 0 0 0 c 0 0 0 0 0 0 c 0 0 0 0 0 0 c 0 0 0 0 0 0 c 0 0 0 0 0 0 c 0 0 0 0.1 -0.1 0.1 c 0 0 -0.1 0.1 -0.2 0.1 c 0 0 -0.1 0 -0.1 0 c 0 0 0 0 -0.1 0 c 0 0 -0.1 0 -0.2 0 c 0 0 0 0 -0.1 0 c -0.1 0 -0.1 0 -0.2 0 c -0.1 0 -0.1 0 -0.2 -0.1 c -0.6 -0.5 -1.3 -0.8 -2.1 -0.8 c -0.3 0 -0.7 0.1 -1 0.2 c -0.2 0.1 -0.4 0.2 -0.6 0.3 c 0 0 -0.1 0 -0.1 0 c 0 0 -0.1 0 -0.1 0 c -0.2 0 -0.5 -0.1 -0.6 -0.3 c -0.1 -0.1 -0.1 -0.2 -0.2 -0.3 c 0 0 -0.1 -0.1 -0.1 -0.1 c 0 -0.1 -0.1 -0.1 -0.1 -0.2 c 0 0 -0.1 -0.1 -0.1 -0.1 c 0 -0.1 -0.1 -0.1 -0.1 -0.2 c 0 0 -0.1 -0.1 -0.1 -0.1 c 0 0 -0.1 -0.1 -0.1 -0.1 c 0 0 0 0 0 0 c 0 0 0 0 0 0 c 0 0 0 0 0 0 c 0 0 0 0 0 0 c 0 0 0 0 0 0 c 0 0 0 0 0 0 c 0 0 -0.1 0 -0.1 -0.1 c 0 0 0 0 -0.1 0 c -0.1 0 -0.2 -0.1 -0.2 -0.1 c 0 0 0 0 0 0 c -0.5 -0.3 -1.1 -0.4 -1.7 -0.4 c 0 0 -0.1 0 -0.2 0 c -0.3 0 -0.6 -0.1 -0.6 -0.3 c 0 0 0 -0.1 0 -0.2 c 0 -0.1 0 -0.1 0 -0.2 c 0 -0.2 -0.1 -0.3 -0.1 -0.5 c -0.2 -0.7 -0.7 -1.3 -1.2 -1.7 c -0.3 -0.2 -0.7 -0.4 -1.1 -0.5 c 0 0 0 0 -0.1 0 c -0.1 0 -0.2 -0.1 -0.2 -0.3 c 0 -0.1 0 -0.3 0 -0.4 c 0.4 -1.2 0 -2.6 -0.9 -3.4 c -0.1 -0.1 -0.1 -0.1 -0.2 -0.1 c -0.1 -0.1 -0.1 -0.2 -0.2 -0.3 c -0.1 -0.2 0 -0.4 0.1 -0.6 c 0 0 0 0 0 0 c 0.2 -0.2 0.3 -0.5 0.5 -0.8 c 0 0 0 0 0 0 c 0 0 0 0 0 0 c 0 -0.1 0.1 -0.2 0.1 -0.3 c 0.1 -0.4 0.2 -0.8 0.2 -1.1 c 0 -0.3 -0.1 -0.6 -0.1 -0.8 c -0.1 -0.2 -0.2 -0.4 -0.3 -0.6 c 0 0 0 0 0 0 c 0 0 0 0 0 0 c 0 -0.1 0 -0.1 0 -0.2 c 0 -0.1 0 -0.2 0.1 -0.3 c 0.1 -0.1 0.1 -0.1 0.2 -0.2 c 0.6 -0.3 1.1 -0.8 1.4 -1.4 c 0.3 -0.6 0.4 -1.2 0.4 -1.8 c 0 0 0 -0.1 0 -0.1 c 0 0 0 -0.1 0 -0.1 c 0 -0.2 0.2 -0.5 0.5 -0.6 c 0 0 0.1 0 0.1 0 c 0.3 0 0.5 -0.1 0.8 -0.2 c 0.1 0 0.2 -0.1 0.3 -0.1 c 0 0 0.1 0 0.1 -0.1 c 0.1 0 0.1 -0.1 0.2 -0.1 c 0 0 0.1 -0.1 0.1 -0.1 c 0.1 0 0.1 -0.1 0.2 -0.1 c 0 0 0.1 -0.1 0.1 -0.1 c 0.1 0 0.1 -0.1 0.2 -0.1 c 0 0 0.1 -0.1 0.1 -0.1 c 0 0 0.1 -0.1 0.1 -0.1 c 0 0 0.1 -0.1 0.1 -0.1 c 0 -0.1 0.1 -0.1 0.1 -0.2 c 0 0 0.1 -0.1 0.1 -0.1 c 0 -0.1 0.1 -0.1 0.1 -0.2 c 0 -0.1 0 -0.1 0.1 -0.2 c 0 -0.1 0.1 -0.1 0.1 -0.2 c 0 0 0 0 0 0 c 0 0 0 0 0 0 c 0 0 0 0 0 0 c 0 0 0 -0.1 0.1 -0.1 c 0 0 0 -0.1 0 -0.1 C 52.2 46.5 52.4 46.4 52.5 46.4 z M 11.2 59.4 c 0 0 0 -0.1 0 -0.1 c 0 0 0 0 0 0 c 0 0 0.1 0 0.1 0 c 11.6 -2.9 23.2 -6.2 34.7 -9.8 c 0 0 0 0 0 0 c 0 0.1 0 0.1 0 0.2 c 0 0 0 0.1 0 0.1 c 0 0.1 0 0.2 0 0.3 c 0 0.2 0 0.3 -0.1 0.4 c 0 0.1 -0.1 0.2 -0.2 0.2 c 0 0 0 0 -0.1 0 c -1.4 0.8 -2.1 2.4 -1.6 3.9 c 0.1 0.2 0.1 0.4 0.2 0.6 c 0 0 0 0 0 0 l -14.7 4.8 L 11.7 65.8 C 11.3 64.1 11 61.9 11.2 59.4 z M 18.9 82.5 c 0 0 -0.1 0 -0.1 0 c 0 0 0 0 0 0 c 0 0 -0.1 0 -0.1 -0.1 c 0 -0.1 -0.1 -0.1 -0.2 -0.2 c -5.6 -5.6 -7.3 -12.9 -7.4 -13.2 c 0 -0.1 0 -0.2 0 -0.2 c 0 0 0.1 -0.1 0.1 -0.1 h 0 l 32.3 -10.5 c 0 0.1 0 0.1 0 0.2 c 0 0 0 0.1 0 0.1 c 0 0.1 0.1 0.2 0.1 0.4 c 0 0.1 0.1 0.3 0.2 0.4 c 0.2 0.4 0.4 0.7 0.7 1 c 0.1 0 0.1 0.1 0.2 0.1 c 0 0 0.1 0.1 0.1 0.1 c 0.1 0.1 0.2 0.3 0.1 0.4 c 0 0 0 0.1 0 0.1 c -0.1 0.3 -0.1 0.7 -0.1 1 c 0 0.3 0.1 0.7 0.2 1 c 0.1 0.4 0.3 0.8 0.6 1.1 c 0.4 0.5 1 0.9 1.7 1 c 0 0 0 0 0 0 c 0.2 0 0.3 0.3 0.4 0.4 c 0 0 0 0.1 0 0.1 c 0 0.2 0.1 0.5 0.1 0.7 c 0 0.1 0.1 0.2 0.1 0.2 c 0 0 0 0.1 0 0.1 c 0 0 0 0.1 0.1 0.1 c 0 0 0 0.1 0.1 0.1 c 0 0 0 0.1 0.1 0.1 c 0 0 0 0.1 0.1 0.1 c 0 0 0 0.1 0.1 0.1 c 0 0 0 0.1 0.1 0.1 c 0 0 0.1 0.1 0.1 0.1 c 0 0 0.1 0.1 0.1 0.1 c 0 0 0.1 0.1 0.1 0.1 c 0 0 0.1 0.1 0.1 0.1 c 0 0 0.1 0.1 0.1 0.1 c 0 0 0.1 0 0.1 0.1 c 0 0 0.1 0.1 0.1 0.1 c 0 0 0.1 0 0.1 0.1 c 0 0 0.1 0 0.1 0.1 c 0 0 0.1 0 0.1 0.1 c 0 0 0.1 0 0.1 0.1 c 0 0 0.1 0 0.1 0 c 0 0 0.1 0 0.1 0.1 c 0 0 0.1 0 0.1 0 c 0 0 0.1 0 0.1 0 c 0 0 0.1 0 0.1 0 c 0 0 0.1 0 0.1 0 c 0 0 0.1 0 0.1 0 c 0 0 0.1 0 0.1 0 c 0 0 0.1 0 0.1 0 c 0 0 0.1 0 0.1 0 c 0 0 0.1 0 0.1 0 c 0 0 0.1 0 0.1 0 l -0.9 2.5 C 39.8 74.5 29.4 78.3 18.9 82.5 z M 54.6 79.1 l -1.1 -1.6 c -0.3 -0.4 -0.7 -0.6 -1.1 -0.6 c -0.1 0 -0.2 0 -0.4 0 l -1.8 0.5 l 1.9 -4.9 l 0 0 l 0.9 -2.4 l 0 -0.1 c 0 0 0 0 0 0 c 0 0 0.1 0 0.1 0.1 c 0 0 0.1 0 0.1 0 c 0 0 0.1 0 0.1 0.1 c 0 0 0.1 0 0.1 0 c 0 0 0.1 0 0.1 0 c 0 0 0.1 0 0.1 0 c 0 0 0.1 0 0.1 0 c 0 0 0.1 0 0.1 0 c 0 0 0.1 0 0.1 0 c 0 0 0.1 0 0.1 0 c 0 0 0.1 0 0.1 0 c 0 0 0.1 0 0.1 0 c 0.1 0 0.1 0 0.1 0 c 0 0 0 0 0.1 0 c 0.1 0 0.1 0 0.2 0 c 0.3 0 0.7 -0.1 1 -0.2 c 0.2 -0.1 0.4 -0.1 0.6 -0.2 c 0 0 0 0 0 0 c 0.1 0 0.1 -0.1 0.2 -0.1 c 0.2 -0.1 0.4 0 0.5 0.1 c 0 0 0 0 0.1 0.1 c 0.1 0.1 0.2 0.1 0.3 0.2 c 0 0 0.1 0 0.1 0.1 c 0.1 0 0.2 0.1 0.2 0.1 c 0 0 0 0 0.1 0 L 54.6 79.1 z M 68 72.9 c -0.6 0 -1.1 0.3 -1.3 0.8 l -0.8 1.9 l -3.8 -5.9 l 0.6 -0.2 c 0 0 0 0 0 0 c 0.1 0 0.2 0 0.4 0 c 0 0 0 0 0.1 0 c 0.1 0 0.2 0 0.4 0 c 0 0 0 0 0.1 0 c 0.1 0 0.3 0 0.4 0 c 0 0 0 0 0 0 c 0.1 0 0.3 -0.1 0.4 -0.1 c 0.4 -0.1 0.7 -0.3 1.1 -0.6 c 0.3 -0.2 0.5 -0.4 0.7 -0.7 c 0 0 0 0 0 0 c 0 -0.1 0.1 -0.1 0.1 -0.2 c 0 0 0 0 0 -0.1 c 0 -0.1 0.1 -0.1 0.1 -0.2 c 0 0 0 0 0 0 l 3.4 5.3 L 68 72.9 z M 104.6 54.6 c 0 0.1 -0.1 0.1 -0.2 0.2 l -0.1 0 C 92.4 57.8 80.8 61.1 70 64.5 c 0 0 0 0 0 -0.1 c 0 -0.1 0 -0.1 0.1 -0.2 c 0 0 0 -0.1 0 -0.1 c 0 -0.1 0 -0.1 0 -0.2 c 0 0 0 -0.1 0 -0.1 c 0 -0.1 0 -0.1 0 -0.2 c 0 0 0 -0.1 0 -0.1 c 0 -0.1 0 -0.2 0 -0.3 c 0 -0.1 0 -0.3 0.1 -0.4 c 0 -0.1 0.1 -0.2 0.2 -0.2 c 0 0 0 0 0.1 0 c 0.4 -0.2 0.8 -0.6 1.1 -0.9 c 0.4 -0.5 0.6 -1.2 0.6 -1.8 c 0 -0.4 0 -0.8 -0.2 -1.2 c -0.1 -0.2 -0.1 -0.4 -0.2 -0.5 c 0 0 0 -0.1 -0.1 -0.1 c 0 0 0 -0.1 0 -0.1 c 0 -0.1 0 -0.3 0.1 -0.4 c 0 0 0 0 0.1 -0.1 c 0.7 -0.9 0.9 -2.1 0.6 -3.1 c -0.2 -0.6 -0.6 -1.1 -1.1 -1.5 c 0 0 0 0 0 0 c -0.1 -0.1 -0.1 -0.1 -0.1 -0.2 c 0 -0.1 0 -0.2 0 -0.4 c 0.1 -0.2 0.1 -0.4 0.1 -0.7 c 0 -0.1 0 -0.2 0 -0.3 c 0 -0.3 -0.1 -0.7 -0.2 -1 c 0 -0.1 -0.1 -0.3 -0.2 -0.4 c 0 0 0 -0.1 -0.1 -0.1 c 0 -0.1 -0.1 -0.2 -0.1 -0.2 c 0 0 0 0 0 0 l 31.7 -10.3 l 0.1 0 c 0.1 0 0.2 0 0.3 0.1 c 0 0 0 0 0 0.1 C 103.8 41.7 105.7 47.9 104.6 54.6 z"/><path d="M 49.2 53.4 c -0.2 0.5 -0.3 0.9 -0.4 1.4 c 0 0.2 -0.1 0.5 -0.1 0.7 c -0.1 0.5 -0.1 0.9 -0.1 1.4 c 0 0.2 0 0.5 0 0.7 c 0 0 0 0.1 0 0.1 c 0 0.1 0 0.2 0.1 0.4 c 0.5 2.9 2.2 5.3 4.7 6.7 c 1.1 0.6 2.3 1 3.5 1.1 c 0.4 0 0.8 0.1 1.2 0.1 c 0.3 0 0.7 0 1 0 c 0 0 0 0 0 0 c 0.3 0 0.6 -0.1 0.8 -0.1 c 0 0 0 0 0.1 0 c 0.1 0 0.2 -0.1 0.4 -0.1 c 1.9 -0.5 3.6 -1.5 4.9 -2.9 c 0.1 -0.1 0.2 -0.3 0.3 -0.4 c 1.4 -1.7 2.1 -3.8 2.1 -5.9 c 0 -0.3 0 -0.6 -0.1 -1 c -0.1 -1 -0.3 -2 -0.8 -2.9 c -0.1 -0.1 -0.1 -0.3 -0.2 -0.4 c -0.6 -1.1 -1.3 -2.1 -2.3 -2.9 c -2 -1.6 -4.6 -2.4 -7.1 -2.1 c 0 0 0 0 0 0 C 53.5 47.8 50.5 50.2 49.2 53.4 z M 57.5 50 c 1.9 -0.2 3.7 0.4 5.1 1.5 c 0.7 0.6 1.2 1.2 1.6 2 c 0.4 0.7 0.6 1.5 0.7 2.3 c 0 0 0 0 0 0 c 0.2 1.8 -0.4 3.7 -1.7 5.1 c -1 1.1 -2.3 1.9 -3.8 2.2 c 0 0 0 0 -0.1 0 c -0.2 0 -0.3 0.1 -0.5 0.1 c -0.4 0 -0.7 0 -1.1 0 c -0.2 0 -0.3 0 -0.5 0 c -0.7 -0.1 -1.3 -0.3 -1.9 -0.5 c -0.2 -0.1 -0.4 -0.2 -0.6 -0.3 c -1.8 -1 -3 -2.7 -3.4 -4.8 c 0 -0.1 0 -0.2 0 -0.3 c -0.1 -0.7 0 -1.3 0.1 -2 C 52 52.6 54.5 50.4 57.5 50 z"/></g></svg>
