<svg xmlns:x="http://ns.adobe.com/Extensibility/1.0/" xmlns:i="http://ns.adobe.com/AdobeIllustrator/10.0/"
  xmlns:graph="http://ns.adobe.com/Graphs/1.0/" xmlns="http://www.w3.org/2000/svg"
  xmlns:xlink="http://www.w3.org/1999/xlink" version="1.1" x="0px" y="0px" viewBox="0 0 100 125"
  style="enable-background:new 0 0 100 100;" xml:space="preserve">
  <switch>
    <g i:extraneous="self">
      <g>
        <circle cx="50" cy="14.6" r="12.1" fill="#FFF"/>
        <path fill="#FFF"
          d="M56.2,29.9H43.8c-5,0-9.1,4.1-9.1,9.1v16.8c0,2.5,1.7,4.7,4.1,5.3l0.9,0.2c1.2,0.3,2,1.3,2,2.5v29.1c0,2.5,2,4.6,4.6,4.6     h7.6c2.5,0,4.6-2,4.6-4.6V63.9c0-1.2,0.8-2.2,2-2.5l0.9-0.2c2.4-0.6,4.1-2.8,4.1-5.3V39C65.3,34,61.2,29.9,56.2,29.9z" />
      </g>
    </g>
  </switch>
  <!-- <text x="0" y="115" fill="#000000" font-size="5px" font-weight="bold"
    font-family="'Helvetica Neue', Helvetica, Arial-Unicode, Arial, Sans-serif">Created by Alice Design</text><text
    x="0" y="120" fill="#000000" font-size="5px" font-weight="bold"
    font-family="'Helvetica Neue', Helvetica, Arial-Unicode, Arial, Sans-serif">from the Noun Project</text> -->
</svg>
