<svg xmlns:dc="http://purl.org/dc/elements/1.1/" xmlns:cc="http://creativecommons.org/ns#" xmlns:rdf="http://www.w3.org/1999/02/22-rdf-syntax-ns#" xmlns:svg="http://www.w3.org/2000/svg" xmlns="http://www.w3.org/2000/svg" xmlns:sodipodi="http://sodipodi.sourceforge.net/DTD/sodipodi-0.dtd" xmlns:inkscape="http://www.inkscape.org/namespaces/inkscape" version="1.1" x="0px" y="0px" viewBox="0 0 100 100"><g transform="translate(0,-952.36218)"><path style="text-indent:0;text-transform:none;direction:ltr;block-progression:tb;baseline-shift:baseline;color:#fff;enable-background:accumulate;" d="m 8.999998,972.36219 c -2.1642,0 -4,1.83585 -4,4 l 0,52.00001 c 0,2.1641 1.8358,4 4,4 l 82.000004,0 c 2.1642,0 4,-1.8359 4,-4 l 0,-52.00001 c 0,-2.16415 -1.8358,-4 -4,-4 l -82.000004,0 z m 5.9375,6 70.125,0 -35.0625,30.06251 -35.0625,-30.06251 z m -3.9375,4.46875 21.0938,18.09376 -21.0938,21.0937 0,-39.18746 z m 78,0 0,39.18746 -21.0938,-21.0937 21.0938,-18.09376 z m -52.3438,22.03126 11.4063,9.75 a 3.0003,3.0003 0 0 0 3.875,0 l 11.4063,-9.75 21.5,21.5 -69.6876,0 21.5,-21.5 z" fill="#fff" fill-opacity="1" stroke="none" marker="none" visibility="visible" display="inline" overflow="visible"/></g></svg>
