<svg xmlns="http://www.w3.org/2000/svg" xmlns:xlink="http://www.w3.org/1999/xlink" version="1.1" x="0px" y="0px" viewBox="0 0 90 90" enable-background="new 0 0 90
90" xml:space="preserve"><g><path d="M 65.6 25.5 c -5.3 -7.2 -6.8 -7.2 -7.3 -7.2 c -0.8 0 -1.5 0.6 -1.6 1.4 c -0.7 6.1 -3.2 7.9 -6.7 10.3 c -0.3 0.2 -0.6 0.4 -0.9 0.6 c -1.6 -9.9 -14 -18.3 -14.6 -18.7 c -0.4 -0.3 -0.9 -0.3 -1.4 -0.1 c -0.5 0.2 -0.8 0.6 -0.9 1.1 c 0 0.1 -2.9 14.8 -12.9 23.4 C 11 43.5 6.5 51.4 6.1 59.7 c -0.7 11.7 6.8 20 7.3 20.6 c 0.2 0.3 7.1 8.3 20.3 9.6 c 0 -0.5 0.3 -4.8 0.3 -4.8 c -0.2 -2.2 -0.5 -6 -0.7 -7.8 c 0 -0.3 -0.4 -0.4 -0.6 -0.2 c -2 2.4 -4.1 4.6 -7.6 3.4 c -4.5 -1.5 -7.7 -6.8 -9.6 -10.8 c -0.8 -1.6 -1.9 -3.7 -1.7 -5.5 c 0.1 -2.1 1.7 -3.9 3.7 -4.3 c 4.7 -1 7.7 5.1 4 8.2 c 1.2 1.2 2.4 2.7 3.7 3.8 c 0.2 0.2 0.6 0.1 0.8 -0.1 c 2.2 -3.5 4.5 -7.6 7.6 -10.3 c 1.3 -1.1 2.9 -2.2 4.5 -2.7 c 0.3 -0.1 0.6 -0.1 0.9 -0.2 c -3.6 -1.6 -6 -5.2 -6 -9.4 c 0 -6.1 5.3 -10.9 11.5 -10.2 c 4.8 0.5 8.6 4.4 9 9.1 c 0.5 4.6 -2.1 8.7 -6 10.4 c 0.3 0.1 0.5 0.1 0.8 0.2 c 1.6 0.5 3.2 1.6 4.5 2.7 c 3.1 2.7 5.4 6.8 7.6 10.3 c 0.2 0.3 0.5 0.3 0.8 0.1 c 1.3 -1.1 2.6 -2.6 3.7 -3.8 c -3.7 -3.1 -0.7 -9.3 4 -8.2 c 2 0.4 3.6 2.2 3.7 4.3 c 0.1 1.8 -1 3.9 -1.7 5.5 c -1.9 4 -5.1 9.3 -9.6 10.8 c -3.4 1.1 -5.5 -1 -7.4 -3.2 c -0.2 -0.3 -0.7 -0.1 -0.7 0.2 c -0.1 2.1 -0.2 5.9 -0.4 7.5 c 0 0 0.1 0.8 0.2 1.8 c 0 0.5 0.2 2.5 0.2 3 c 13.1 -1.3 19.9 -9.1 20.3 -9.5 c 0 0 0 0 0.1 -0.1 c 10.4 -11.5 6.6 -27.2 1.6 -38.5 C 71.9 34.4 67.8 28.4 65.6 25.5 z"/><path d="M 13.6 37.5 C 13.6 37.5 13.6 37.5 13.6 37.5 L 13.6 37.5 c 0.5 0 0.8 -0.3 0.8 -0.7 c 0 -0.1 0 -0.2 0 -0.3 c -0.1 -0.6 -0.8 -4 -0.2 -8.5 c 0.4 -2.9 -0.2 -5.2 -1.6 -6.8 c -2.2 -2.5 -5.7 -2.7 -7.1 -2.7 c -0.4 0 -0.6 0 -0.6 0 c -0.3 0 -0.5 0.2 -0.6 0.5 c -0.1 0.3 0 0.6 0.2 0.8 c 1.2 1.3 0.9 3.1 0.5 5.4 c -0.2 1.5 -0.5 3.1 -0.4 4.8 C 4.9 35.3 10.6 37.2 13.6 37.5 z"/><path d="M 83.8 15 c -0.1 -0.3 -0.3 -0.5 -0.6 -0.5 c 0 0 -0.3 0 -0.8 0 c -1.4 0 -4 0.3 -5.9 2.3 c -1.5 1.6 -2.2 3.9 -2.1 6.9 c 0.2 4.7 -0.8 6.9 -0.8 6.9 c -0.1 0.2 -0.1 0.5 0 0.7 c 0.1 0.2 0.3 0.4 0.6 0.4 c 0 0 0.4 0 0.9 0 c 1.6 0 6.9 -0.4 7.7 -5.8 c 0.2 -1.6 0.1 -3.3 0 -4.7 c -0.2 -2.2 -0.3 -4.2 0.9 -5.4 C 83.9 15.6 83.9 15.3 83.8 15 z"/><path d="M 21.8 22.4 c 0 0.3 0.2 0.5 0.4 0.6 c 0.1 0.1 0.2 0.1 0.3 0.1 c 0.1 0 0.3 0 0.4 -0.1 c 2.4 -1.6 6.3 -5.9 3.6 -10.6 c -0.8 -1.4 -1.9 -2.6 -2.9 -3.7 C 22.1 7.1 20.8 5.6 21 4 c 0 -0.3 -0.1 -0.5 -0.3 -0.7 c -0.2 -0.1 -0.5 -0.2 -0.8 0 c -0.1 0.1 -3.2 2 -3.8 5.5 c -0.4 2.3 0.5 4.7 2.5 7.1 C 21.6 19.4 21.8 22.4 21.8 22.4 z"/><path d="M 52.7 20.8 c 0.1 0 0.1 0 0.2 0 l 0 0 c 0.4 0 0.8 -0.3 0.8 -0.7 c 0 -0.1 0 -0.1 0 -0.2 c 0 -0.4 0.1 -2.8 1.3 -6.5 c 0.9 -2.7 0.8 -5.1 -0.4 -7 c -1.7 -2.9 -4.9 -4.4 -5.1 -4.4 c -0.2 0 -0.4 0 -0.6 0.1 c -0.2 0.1 -0.3 0.3 -0.3 0.5 c -0.2 2.5 -0.9 4.3 -1.6 5.5 c -0.6 1 -1.1 2.1 -1.4 3.9 C 44.8 18.3 52.4 20.7 52.7 20.8 z"/></g></svg>
