<svg xmlns="http://www.w3.org/2000/svg" xmlns:xlink="http://www.w3.org/1999/xlink" version="1.1" x="0px" y="0px" viewBox="0 0 80 80" style="enable-background: new 0 0 100 100" xml:space="preserve"><style type="text/css">
	.st0{display:none;}
	.st1{display:inline;}
</style><g><path d="M 78.1 62.4 l -5.5 -14.5 c -0.1 -0.4 -0.5 -0.6 -0.9 -0.6 h -8.2 l -1.8 -6.5 H 68 c 0.3 0 0.6 -0.2 0.8 -0.4 c 0.2 -0.3 0.2 -0.6 0.1 -0.9 l -4.1 -10.9 c -0.1 -0.4 -0.5 -0.6 -0.9 -0.6 H 58 L 56.7 23 H 62 c 0.3 0 0.6 -0.2 0.8 -0.4 c 0.2 -0.3 0.2 -0.6 0.1 -0.9 l -3.2 -8.6 c -0.1 -0.4 -0.5 -0.6 -0.9 -0.6 h -5.1 l -1 -3.6 c -0.1 -0.4 -0.5 -0.7 -1 -0.7 H 47 c -0.3 0 -0.6 0.1 -0.8 0.4 C 46 8.8 46 9.1 46 9.4 l 0.7 3.1 H 33.2 l 0.8 -3 c 0.1 -0.3 0 -0.6 -0.2 -0.9 c -0.2 -0.2 -0.5 -0.4 -0.8 -0.4 h -4.8 c -0.4 0 -0.8 0.3 -1 0.7 l -1.2 3.6 h -5 c -0.4 0 -0.8 0.3 -0.9 0.6 l -3.2 8.6 c -0.1 0.3 -0.1 0.7 0.1 0.9 c 0.2 0.3 0.5 0.4 0.8 0.4 h 4.8 l -1.5 4.7 h -5.2 c -0.4 0 -0.8 0.3 -0.9 0.6 l -4.1 10.9 c -0.1 0.3 -0.1 0.7 0.1 0.9 c 0.2 0.3 0.5 0.4 0.8 0.4 h 5.1 L 15 47.3 h -6.7 c -0.4 0 -0.8 0.3 -0.9 0.6 l -5.5 14.5 c -0.1 0.3 -0.1 0.7 0.1 0.9 c 0.2 0.3 0.5 0.4 0.8 0.4 h 6.9 l -1.8 5.6 c -0.1 0.4 0 0.7 0.2 1 c 0.2 0.2 0.4 0.4 3 0.4 c 1.1 0 2.8 0 5.1 -0.2 c 0.4 0 0.8 -0.3 0.9 -0.7 l 1.7 -6.2 h 40.3 l 1.5 6.1 c 0.1 0.4 0.5 0.7 0.9 0.8 c 2.3 0.1 3.9 0.2 5.1 0.2 c 2.5 0 2.7 -0.2 3 -0.4 c 0.3 -0.3 0.4 -0.6 0.3 -1 l -1.6 -5.6 h 9 c 0.3 0 0.6 -0.2 0.8 -0.4 C 78.2 63 78.2 62.7 78.1 62.4 z M 63.2 29.8 l 3.4 8.9 h -5.5 l -2.5 -8.9 H 63.2 z M 58.1 14.5 l 2.5 6.6 h -4.4 l -1.8 -6.6 H 58.1 z M 47.2 14.5 l 1.6 6.6 h -18 l 1.8 -6.6 H 47.2 z M 25.3 40.7 h 28.3 l 1.6 6.5 H 23.4 L 25.3 40.7 z M 25.8 38.7 l 2.5 -8.9 h 22.6 l 2.1 8.9 H 25.8 z M 28.9 27.8 l 1.3 -4.7 h 19.1 l 1.1 4.7 H 28.9 z M 19.4 21 l 2.5 -6.6 h 3.7 L 23.5 21 H 19.4 z M 13.4 38.7 l 3.4 -8.9 h 3.8 l -2.9 8.9 H 13.4 z M 4.3 61.8 L 9 49.3 h 5.4 l -4 12.5 H 4.3 z M 15.3 68.7 c -1.9 0.1 -4 0.1 -5.2 0.1 l 18.9 -58.6 h 2.7 L 15.3 68.7 z M 19.3 61.8 l 3.5 -12.5 h 32.7 l 3 12.5 H 19.3 z M 62.3 68.7 l -14 -58.5 H 51 l 16.5 58.6 C 66.3 68.8 64.2 68.8 62.3 68.7 z M 67.6 61.8 l -3.5 -12.5 h 7 l 4.7 12.5 H 67.6 z"/></g></svg>
