<svg xmlns="http://www.w3.org/2000/svg" xmlns:xlink="http://www.w3.org/1999/xlink" version="1.1" x="0px" y="0px" viewBox="0 0 80 80" enable-background="new 0 0 68 68" xml:space="preserve"><g><path d="M 70.4 6.3 c -0.3 -0.3 -0.8 -0.4 -1.1 -0.2 l -4.8 2.3 c -0.2 0.1 -0.4 0.3 -0.5 0.5 L 62.5 12.8 L 43.4 31.9 l -0.6 -0.6 c -0.6 -0.6 -1.6 -0.6 -2.3 -0.1 l -9 -9 c -0.1 -0.1 -0.1 -0.2 -0.1 -0.3 c 1.3 -4.3 0.2 -8.9 -3 -12 c -3.4 -3.4 -8.2 -4.3 -12.4 -2.9 C 15.8 7.2 15.6 7.4 15.5 7.8 C 15.4 8.1 15.5 8.5 15.7 8.7 l 4.1 4.1 l -0.6 4.9 l -4.9 0.6 L 10.3 14.2 C 10.1 13.9 9.7 13.8 9.4 13.9 c -0.3 0.1 -0.6 0.3 -0.7 0.7 c -1.5 4.4 -0.4 9.1 2.9 12.4 c 3.1 3.1 7.6 4.3 12.1 3 c 0.1 0 0.1 0 0.2 0.1 l 6.5 6.5 L 8.9 57.8 c -1.2 1.2 -1.2 3.1 0 4.3 l 9 9 c 0.6 0.6 1.3 0.9 2.2 0.9 s 1.6 -0.3 2.2 -0.9 l 21.4 -21.4 l 6.5 6.5 c 0.1 0.1 0.1 0.2 0.1 0.3 c -1.3 4.3 -0.2 8.9 3 12 c 2.3 2.3 5.3 3.5 8.5 3.5 c 1.3 0 2.6 -0.2 3.9 -0.6 c 0.3 -0.1 0.6 -0.4 0.7 -0.7 c 0.1 -0.3 0 -0.7 -0.3 -0.9 l -4.1 -4.1 l 0.6 -4.9 l 4.9 -0.6 l 4.1 4.1 c 0.2 0.2 0.6 0.3 0.9 0.3 c 0.3 -0.1 0.6 -0.3 0.7 -0.6 c 1.5 -4.3 0.4 -9.2 -2.9 -12.4 c -3.1 -3.1 -7.6 -4.3 -12.1 -3 c -0.1 0 -0.1 0 -0.2 -0.1 l -9 -9 c 0.6 -0.7 0.5 -1.6 -0.1 -2.3 l -0.5 -0.5 l 19 -19.1 l 3.9 -1.5 c 0.2 -0.1 0.4 -0.3 0.5 -0.5 l 2.3 -4.8 c 0.2 -0.4 0.1 -0.8 -0.2 -1.1 L 70.4 6.3 z M 40 34.5 l 1.6 -1.6 c 0.4 0.4 5.5 5.5 5.4 5.4 l -1.7 1.7 l -5.4 -5.4 L 40 34.5 z M 25.2 28.5 c -0.4 -0.4 -1 -0.7 -1.6 -0.7 c -0.2 0 -0.4 0 -0.7 0.1 c -1 0.3 -1.9 0.4 -2.9 0.4 c -2.7 0 -5.2 -1 -7.1 -2.9 c -2.3 -2.3 -3.3 -5.5 -2.8 -8.7 l 3.2 3.2 c 0.2 0.2 0.5 0.3 0.8 0.3 l 6.1 -0.7 c 0.5 -0.1 0.8 -0.4 0.9 -0.9 l 0.7 -6.2 c 0 -0.3 -0.1 -0.6 -0.3 -0.8 L 18.4 8.5 c 3.1 -0.5 6.3 0.4 8.7 2.8 c 2.6 2.6 3.6 6.5 2.5 10 c -0.3 0.8 0 1.7 0.6 2.3 l 9 9 l -0.6 0.6 l -0.4 -0.4 c -0.6 -0.6 -1.4 -0.9 -2.2 -0.9 c -0.6 0 -1.2 0.2 -1.7 0.5 c -0.2 0.1 -0.3 0.2 -0.5 0.4 l -2.1 2.1 L 25.2 28.5 z M 42.8 47.6 c 0 0 0 0 0 0 L 20.8 69.7 c -0.4 0.4 -1.1 0.4 -1.5 0 l -9 -9 c -0.4 -0.4 -0.4 -1.1 0 -1.5 l 24.9 -24.9 c 0.4 -0.4 1.1 -0.4 1.5 0 l 0 0 l 9 9 c 0.4 0.4 0.4 1.1 0 1.5 L 42.8 47.6 z M 56.4 49.9 c 0.6 0.6 1.5 0.8 2.2 0.6 c 1 -0.3 1.9 -0.4 3 -0.4 c 2.7 0 5.2 1 7.1 2.9 c 2.3 2.3 3.3 5.5 2.8 8.7 l -3.2 -3.2 c -0.2 -0.2 -0.5 -0.3 -0.8 -0.3 l -6.1 0.7 c -0.5 0.1 -0.8 0.4 -0.9 0.9 l -0.7 6.1 c 0 0.3 0.1 0.6 0.3 0.8 l 3.2 3.2 c -0.5 0.1 -1.1 0.1 -1.6 0.1 c -2.7 0 -5.2 -1 -7.1 -2.9 c -2.6 -2.6 -3.6 -6.5 -2.5 -10 c 0.2 -0.8 0 -1.7 -0.6 -2.2 l -6.5 -6.5 l 2.1 -2.1 c 0.3 -0.3 0.5 -0.6 0.7 -1 c 0.3 -0.8 0.3 -1.7 -0.1 -2.5 c -0.1 -0.3 -0.3 -0.6 -0.6 -0.8 l -0.2 -0.2 l -0.2 -0.2 l 0.6 -0.6 L 56.4 49.9 z M 70 14.3 l -3.7 1.5 c -0.1 0 -0.2 0.1 -0.3 0.2 L 46.8 35.2 l -1.9 -1.9 L 64 14.1 c 0.1 -0.1 0.2 -0.2 0.2 -0.3 l 1.5 -3.7 l 3.8 -1.8 l 2.3 2.3 L 70 14.3 z"/><path d="M 40.6 42.5 L 18.5 64.6 c -0.4 0.4 -0.4 1 0 1.4 s 1 0.4 1.4 0 l 22.2 -22.2 c 0.4 -0.4 0.4 -1 0 -1.4 S 41 42.1 40.6 42.5 z"/><path d="M 37.5 37.9 c -0.4 -0.4 -1 -0.4 -1.4 0 L 13.9 60.1 c -0.4 0.4 -0.4 1 0 1.4 s 1 0.4 1.4 0 l 22.2 -22.2 C 37.9 39 37.9 38.3 37.5 37.9 z"/></g></svg>
