<svg xmlns="http://www.w3.org/2000/svg" data-name="Layer 1" viewBox="0 0 100 100" x="0px" y="0px" fill="#FFF"><title>Artboard 67</title><path d="M97.36,74.47l-25.58-9.4a2.5,2.5,0,0,0-3.21,3.21L78,93.86a2.5,2.5,0,0,0,2.17,1.63h.18a2.5,2.5,0,0,0,2.2-1.32l4.07-7.56,7.21,7.21a2.5,2.5,0,0,0,3.54-3.54l-7.21-7.21L97.68,79a2.5,2.5,0,0,0-.32-4.55Zm-12.57,5.8a2.5,2.5,0,0,0-1,1l-3,5.63L75.13,71.63l15.29,5.62Z"/><path d="M65.64,84.39a2.5,2.5,0,0,0,0-5H7.36A1.36,1.36,0,0,1,6,78V28.43H83V61a2.5,2.5,0,0,0,5,0V10.86A6.37,6.37,0,0,0,81.64,4.5H7.36A6.37,6.37,0,0,0,1,10.86V78a6.37,6.37,0,0,0,6.36,6.36ZM7.36,9.5H81.64A1.36,1.36,0,0,1,83,10.86V23.43H6V10.86A1.36,1.36,0,0,1,7.36,9.5Z"/><path d="M14,66.78a2.5,2.5,0,0,0,5,0,10.16,10.16,0,1,1,20.33,0,2.5,2.5,0,0,0,5,0,15.18,15.18,0,0,0-7.91-13.31,10,10,0,1,0-14.51,0A15.18,15.18,0,0,0,14,66.78ZM24.23,46.64a5,5,0,1,1,5,5A5,5,0,0,1,24.23,46.64Z"/><path d="M72.45,39.39H52.52a2.5,2.5,0,0,0,0,5H72.45a2.5,2.5,0,0,0,0-5Z"/><path d="M75,52.83a2.5,2.5,0,0,0-2.5-2.5H52.52a2.5,2.5,0,0,0,0,5H72.45A2.5,2.5,0,0,0,75,52.83Z"/><path d="M52.52,61.27a2.5,2.5,0,0,0,0,5h7.31a2.5,2.5,0,1,0,0-5Z"/><path d="M23.89,19.19a2.5,2.5,0,1,0-2.49-2.5A2.52,2.52,0,0,0,23.89,19.19Z"/><path d="M33.24,19.19a2.5,2.5,0,1,0-2.49-2.5A2.52,2.52,0,0,0,33.24,19.19Z"/><path d="M14.53,19.19A2.5,2.5,0,1,0,12,16.69,2.52,2.52,0,0,0,14.53,19.19Z"/></svg>
