<svg version="1.1" width="50" height="55" viewBox="-1 -1 50 55" xmlns="http://www.w3.org/2000/svg" xmlns:xlink="http://www.w3.org/1999/xlink">
  <defs>
    <linearGradient id="grad_1" x1="0.5" x2="0.5" y2="1">
      <stop offset="0" stop-color="#34AADC"/>
      <stop offset="1" stop-color="#007AFF"/>
    </linearGradient>
  </defs>
  <!-- Exported by Scratch - http://scratch.mit.edu/ -->
  <g id="ID0.3011904275044799">
    <path id="ID0.8302284553647041" fill="#FF9D00" d="M 471.860 305.930 C 506.050 332.590 506.050 376.450 471.860 403.320 L 311.020 529.740 C 276.830 556.400 221.170 556.400 186.980 529.740 L 26.140 403.540 C -8.046 376.880 -8.046 333.020 26.139 306.140 L 186.979 179.730 C 221.169 153.070 276.829 153.070 311.019 179.730 L 471.859 305.930 Z " transform="matrix(0.09781324863433838, 0, 0, 0.09781324863433838, 0.05, 0.2)"/>
    <path id="ID0.3712872979231179" fill="#fc0" d="M 187.370 450.830 L 25.810 323.860 C 9.524 311.100 0.500 294.010 0.500 275.840 C 0.500 257.670 9.524 240.580 25.812 227.820 L 187.372 100.630 C 203.662 87.870 225.672 80.732 249.002 80.732 C 272.332 80.732 294.122 87.870 310.632 100.630 L 472.192 227.600 C 488.482 240.370 497.502 257.450 497.502 275.620 C 497.502 293.790 488.482 310.880 472.192 323.640 L 310.632 450.620 C 294.122 463.590 272.332 470.730 249.002 470.730 C 225.672 470.730 203.882 463.590 187.372 450.830 Z " transform="matrix(0.09781324863433838, 0, 0, 0.09781324863433838, 0.05, 0.2)"/>
    <path id="ID0.9957641870714724" fill="url(#grad_1)" d="M 187.370 370.830 L 25.810 243.860 C 9.524 231.100 0.500 214.010 0.500 195.840 C 0.500 177.670 9.524 160.580 25.812 147.820 L 187.372 20.630 C 203.662 7.870 225.672 0.732 249.002 0.732 C 272.332 0.732 294.122 7.870 310.632 20.632 L 472.192 147.602 C 488.482 160.372 497.502 177.452 497.502 195.622 C 497.502 213.792 488.482 230.882 472.192 243.642 L 310.632 370.622 C 294.122 383.592 272.332 390.732 249.002 390.732 C 225.672 390.732 203.882 383.592 187.372 370.832 Z " transform="matrix(0.09781324863433838, 0, 0, 0.09781324863433838, 0.05, 0.2)"/>
    <path id="ID0.6257995660416782" fill="#fff" d="M 249.560 317.520 C 332.110 317.520 399.040 262.820 399.040 195.340 C 399.040 127.850 332.110 73.150 249.560 73.150 C 167 73.148 100.080 127.850 100.080 195.340 C 100.080 262.820 167 317.520 249.560 317.520 Z M 249.560 330.100 C 158.500 330.100 84.690 269.760 84.690 195.340 C 84.690 120.910 158.500 60.570 249.560 60.570 C 340.610 60.570 414.430 120.910 414.430 195.340 C 414.430 269.760 340.610 330.100 249.560 330.100 Z " transform="matrix(0.09781324863433838, 0, 0, 0.09781324863433838, 0.05, 0.2)"/>
    <path id="ID0.301041669677943" fill="#8CC8F6" d="M 260.580 247.200 C 268.840 246.120 276.890 243.810 284.270 240.290 L 331.320 259.630 L 306.670 222.710 C 319.640 206 319.640 184.850 306.670 168.150 L 331.320 131.230 L 286.970 149.450 L 285.700 168.950 C 303.830 184.160 303.370 208.170 284.530 222.850 C 279.720 226.690 274.200 229.390 268.410 231.310 L 260.580 247.200 Z M 238.580 143.620 C 224.930 145.400 214.700 150.570 214.700 150.570 L 167.690 131.230 L 192.340 168.150 C 179.370 184.850 179.370 206 192.340 222.710 L 167.690 259.630 L 213.250 240.900 L 214.220 222.640 C 195.160 207.480 195.310 183.230 214.530 168 C 219 164 229.110 159.760 230.620 159.540 L 238.580 143.620 Z " transform="matrix(0.09781324863433838, 0, 0, 0.09781324863433838, 0.05, 0.2)"/>
    <path id="ID0.4981478536501527" fill="#fff" d="M 226.940 191.300 L 220.680 302.300 L 271.390 199.360 L 278.650 88.570 L 226.940 191.300 Z M 226.290 280.970 L 266.900 198.560 L 231.310 192.070 L 226.290 280.970 Z " transform="matrix(0.09781324863433838, 0, 0, 0.09781324863433838, 0.05, 0.2)"/>
  </g>
</svg>