<?xml version="1.0"?>
<svg width="200" height="220" xmlns="http://www.w3.org/2000/svg" xmlns:svg="http://www.w3.org/2000/svg" xmlns:se="http://svg-edit.googlecode.com" data-name="Layer 1">

 <g class="layer">
  <title>Layer 1</title>
  <path d="m107.088492,156.33468a6.73552,6.73552 0 0 0 -6.79074,-6.01832a6.82,6.82 0 0 0 -6.66261,5.16537l0,0l-6.66262,32.35394a13.0879,13.0879 0 0 0 -0.34045,2.8847c0,7.29592 6.10618,12.3661 13.66569,12.3661s13.66934,-5.07018 13.66934,-12.3661a13.23738,13.23738 0 0 0 -0.47225,-3.45944l-6.40636,-30.92625z" fill="#3f3d56" id="svg_1"/>
  <path d="m157.486402,170.80573a15.29421,15.29421 0 0 0 -2.17817,-1.59244l-25.45338,-17.78771c-2.47834,-1.55583 -5.12508,-1.5119 -7.047,0.36608a4.953,4.953 0 0 0 -0.73216,6.29654l19.21908,25.25936a13.38792,13.38792 0 0 0 1.46431,1.7169c3.33131,3.723 10.71876,3.928 14.77856,0c4.00491,-3.99391 3.95735,-11.11046 -0.05124,-14.25873z" fill="#3f3d56" id="svg_2"/>
  <path d="m176.613992,144.45547l-25.77921,0a3.13509,3.13509 0 0 0 -3.25078,2.98719a3.40794,3.40794 0 0 0 2.53327,3.35328l24.31854,7.52289c3.53264,0.82367 8.29165,-2.3246 8.29165,-6.25627c0,-5.00062 -2.78219,-7.60709 -6.11347,-7.60709z" fill="#3f3d56" id="svg_3"/>
  <path d="m53.948652,147.428a3.20085,3.20085 0 0 0 -3.45943,-2.9872l-25.77923,0c-3.24711,0 -5.98537,3.507 -5.98537,7.4387s4.6199,7.263 8.16353,6.43931l24.68462,-7.52289a3.097,3.097 0 0 0 2.37588,-3.36792z" fill="#3f3d56" id="svg_4"/>
  <path d="m71.641192,151.45487l-25.46071,17.71084a11.83915,11.83915 0 0 0 -2.19646,1.59244a9.63883,9.63883 0 0 0 -0.49354,13.62242q0.23775,0.25561 0.49354,0.49354a10.759,10.759 0 0 0 14.77489,0a11.25814,11.25814 0 0 0 1.46432,-1.71324l19.23371,-25.1166a4.82754,4.82754 0 0 0 -0.73215,-6.24528a5.49116,5.49116 0 0 0 -7.0836,-0.34412z" fill="#3f3d56" id="svg_5"/>
  <path d="m111.244992,116.8427a2.73473,2.73473 0 0 0 0.47225,-1.47021c0,-3.10066 -6.10984,-5.25542 -13.66934,-5.25542s-13.66568,2.15476 -13.66568,5.25542a2.6173,2.6173 0 0 0 0.34045,1.226l6.66261,13.75l0,0c0.76335,1.29732 3.51607,2.20429 6.66261,2.19521c3.5473,0 6.49422,-1.12172 6.79075,-2.5577l6.40635,-13.1433z" fill="#3f3d56" id="svg_6"/>
  <path d="m155.287752,117.77616c-4.0598,-1.66935 -11.44725,-1.58222 -14.77855,0a11.98623,11.98623 0 0 0 -1.46432,0.72966l-19.21907,10.73486c-1.30683,0.85025 -0.99886,1.97581 0.73215,2.67594a11.49937,11.49937 0 0 0 7.047,0.15558l25.45338,-7.55952a21.70208,21.70208 0 0 0 2.17816,-0.67676c4.00856,-1.33797 4.05615,-4.3624 0.05125,-6.05976z" fill="#3f3d56" id="svg_7"/>
  <path d="m180.477572,131.80149c0,-1.6709 -4.759,-3.00887 -8.29166,-2.65882l-24.31854,3.19712c-1.45333,0.2038 -2.53326,0.67676 -2.53326,1.42509s1.58512,1.26951 3.25077,1.26951l25.77918,0c3.33131,0 6.11351,-1.10771 6.11351,-3.2329z" fill="#3f3d56" id="svg_8"/>
  <path d="m49.322912,132.33979l-24.68462,-3.19712c-3.54363,-0.35 -8.16353,1.0657 -8.16353,2.73661s2.73826,3.16134 5.98537,3.16134l25.77919,0c1.79378,0 3.45944,-0.49163 3.45944,-1.26952s-0.76877,-1.22751 -2.37585,-1.43131z" fill="#3f3d56" id="svg_9"/>
  <path d="m76.474892,131.9135c1.8011,-0.711 2.01343,-1.786 0.73216,-2.65415l-19.23372,-10.67419a10.09729,10.09729 0 0 0 -1.46431,-0.7281a22.48479,22.48479 0 0 0 -14.7749,0q-0.25561,0.101 -0.49353,0.20975c-3.62544,1.6566 -3.40448,4.24857 0.49353,5.78933a16.885,16.885 0 0 0 2.19647,0.67676l25.4607,7.52685a11.63414,11.63414 0 0 0 7.0836,-0.14625z" fill="#3f3d56" id="svg_10"/>
  <path d="m150.478992,114.61687c0,39.76268 -22.16089,40.49815 -49.49774,40.49815s-72.21839,-7.86622 -49.49773,-40.49815c23.96379,-34.41743 65.07447,-100.02077 49.49768,-103.49527c0,0 49.49779,63.73259 49.49779,103.49527z" fill="#f9a825" id="svg_11"/>
  <path d="m118.413662,139.0845c0,15.73939 -8.772,16.03052 -19.59285,16.03052s-28.58645,-3.11372 -19.59282,-16.03052c9.48569,-13.62356 25.75867,-39.59156 19.59286,-40.96688c-0.00004,0 19.59281,25.22748 19.59281,40.96688z" fill="#ff6584" id="svg_12" opacity="0.5"/>
 </g>
</svg>
