<?xml version="1.0"?>
<svg width="770" height="440" xmlns="http://www.w3.org/2000/svg" xmlns:svg="http://www.w3.org/2000/svg" xmlns:se="http://svg-edit.googlecode.com" data-name="Layer 1">

 <g class="layer">
  <title>Layer 1</title>
  <path d="m545.06193,289.96366l363.6747,0l0,-184.10866l-363.6747,0l0,184.10866z" fill="#fff" id="svg_1" transform="translate(-145.123, -84.945)"/>
  <path d="m910.87682,292.10385l-367.95508,0l0,-188.38907l367.95508,0l0,188.38907zm-365.81489,-2.14019l363.6747,0l0,-184.10866l-363.6747,0l0,184.10866z" fill="#3f3d56" id="svg_2" transform="translate(-145.123, -84.945)"/>
  <rect fill="#002d61" height="3.08721" id="svg_3" width="37.04675" x="465.23333" y="82.86379"/>
  <rect fill="#002d61" height="3.08721" id="svg_4" width="37.0467" x="514.62898" y="82.86379"/>
  <rect fill="#002d61" height="3.08721" id="svg_5" width="37.0467" x="586.40696" y="111.42065"/>
  <rect fill="#002d61" height="3.08721" id="svg_6" width="37.0467" x="636.57444" y="111.42065"/>
  <rect fill="#002d61" height="3.08721" id="svg_7" width="108.82474" x="564.7964" y="82.86379"/>
  <rect fill="#002d61" height="3.08721" id="svg_8" width="108.82474" x="465.23333" y="111.42065"/>
  <rect fill="#002d61" height="3.08721" id="svg_9" width="108.82474" x="465.23333" y="139.97751"/>
  <rect fill="#002d61" height="3.08721" id="svg_10" width="75.63704" x="597.98409" y="139.97751"/>
  <polygon fill="#002d61" id="svg_11" points="454.82098388671875,95.89700317382812 441.7869873046875,82.864013671875 454.82098388671875,69.82998657226562 457.427978515625,72.43798828125 447.00201416015625,82.864013671875 457.427978515625,93.28900146484375 454.82098388671875,95.89700317382812 "/>
  <polygon fill="#002d61" id="svg_12" points="708.7319946289062,156.09799194335938 706.1240234375,153.49099731445312 716.5499877929688,143.06399536132812 706.1240234375,132.63800048828125 708.7319946289062,130.031005859375 721.7650146484375,143.06399536132812 708.7319946289062,156.09799194335938 "/>
  <rect fill="#002d61" height="3.68815" id="svg_13" transform="rotate(-73.14, -144, -290) translate(56.7163, 1222.38)" width="26.61292" x="824.73277" y="225.77985"/>
  <path d="m527.43981,525.055l-381,0a1,1 0 0 1 0,-2l381,0a1,1 0 0 1 0,2z" fill="#ccc" id="svg_14" transform="translate(-145.123, -84.945)"/>
  <polygon fill="#ffb8b8" id="svg_15" points="248.22198486328125,427.1820068359375 260.9620056152344,427.1810302734375 267.0220031738281,378.04302978515625 248.22000122070312,378.04400634765625 248.22198486328125,427.1820068359375 "/>
  <path d="m390.09584,507.96765l25.08866,-0.001l0.001,0a15.98933,15.98933 0 0 1 15.98846,15.9882l0,0.51957l-41.07738,0.00152l-0.00074,-16.50829z" fill="#2f2e41" id="svg_16" transform="translate(-145.123, -84.945)"/>
  <polygon fill="#ffb8b8" id="svg_17" points="159.00100708007812,418.45599365234375 171.36801147460938,421.51702880859375 189.0570068359375,375.27398681640625 170.80499267578125,370.75701904296875 159.00100708007812,418.45599365234375 "/>
  <path d="m301.96931,498.58318l24.354,6.02686l0.001,0.00025a15.98931,15.98931 0 0 1 11.67876,19.3613l-0.12483,0.50434l-39.8745,-9.86786l3.96557,-16.02489z" fill="#2f2e41" id="svg_18" transform="translate(-145.123, -84.945)"/>
  <path d="m351.25149,303.64631l-11.202,63.76551s-4.30848,7.75526 -2.58509,11.202s2.58509,3.44678 0,5.17017s-6.03187,0 -5.17017,4.30848a43.98385,43.98385 0 0 1 0.86169,7.75527l-24.12754,82.72286s-15.51052,6.89357 -4.30848,11.202s22.4041,7.75527 24.98919,3.44679s0,-9.47866 0,-9.47866l39.638,-94.78656s6.03187,-8.617 6.03187,-13.78714s19.819,-42.2231 19.819,-42.2231s0.86169,37.05293 1.72339,39.638s-1.72339,7.75526 -1.72339,11.202s-1.7234,3.44679 0,5.17018s1.72339,21.5424 1.72339,21.5424s-10.34035,76.69094 -4.30848,77.55264s23.26579,-0.8617 23.26579,-4.30848a4.29957,4.29957 0 0 0 -2.58509,-4.30848l11.202,-65.4889s-0.8617,-4.30848 0.8617,-7.75526s1.72339,-3.44678 1.72339,-5.17018s-0.8617,-2.58508 0,-3.44678a4.25464,4.25464 0 0 0 0.86169,-2.58509s-1.72339,-5.17017 -0.86169,-6.03187s19.819,-65.4889 13.78713,-73.24416s-89.6163,-12.06364 -89.6163,-12.06364z" fill="#2f2e41" id="svg_19" transform="translate(-145.123, -84.945)"/>
  <circle cx="244.66678" cy="58.69393" fill="#ffb8b8" id="svg_20" r="22.404099"/>
  <path d="m373.96076,159.86326c1.152,-0.77252 1.19661,-2.5403 0.81046,-3.97462s-1.08809,-2.84471 -1.02791,-4.30366c0.165,-3.99778 5.67106,-5.60137 5.98562,-9.57957c0.19348,-2.44665 -1.7052,-5.15207 -0.60955,-7.27048c0.69191,-1.33776 2.30106,-1.78388 3.76637,-2.04074a46.79642,46.79642 0 0 1 17.16479,0.23051l0.82545,-2.16845l4.19337,2.76684c0.229,-1.34571 2.09172,-1.48067 3.30912,-0.8348s2.27133,1.76123 3.59976,1.97656c2.11732,0.34323 3.791,-1.94977 3.67922,-4.1561s-1.458,-4.205 -2.86731,-5.94764a47.16544,47.16544 0 0 0 -12.633,-10.93575l1.16367,-2.09676l-2.492,1.00075l-0.27334,-2.50769l-2.4278,1.36452l-0.03457,-2.25861c-2.5993,2.98467 -7.126,2.88184 -11.09947,3.151a31.95151,31.95151 0 0 0 -18.2549,6.787a24.27232,24.27232 0 0 0 -8.88384,17.44643c-0.22559,5.27084 1.59146,11.686 5.48322,15.59449c3.53742,3.55271 8.77858,1.39676 10.62264,7.75677z" fill="#2f2e41" id="svg_21" transform="translate(-145.123, -84.945)"/>
  <path d="m444.764,361.01a10.6681,10.6681 0 0 1 0.91947,-16.33239l-5.9756,-23.63473l13.47708,-7.1344l7.96993,33.49534a10.72591,10.72591 0 0 1 -16.39088,13.60618z" fill="#ffb8b8" id="svg_22" transform="translate(-145.123, -84.945)"/>
  <path d="m408.74432,330.42325c-27.23335,0.00209 -52.30133,-12.3238 -52.63971,-12.493l-0.28111,-0.14056l-2.28537,-54.8462c-0.6627,-1.93814 -13.71246,-40.18185 -15.9226,-52.33751c-2.2393,-12.31547 30.215,-23.12385 34.15608,-24.38783l0.89437,-9.90725l36.36909,-3.919l4.60951,12.67676l13.04768,4.89245a6.45375,6.45375 0 0 1 3.99991,7.5818l-7.25174,29.49009l14.26428,97.56747l-0.36623,0.165a69.242,69.242 0 0 1 -28.59416,5.65778z" fill="#002d61" id="svg_23" transform="translate(-145.123, -84.945)"/>
  <path d="m441.25848,336.54481l-12.62132,-51.95852l-13.67992,-62.69975l6.94408,-31.24966l5.93675,0c0.1088,0 10.89714,0.16139 13.22,14.09744c2.24971,13.49824 9.034,56.45689 9.10217,56.889l11.46614,73.3837l-20.3679,1.53779z" fill="#002d61" id="svg_24" transform="translate(-145.123, -84.945)"/>
  <path d="m387.252,327.76424a10.66811,10.66811 0 0 0 -13.02465,-9.897l-14.10771,-19.88166l-14.173,5.62644l20.31717,27.79694a10.72591,10.72591 0 0 0 20.98822,-3.6447l-0.00003,-0.00002z" fill="#ffb8b8" id="svg_25" transform="translate(-145.123, -84.945)"/>
  <path d="m359.75652,326.29085l-42.68769,-55.37876l15.9947,-50.2687c1.1721,-12.63824 9.08056,-16.16728 9.41712,-16.31148l0.5133,-0.22021l13.91835,37.11665l-10.2193,27.25157l25.083,42.18608l-12.01948,15.62485z" fill="#002d61" id="svg_26" transform="translate(-145.123, -84.945)"/>
 </g>
</svg>
