<?xml version="1.0" encoding="iso-8859-1"?>
<svg xmlns="http://www.w3.org/2000/svg" xmlns:xlink="http://www.w3.org/1999/xlink" x="0px" y="0px"
	 viewBox="0 0 512 512" style="enable-background:new 0 0 512 512;" xml:space="preserve">
<path style="fill:#91CECE;" d="M503.467,503.467v-204.8h-76.8l3.575-10.726c5.385-16.085-3.285-33.493-19.379-38.886
	c-3.157-1.058-6.468-1.596-9.796-1.587l0,0c-16.964-0.026-30.737,13.713-30.763,30.677c-0.009,3.328,0.529,6.639,1.587,9.796
	l3.575,10.726h-76.8v76.8l10.726-3.575c16.085-5.385,33.493,3.285,38.886,19.379c1.058,3.157,1.596,6.468,1.587,9.796l0,0
	c0.026,16.964-13.713,30.737-30.677,30.763c-3.328,0.009-6.639-0.529-9.796-1.587l-10.726-3.575v76.8H503.467z"/>
<path style="fill:#383856;" d="M298.667,298.667v76.8l10.726-3.575c16.085-5.385,33.493,3.285,38.886,19.379
	c1.058,3.157,1.596,6.468,1.587,9.796l0,0c0.026,16.964-13.713,30.737-30.677,30.763c-3.328,0.009-6.639-0.529-9.796-1.587
	l-10.726-3.575v76.8h-204.8v-204.8h76.8l-3.575,10.726c-5.385,16.085,3.285,33.493,19.379,38.886
	c3.157,1.058,6.468,1.596,9.796,1.587l0,0c16.964,0.026,30.737-13.713,30.763-30.677c0.009-3.328-0.529-6.639-1.587-9.796
	l-3.575-10.726H298.667z"/>
<path style="fill:#EA3836;" d="M503.467,298.667h-76.8l3.575-10.726c5.385-16.085-3.285-33.493-19.379-38.886
	c-3.157-1.058-6.468-1.596-9.796-1.587l0,0c-16.964-0.026-30.737,13.713-30.763,30.677c-0.009,3.328,0.529,6.639,1.587,9.796
	l3.575,10.726h-76.8v-76.8l10.726,3.575c16.085,5.385,33.493-3.285,38.886-19.379c1.058-3.157,1.596-6.468,1.587-9.796l0,0
	c0.026-16.964-13.713-30.737-30.677-30.763c-3.328-0.009-6.639,0.529-9.796,1.587l-10.726,3.575v-76.8h204.8V298.667z"/>
<path style="fill:#FFD33F;" d="M8.533,8.533v204.8h76.8l-3.575,10.726c-5.385,16.085,3.285,33.493,19.379,38.886
	c3.157,1.058,6.468,1.596,9.796,1.587l0,0c16.964,0.026,30.737-13.713,30.763-30.677c0.009-3.328-0.529-6.639-1.587-9.796
	l-3.575-10.726h76.8v-76.8l10.726,3.575c16.085,5.385,33.493-3.285,38.886-19.379c1.058-3.157,1.596-6.468,1.587-9.796l0,0
	c0.026-16.964-13.713-30.737-30.677-30.763c-3.328-0.009-6.639,0.529-9.796,1.587l-10.726,3.575v-76.8H8.533z"/>
<path style="fill:#91CECE;" d="M298.667,429.739l3.413-1.929l-3.413-1.143V429.739z"/>
<path style="fill:#83B2B7;" d="M349.688,398.174c0.094,0.956,0.179,1.911,0.179,2.893c0.026,16.964-13.713,30.737-30.677,30.763
	c-3.328,0.009-6.639-0.529-9.796-1.587l-7.296-2.432l-3.413,1.929v73.728h204.783v-204.8H458.94
	C427.776,337.178,390.938,370.731,349.688,398.174z"/>
<path style="fill:#383856;" d="M309.393,430.242c16.085,5.385,33.493-3.285,38.886-19.379c1.058-3.157,1.596-6.468,1.587-9.796
	c0-0.981-0.085-1.937-0.179-2.893c-15.701,10.718-31.676,20.591-47.59,29.636L309.393,430.242z"/>
<path style="fill:#202033;" d="M124.535,503.467h174.131v-73.728C243.371,460.356,185.003,485.069,124.535,503.467z"/>
<path style="fill:#D62121;" d="M458.94,298.667h44.527v-73.557C491.802,251.418,476.834,276.13,458.94,298.667z"/>
<path style="fill:#FFAC3E;" d="M213.333,27.042V8.533H8.533v136.371C39.791,106.359,102.767,49.724,213.333,27.042z"/>
<path d="M503.467,85.333h-204.8c-4.71,0-8.533,3.823-8.533,8.533v76.8c0,4.71,3.823,8.533,8.542,8.525
	c0.913,0,1.826-0.145,2.688-0.435l10.726-3.575c11.648-3.814,24.175,2.543,27.989,14.182c3.814,11.648-2.543,24.175-14.182,27.989
	c-4.48,1.468-9.318,1.468-13.807,0l-10.726-3.575c-4.471-1.493-9.301,0.93-10.795,5.402c-0.29,0.862-0.435,1.775-0.435,2.688v68.267
	h-68.267c-4.71,0-8.533,3.823-8.525,8.542c0,0.913,0.145,1.826,0.435,2.688l3.575,10.726c3.814,11.648-2.543,24.175-14.182,27.989
	c-11.648,3.814-24.175-2.543-27.989-14.182c-1.468-4.48-1.468-9.318,0-13.807l3.575-10.726c1.493-4.471-0.93-9.301-5.402-10.795
	c-0.862-0.29-1.775-0.435-2.688-0.435h-76.8c-4.71,0-8.533,3.823-8.533,8.533v204.8c0,4.71,3.823,8.533,8.533,8.533h409.6
	c4.71,0,8.533-3.823,8.533-8.533v-409.6C512,89.156,508.177,85.333,503.467,85.333z M342.093,228.13
	c17.647-12.587,21.751-37.103,9.165-54.75c-9.941-13.935-27.767-19.823-44.058-14.549V102.4h187.733v187.733h-56.431
	c6.519-20.676-4.958-42.718-25.626-49.246c-20.676-6.519-42.718,4.958-49.246,25.626c-2.423,7.689-2.423,15.932,0,23.612H307.2
	v-56.431C319.053,237.542,332.023,235.469,342.093,228.13z M102.4,307.2h56.431c-6.519,20.676,4.958,42.718,25.626,49.246
	c20.668,6.528,42.718-4.958,49.246-25.626c2.423-7.689,2.423-15.932,0-23.612h56.431v68.267c0,4.71,3.823,8.533,8.542,8.525
	c0.913,0,1.826-0.145,2.688-0.435l10.726-3.575c11.648-3.814,24.175,2.543,27.989,14.182c3.814,11.648-2.543,24.175-14.182,27.989
	c-4.48,1.468-9.318,1.468-13.807,0l-10.726-3.575c-4.471-1.493-9.301,0.93-10.795,5.402c-0.29,0.853-0.435,1.766-0.435,2.679v68.267
	H102.4V307.2z M494.933,494.933H307.2v-56.431c20.676,6.519,42.718-4.958,49.246-25.626c6.519-20.676-4.958-42.718-25.626-49.246
	c-7.689-2.423-15.932-2.423-23.612,0V307.2h68.267c4.71,0,8.533-3.823,8.525-8.542c0-0.913-0.145-1.826-0.435-2.688l-3.575-10.726
	c-3.814-11.648,2.543-24.175,14.182-27.989c11.648-3.814,24.175,2.543,27.989,14.182c1.468,4.48,1.468,9.318,0,13.807l-3.575,10.726
	c-1.493,4.471,0.93,9.301,5.402,10.795c0.853,0.29,1.766,0.435,2.679,0.435h68.267V494.933z"/>
<path d="M8.533,221.867h64.964c-6.519,20.676,4.958,42.718,25.626,49.246c20.676,6.519,42.718-4.958,49.246-25.626
	c2.423-7.689,2.423-15.932,0-23.612h64.964c4.71,0,8.533-3.823,8.533-8.533v-64.964c20.676,6.519,42.718-4.958,49.246-25.626
	s-4.958-42.718-25.626-49.246c-7.689-2.423-15.932-2.423-23.612,0V8.533c0-4.71-3.823-8.533-8.533-8.533H8.533
	C3.823,0,0,3.823,0,8.533v204.8C0,218.044,3.823,221.867,8.533,221.867z M17.067,17.067H204.8v68.267
	c0,4.71,3.823,8.533,8.542,8.525c0.913,0,1.826-0.145,2.688-0.435l10.726-3.575c11.648-3.814,24.175,2.543,27.989,14.182
	s-2.543,24.175-14.182,27.989c-4.48,1.468-9.318,1.468-13.807,0l-10.726-3.575c-4.471-1.493-9.301,0.93-10.795,5.402
	c-0.29,0.862-0.435,1.775-0.435,2.688V204.8h-68.267c-4.71,0-8.533,3.823-8.525,8.542c0,0.913,0.145,1.826,0.435,2.688l3.575,10.726
	c3.814,11.648-2.543,24.175-14.182,27.989s-24.175-2.543-27.989-14.182c-1.468-4.48-1.468-9.318,0-13.807l3.575-10.726
	c1.493-4.471-0.93-9.301-5.402-10.795c-0.862-0.29-1.775-0.435-2.688-0.435H17.067V17.067z"/>
</svg>
