<svg xmlns="http://www.w3.org/2000/svg" width="748"
  height="669" viewBox="0 0 748 666">
  <title>noted</title>
  <path
    d="M927.17065,245.86427c26.72006,38.98517,20.80717,89.48769,20.80717,89.48769s-49.23467-12.7049-75.95473-51.69006-20.80718-89.48769-20.80718-89.48769S900.45058,206.87911,927.17065,245.86427Z"
    transform="translate(-227.12124 -115.57973)" fill="#2f2e41" />
  <path
    d="M907.945,253.30828c3.12667,47.15961,39.01681,83.17856,39.01681,83.17856S977.78266,296.045,974.656,248.88536s-39.01682-83.17856-39.01682-83.17856S904.81836,206.14867,907.945,253.30828Z"
    transform="translate(-227.12124 -115.57973)" fill="#002d61" />
  <path
    d="M601.16721,116.56176,963.94182,298.9512a17.15473,17.15473,0,0,1,9.41008,16.48217L952.27481,627.63773a8.49961,8.49961,0,0,1-12.31475,7.013L568.91284,445.287,587.962,124.17251A9.1232,9.1232,0,0,1,601.16721,116.56176Z"
    transform="translate(-227.12124 -115.57973)" fill="#d0cde1" />
  <path
    d="M605.34247,122.92382l353.86394,177.9095a16.73337,16.73337,0,0,1,9.17895,16.07732L947.826,621.44648a8.29085,8.29085,0,0,1-12.01228,6.84077L573.88034,443.57476l18.58127-313.22712A8.89911,8.89911,0,0,1,605.34247,122.92382Z"
    transform="translate(-227.12124 -115.57973)" fill="#3f3d56" />
  <path
    d="M620.85055,146.55434,941.61776,307.824a15.1683,15.1683,0,0,1,8.32044,14.57362L931.30173,598.45039a7.5154,7.5154,0,0,1-10.88877,6.201L592.33107,437.21494l16.84337-283.93113A8.06678,8.06678,0,0,1,620.85055,146.55434Z"
    transform="translate(-227.12124 -115.57973)" fill="#fff" />
  <path
    d="M289.86708,598.9106,653.105,781.84248a24.18508,24.18508,0,0,0,21.78584-.02841L943.60452,645.40645c3.15077-3.15087,2.71071-7.82029,1.70307-11.326a25.229,25.229,0,0,0-1.98686-4.89647l-36.61767-19.25973L598.83151,456.31491l-18.39407-9.7647a34.05929,34.05929,0,0,0-31.63579-.12777L289.75342,580.985a10.05764,10.05764,0,0,0,.11366,17.9256Z"
    transform="translate(-227.12124 -115.57973)" fill="#d0cde1" />
  <path
    d="M289.86708,598.9106,653.105,781.84248a24.18508,24.18508,0,0,0,21.78584-.02841L943.60452,645.40645c3.15077-3.15087,2.71071-7.82029,1.70307-11.326L677.39709,773.334a23.37,23.37,0,0,1-21.19939.18164L284.4453,588.30848A10.01705,10.01705,0,0,0,289.86708,598.9106Z"
    transform="translate(-227.12124 -115.57973)" opacity="0.1" />
  <path
    d="M634.63782,653.72083,517.00265,594.27572a16.52947,16.52947,0,0,0-15.244.1735l-68.24076,36.45739a4.88152,4.88152,0,0,0,.10227,8.66427l119.941,60.48308a13.586,13.586,0,0,0,12.78587-.29411L634.86,661.161A4.20291,4.20291,0,0,0,634.63782,653.72083Z"
    transform="translate(-227.12124 -115.57973)" opacity="0.1" />
  <path
    d="M911.68665,643.779l-126.5861,67.24886a10.2967,10.2967,0,0,1-9.47746.09542l-357.66015-180.87a6.08239,6.08239,0,0,1,.04678-10.879l123.6145-61.18293a13.40423,13.40423,0,0,1,11.97733.04264L911.631,638.62577A2.90134,2.90134,0,0,1,911.68665,643.779Z"
    transform="translate(-227.12124 -115.57973)" opacity="0.1" />
  <rect x="766.90324" y="273.07164" width="1.41945" height="130.11848"
    transform="translate(-105.22868 757.90833) rotate(-63.43495)" fill="#002d61" />
  <rect x="766.90383" y="290.49228" width="1.41827" height="130.75937"
    transform="translate(-125.90958 761.62113) rotate(-62.90908)" fill="#002d61" />
  <rect x="763.355" y="338.2919" width="1.41951" height="74.90016"
    transform="translate(-145.30545 769.58676) rotate(-62.93456)" fill="#002d61" />
  <polyline points="374.28 108.551 364 133 450.768 178.545 480 93" fill="#f2f2f2" />
  <polygon points="448.768 163.545 487.099 73.352 399 30 362 118 448.768 163.545" fill="#002d61" />
  <rect x="656.355" y="160.2919" width="1.41951" height="74.90016"
    transform="translate(-45.11285 577.296) rotate(-62.93456)" fill="#fff" />
  <rect x="651.355" y="172.2919" width="1.41951" height="74.90016"
    transform="translate(-58.52366 579.38347) rotate(-62.93456)" fill="#fff" />
</svg>
