<?xml version="1.0"?>
<svg width="787.1693" height="730" xmlns="http://www.w3.org/2000/svg" xmlns:svg="http://www.w3.org/2000/svg" xmlns:se="http://svg-edit.googlecode.com" xmlns:xlink="http://www.w3.org/1999/xlink" data-name="Layer 1">
 <defs>
  <linearGradient id="a3c4672e-2259-4d6c-8c24-5949363a8af1" x1="0.5" x2="0.5" y1="1" y2="0">
   <stop offset="0" stop-color="gray" stop-opacity="0.25"/>
   <stop offset="0.53514" stop-color="gray" stop-opacity="0.12"/>
   <stop offset="1" stop-color="gray" stop-opacity="0.1"/>
  </linearGradient>
  <linearGradient id="acf699b8-10e6-407b-86e3-0f7f8fa4bdb6" x1="191.7952" x2="191.7952" xlink:href="#a3c4672e-2259-4d6c-8c24-5949363a8af1" y1="163.03871" y2="0"/>
  <linearGradient id="b28a1e8f-be05-408d-a6f5-6fd2e5b0337f" x1="563.67304" x2="563.67304" xlink:href="#a3c4672e-2259-4d6c-8c24-5949363a8af1" y1="215.46739" y2="0.87558"/>
  <linearGradient id="f1fc4b36-2829-4464-83b0-fd2af5b19fd6" x1="639.87752" x2="639.87752" xlink:href="#a3c4672e-2259-4d6c-8c24-5949363a8af1" y1="470.29515" y2="255.70335"/>
  <linearGradient gradientTransform="matrix(-1, 0, 0, 1, 1039.58465, -85)" id="bb60ebe1-81e2-422a-a970-aa43062904da" x1="453.7012" x2="453.7012" xlink:href="#a3c4672e-2259-4d6c-8c24-5949363a8af1" y1="780.90233" y2="650.04347"/>
  <linearGradient gradientTransform="matrix(-1, 0, 0, 1, 1039.58465, -85)" id="a1b2f907-b002-48c8-973d-a12b277f13d1" x1="488.7343" x2="488.7343" xlink:href="#a3c4672e-2259-4d6c-8c24-5949363a8af1" y1="780.90233" y2="650.04347"/>
  <linearGradient id="a8136d5f-4c26-4562-977f-ea29024932d1" x1="235.31858" x2="235.31858" xlink:href="#a3c4672e-2259-4d6c-8c24-5949363a8af1" y1="696.90233" y2="566.04347"/>
  <linearGradient id="eaaf4b84-3353-429f-a894-84d4b3cd89b7" x1="270.35167" x2="270.35167" xlink:href="#a3c4672e-2259-4d6c-8c24-5949363a8af1" y1="696.90233" y2="566.04347"/>
  <linearGradient id="fa1ca12c-a5d3-4b88-b665-ae3e1db189da" x1="319.81014" x2="319.81014" xlink:href="#a3c4672e-2259-4d6c-8c24-5949363a8af1" y1="696.88015" y2="561.94405"/>
  <symbol height="2500" id="svg_72" viewBox="0 -65 416 416" width="2500" xmlns="http://www.w3.org/2000/svg">
   <path d="m84.157,143l-41.279,71.5l41.279,71.5l41.279,-71.5l-41.279,-71.5z" fill="#303f9f"/>
   <path d="m331.842,0l-41.281,71.5l41.281,71.5l41.279,-71.5l-41.279,-71.5z" fill="#3f51b5"/>
   <path d="m373.121,71.5l-123.844,214.5l82.565,0l82.558,-143l-41.279,-71.5z" fill="#7986cb"/>
   <path d="m249.277,0l-165.12,286l82.564,0l165.121,-286l-82.565,0z" fill="#ff4081"/>
   <path d="m84.157,0l-82.561,143l41.282,71.5l123.843,-214.5l-82.564,0z" fill="#536dfe"/>
   <path d="m249.277,0l41.284,71.5l41.281,-71.5l-82.565,0z" fill="#fff" fill-opacity="0.2"/>
   <path d="m208,71.5l41.277,-71.5l41.284,71.5l-82.561,0z" fill="#fff" fill-opacity="0.1"/>
   <path d="m208,71.5l41.277,71.5l41.284,-71.5l-82.561,0z" fill="#fff" fill-opacity="0"/>
   <path d="m166.721,143l41.279,-71.5l41.277,71.5l-82.556,0z" fill-opacity="0.1"/>
   <path d="m166.721,143l41.279,71.5l41.277,-71.5l-82.556,0z" fill-opacity="0.2"/>
   <path d="m125.438,214.5l41.283,-71.5l41.279,71.5l-82.562,0z" fill-opacity="0.3"/>
   <path d="m125.438,214.5l41.283,71.5l41.279,-71.5l-82.562,0z" fill-opacity="0.4"/>
   <path d="m84.157,286l41.281,-71.5l41.283,71.5l-82.564,0z" fill-opacity="0.5"/>
   <path d="m84.157,0l41.281,71.5l41.283,-71.5l-82.564,0z" fill="#fff" fill-opacity="0.2"/>
   <path d="m42.878,71.5l41.279,-71.5l41.281,71.5l-82.56,0z" fill="#fff" fill-opacity="0.1"/>
   <path d="m42.878,71.5l41.279,71.5l41.281,-71.5l-82.56,0z" fill="#fff" fill-opacity="0"/>
   <path d="m1.598,143l41.28,-71.5l41.279,71.5l-82.559,0z" fill-opacity="0.1"/>
   <path d="m1.598,143l41.28,71.5l41.279,-71.5l-82.559,0z" fill-opacity="0.2"/>
   <path d="m125.438,214.5l-41.281,-71.5l-41.279,71.5l82.56,0z" fill="#fff" fill-opacity="0"/>
   <path d="m125.438,214.5l-41.281,71.5l-41.279,-71.5l82.56,0zm247.683,-143l-41.279,-71.5l-41.281,71.5l82.56,0z" fill-opacity="0.2"/>
   <path d="m373.121,71.5l-41.279,71.5l-41.281,-71.5l82.56,0z" fill="#fff" fill-opacity="0"/>
   <path d="m331.842,143l41.279,-71.5l41.279,71.5l-82.558,0z" fill="#fff" fill-opacity="0.2"/>
   <path d="m331.842,143l41.279,71.5l41.279,-71.5l-82.558,0z" fill="#fff" fill-opacity="0.1"/>
   <path d="m290.561,214.5l41.281,-71.5l41.279,71.5l-82.56,0z" fill="#fff" fill-opacity="0"/>
   <path d="m290.561,214.5l41.281,71.5l41.279,-71.5l-82.56,0z" fill-opacity="0.1"/>
   <path d="m249.277,286l41.284,-71.5l41.281,71.5l-82.565,0z" fill-opacity="0.2"/>
   <path d="m0,-65l416,0l0,416l-416,0l0,-416z" fill="none"/>
  </symbol>
 </defs>
 <title>JavaScript frameworks</title>
 <g class="layer">
  <title>Layer 1</title>
  <path d="m969.07624,674.78716c0,45.23881 -26.89446,61.0365 -60.06793,61.0365c-0.77234,0 -1.54052,-0.00836 -2.3045,-0.02923c-1.53635,-0.0334 -3.06018,-0.10019 -4.56313,-0.20874c-29.94213,-2.11666 -53.20445,-18.72843 -53.20445,-60.79853c0,-43.53546 55.62587,-98.47249 59.8216,-102.55134l0.00836,-0.00418c0.15865,-0.15862 0.24212,-0.23794 0.24212,-0.23794s60.06793,57.55047 60.06793,102.79346z" fill="#3f3d56" id="svg_1" transform="translate(-206.41535 -85)"/>
  <path d="m906.81651,728.90173l21.97231,-30.69773l-22.02658,34.06687l-0.05843,3.52358c-1.53635,-0.0334 -3.06018,-0.10019 -4.56313,-0.20874l2.36714,-45.25968l-0.01671,-0.3507l0.04176,-0.06678l0.22126,-4.27508l-22.08083,-34.15458l22.14764,30.94826l0.05427,0.906l1.791,-34.19632l-18.90376,-35.2901l19.13337,29.28247l1.862,-70.89335l0.00836,-0.24212l0,0.23794l-0.309,55.90561l18.81611,-22.16436l-18.89543,26.978l-0.49679,30.61846l17.572,-29.38269l-17.64707,33.89146l-0.27553,17.02093l25.5084,-40.90115l-25.60441,46.842l-0.61795,37.8618z" fill="#f2f2f2" id="svg_2" transform="translate(-206.41535 -85)"/>
  <path d="m345,723.419c0,27.107 -16.11508,36.57288 -35.99252,36.57288c-0.46278,0 -0.92308,-0.005 -1.38085,-0.01751c-0.92058,-0.02 -1.83365,-0.06 -2.73421,-0.12508c-17.94123,-1.26829 -31.88,-11.222 -31.88,-36.43029c0,-26.08631 33.33085,-59.00441 35.84492,-61.44845l0.005,-0.0025c0.09506,-0.095 0.14508,-0.14258 0.14508,-0.14258s35.99258,34.48407 35.99258,61.59353z" fill="#3f3d56" id="svg_3" transform="translate(-206.41535 -85)"/>
  <path d="m307.69416,755.84428l13.16574,-18.394l-13.19826,20.41276l-0.035,2.11132c-0.92058,-0.02 -1.83365,-0.06 -2.73421,-0.12508l1.41838,-27.11946l-0.01,-0.21013l0.025,-0.04l0.13258,-2.56162l-13.23077,-20.4653l13.2708,18.5441l0.03252,0.54285l1.07317,-20.49033l-11.32711,-21.14573l11.46466,17.546l1.1157,-42.47908l0.005,-0.14508l0,0.14258l-0.18513,33.49847l11.27456,-13.28082l-11.32209,16.16511l-0.29767,18.34649l10.52908,-17.606l-10.57411,20.30767l-0.1651,10.19889l15.28459,-24.50789l-15.34209,28.06759l-0.37024,22.68669z" fill="#f2f2f2" id="svg_4" transform="translate(-206.41535 -85)"/>
  <rect fill="url(#a3c4672e-2259-4d6c-8c24-5949363a8af1)" height="270.67829" id="svg_5" width="284.09028" x="136.92798" y="199.61685"/>
  <rect fill="#fff" height="258.48558" id="svg_6" width="271.89757" x="143.02434" y="205.71321"/>
  <rect fill="#002d61" height="238.97723" id="svg_7" width="252.38922" x="152.77851" y="215.46739"/>
  <path d="m531.58409,353.54981l30.79707,0l-76.99269,132.81239l-76.99269,-132.81239l58.89941,0l18.09328,30.79707l17.70832,-30.79707l28.4873,0z" fill="#41b883" id="svg_8" transform="translate(-206.41535 -85)"/>
  <path d="m408.39578,353.54981l76.99269,132.81239l76.99269,-132.81239l-30.79707,0l-46.19562,79.68743l-46.58058,-79.68743l-30.41211,0z" fill="#41b883" id="svg_9" transform="translate(-206.41535 -85)"/>
  <path d="m438.80789,353.54981l46.58058,80.07239l46.19562,-80.07239l-28.4873,0l-17.70832,30.79707l-18.09328,-30.79707l-28.4873,0z" fill="#35495e" id="svg_10" transform="translate(-206.41535 -85)"/>
  <g id="svg_11" opacity="0.5">
   <rect fill="url(#acf699b8-10e6-407b-86e3-0f7f8fa4bdb6)" height="163.03871" id="svg_12" width="373.09711" x="5.24665"/>
  </g>
  <rect fill="#fff" height="156.06676" id="svg_13" width="363.34294" x="10.12373" y="2.09486"/>
  <rect fill="#002d61" height="136.55842" id="svg_14" transform="matrix(1, 0, 0, 1, 0, 0)" width="342.46291" x="20.56375" y="11.84903"/>
  <rect fill="url(#b28a1e8f-be05-408d-a6f5-6fd2e5b0337f)" height="214.5918" id="svg_20" width="214.5918" x="456.37714" y="0.87558"/>
  <rect fill="#fff" height="202.39909" id="svg_21" width="202.39909" x="462.4735" y="6.97194"/>
  <rect fill="#002d61" height="182.89074" id="svg_22" width="182.89074" x="472.22767" y="16.72612"/>
  <path d="m704.13566,154.52327l66.05343,-23.53464l67.83225,23.11618l-10.98318,87.39185l-56.84907,31.48417l-55.95966,-31.06572l-10.09377,-87.39184z" fill="#e23237" id="svg_23" transform="translate(-206.41535 -85)"/>
  <path d="m838.02134,154.10481l-67.83225,-23.11618l0,141.9922l56.84907,-31.43167l10.98318,-87.44435z" fill="#b52e31" id="svg_24" transform="translate(-206.41535 -85)"/>
  <path d="m770.29358,147.56762l-41.159,91.57584l15.37561,-0.26147l8.26351,-20.6585l36.923,0l9.04791,20.92l14.69569,0.26147l-43.14674,-91.83732l0.00002,-0.00002zm0.105,29.33993l13.91129,29.07794l-26.14982,0l12.23853,-29.07794z" fill="#fff" id="svg_25" transform="translate(-206.41535 -85)"/>
  <rect fill="url(#f1fc4b36-2829-4464-83b0-fd2af5b19fd6)" height="214.5918" id="svg_26" width="284.09028" x="497.83237" y="255.70335"/>
  <rect fill="#fff" height="202.39909" id="svg_27" width="271.89757" x="503.92873" y="261.79971"/>
  <rect fill="#002d61" height="182.89074" id="svg_28" width="252.38922" x="513.6829" y="271.55388"/>
  <path d="m770.19756,447.58909c-0.03656,11.57015 11.2273,22.40646 29.01941,28.551c-3.61342,17.89464 -0.73923,32.33659 8.99408,37.9908c10.00439,5.81222 24.94893,1.85816 39.16068,-10.48612c13.77737,11.93233 27.72445,16.65507 37.48491,11.04619c10.03193,-5.76518 13.12564,-21.16677 9.529,-39.64358c18.57135,-6.0748 28.97776,-15.25177 29.0148,-26.97426c0.0357,-11.30159 -11.25186,-21.11432 -28.80445,-27.219c3.99574,-19.21575 0.70617,-33.30857 -9.43044,-39.19647c-9.77239,-5.67661 -23.91237,-0.80053 -37.96876,11.35457c-14.543,-12.99453 -28.51521,-16.99177 -38.678,-11.15173c-9.79907,5.631 -12.63642,20.31748 -9.12575,38.56581c-17.22942,5.946 -29.15992,15.90696 -29.19548,27.16279z" fill="#fff" id="svg_29" transform="translate(-206.41535 -85)"/>
  <path d="m890.85575,426.84936q-2.1699,-0.752 -4.37562,-1.394q0.37069,-1.48606 0.68624,-2.98508c3.36623,-16.08356 1.23949,-29.05572 -6.14976,-33.34709c-7.08451,-4.11578 -18.70608,0.11553 -30.462,10.28058q-1.7376,1.50591 -3.39747,3.09815q-1.10448,-1.06539 -2.24785,-2.08933c-12.25223,-10.94841 -24.5533,-15.58407 -31.96173,-11.32681c-7.10378,4.0824 -9.24256,16.26491 -6.30593,31.52659q0.4383,2.267 0.99134,4.5096c-1.74416,0.48946 -3.42881,1.01161 -5.04071,1.56772c-14.4203,4.97635 -23.64468,12.81849 -23.67047,20.98232c-0.02664,8.43239 9.82176,16.92127 24.80972,22.09651q1.823,0.62656 3.67545,1.16171q-0.60979,2.41143 -1.08415,4.8541c-2.89307,14.97831 -0.70816,26.88546 6.35111,30.9873c7.29127,4.23506 19.56455,-0.05561 31.53557,-10.453q1.41924,-1.23292 2.84736,-2.60793q1.78636,1.73446 3.66728,3.36735c11.53209,9.98692 22.93961,14.04109 30.01866,9.97306c7.3113,-4.20157 9.72292,-16.97813 6.69271,-32.54178q-0.34662,-1.78316 -0.80441,-3.63951q1.29279,-0.37707 2.5327,-0.782c15.6142,-5.1183 25.78848,-13.44095 25.81547,-21.98593c0.02589,-8.19334 -9.44485,-16.14752 -24.12352,-21.25254l0.00001,0.00001z" fill="#53c1de" id="svg_30" transform="translate(-206.41535 -85)"/>
  <path d="m887.35313,464.56524c-0.74442,0.24392 -1.50869,0.47936 -2.28738,0.70752a136.41926,136.41926 0 0 0 -6.83525,-17.25806a136.36111,136.36111 0 0 0 6.67541,-16.96429c1.39027,0.40783 2.74013,0.83661 4.04054,1.28932c12.57709,4.37339 20.23656,10.80624 20.221,15.7438c-0.01662,5.25971 -8.33268,12.06179 -21.81368,16.48171l-0.00064,0zm-5.62285,11.05513c1.33972,6.882 1.51456,13.10089 0.59719,17.95913c-0.82427,4.36537 -2.46287,7.27218 -4.48132,8.43216c-4.29569,2.46848 -13.45551,-0.78676 -23.317,-9.32746q-1.69613,-1.46857 -3.41152,-3.1299a136.58707,136.58707 0 0 0 11.45037,-14.44547a135.68288,135.68288 0 0 0 18.4363,-2.78208q0.41019,1.68128 0.726,3.29363l-0.00002,-0.00001zm-56.593,25.796c-4.19378,1.46623 -7.53037,1.49783 -9.54327,0.32873c-4.28425,-2.48836 -6.0376,-12.05 -3.56386,-24.85888q0.44121,-2.2706 1.00781,-4.51412a136.67722,136.67722 0 0 0 18.32682,2.71217a141.43655,141.43655 0 0 0 11.63355,14.46661q-1.27041,1.22118 -2.59976,2.3787c-5.29356,4.59814 -10.59371,7.85467 -15.26069,9.4868l-0.0006,-0.00001zm-19.50848,-37.14183c-6.62724,-2.28863 -12.09681,-5.25282 -15.84221,-8.48012c-3.36527,-2.90094 -5.06026,-5.77552 -5.05291,-8.104c0.01565,-4.95382 7.42209,-11.25 19.75487,-15.50612q2.32189,-0.79778 4.68751,-1.45864a139.39663,139.39663 0 0 0 6.5771,17.20426a141.51219,141.51219 0 0 0 -6.76894,17.40657q-1.69051,-0.48966 -3.35542,-1.06195zm6.72047,-44.76048c-2.516,-13.07635 -0.78683,-22.92865 3.49438,-25.38874c4.56051,-2.62059 14.61344,1.16857 25.19221,10.62138c0.67611,0.60428 1.35514,1.23688 2.03531,1.89115a139.28544,139.28544 0 0 0 -11.63534,14.3064a142.02139,142.02139 0 0 0 -18.16468,2.76427q-0.51373,-2.08559 -0.92188,-4.19506l0,0.0006zm58.64314,14.67715q-1.98424,-3.45258 -4.11582,-6.81727c4.33971,0.56167 8.4964,1.3034 12.39907,2.2075a123.98473,123.98473 0 0 1 -4.3917,11.70211q-1.87476,-3.58467 -3.89155,-7.09234zm-23.85968,-23.38691a124.30213,124.30213 0 0 1 7.97614,9.69087q-8.03466,-0.40512 -16.08078,-0.05442c2.65442,-3.47745 5.37248,-6.70721 8.10464,-9.63645zm-24.16063,23.27495q-2.013,3.46638 -3.86268,7.02389c-1.67994,-4.01983 -3.11562,-7.97144 -4.28619,-11.78673c3.88475,-0.85663 8.02672,-1.55348 12.34156,-2.07876q-2.17638,3.3711 -4.19269,6.8416zm4.18535,34.74689a123.7581,123.7581 0 0 1 -12.53262,-2.05559c1.21352,-3.8752 2.70633,-7.90246 4.448,-11.99758q1.83435,3.57081 3.83508,7.05242q2.04103,3.55055 4.24954,7.00075zm19.90045,16.55509c-2.7454,-2.98147 -5.48259,-6.27785 -8.15516,-9.8227q3.90681,0.16589 7.95982,0.17929q4.1602,0.01314 8.21379,-0.1565a123.60228,123.60228 0 0 1 -8.01845,9.79991zm27.83893,-30.64084a123.43714,123.43714 0 0 1 4.53124,11.9832a123.35188,123.35188 0 0 1 -12.69877,2.1234q2.168,-3.413 4.19892,-6.91022q2.06415,-3.55359 3.96861,-7.19638zm-8.99453,4.27694q-3.10849,5.36068 -6.56048,10.51084c-4.03767,0.27567 -8.20978,0.41122 -12.4609,0.39779c-4.23365,-0.01338 -8.35189,-0.15826 -12.31738,-0.4279q-3.50677,-5.15733 -6.61613,-10.56873q-3.09246,-5.37892 -5.77,-10.98093q2.70393,-5.58272 5.82184,-10.95032l0,0.00121q3.11489,-5.36488 6.63024,-10.48171c4.04736,-0.29311 8.19662,-0.44017 12.39054,-0.42692c4.21258,0.0133 8.36624,0.1878 12.41046,0.50888q3.44525,5.12715 6.52244,10.48773q3.09258,5.37138 5.831,10.93535q-2.74377,5.60034 -5.881,10.9947l-0.00063,0.00001zm12.19549,-64.86815c4.5475,2.64214 6.28613,13.24362 3.37965,27.13019q-0.28573,1.35695 -0.62032,2.70289a139.23914,139.23914 0 0 0 -18.18282,-2.9315a136.54214,136.54214 0 0 0 -11.45556,-14.39018q1.53312,-1.46871 3.13779,-2.85992c10.07254,-8.71015 19.47143,-12.132 23.74125,-9.65148l0.00001,0z" fill="#fff" id="svg_31" transform="translate(-206.41535 -85)"/>
  <path d="m846.98892,435.73756a12.14977,12.14977 0 1 1 -12.18779,12.111a12.14944,12.14944 0 0 1 12.18779,-12.111" fill="#53c1de" id="svg_32" transform="translate(-206.41535 -85)"/>
  <g id="svg_33" opacity="0.7">
   <g id="svg_34" opacity="0.1">
    <polygon fill="url(#bb60ebe1-81e2-422a-a970-aa43062904da)" id="svg_35" points="602.37 565.043 602.37 583.59 602.37 589.773 602.37 672.203 602.37 678.386 602.37 695.902 577.64 695.902 569.397 695.902 569.397 678.386 569.397 672.203 569.397 589.773 569.397 583.59 569.397 565.043 577.64 565.043 602.37 565.043"/>
   </g>
   <g id="svg_36" opacity="0.1">
    <polygon fill="url(#a1b2f907-b002-48c8-973d-a12b277f13d1)" id="svg_37" points="567.337 565.043 567.337 583.59 567.337 589.773 567.337 672.203 567.337 678.386 567.337 695.902 542.607 695.902 534.364 695.902 534.364 678.386 534.364 672.203 534.364 589.773 534.364 583.59 534.364 565.043 542.607 565.043 567.337 565.043"/>
   </g>
  </g>
  <rect fill="#002d61" height="36.86608" id="svg_38" rx="14.2973" width="86.63529" x="56.36379" y="660.51622"/>
  <g id="svg_39" opacity="0.7">
   <g id="svg_40" opacity="0.1">
    <polygon fill="url(#a8136d5f-4c26-4562-977f-ea29024932d1)" id="svg_41" points="218.832 566.043 218.832 584.59 218.832 590.773 218.832 673.203 218.832 679.386 218.832 696.902 243.562 696.902 251.805 696.902 251.805 679.386 251.805 673.203 251.805 590.773 251.805 584.59 251.805 566.043 243.562 566.043 218.832 566.043"/>
   </g>
   <g id="svg_42" opacity="0.1">
    <polygon fill="url(#eaaf4b84-3353-429f-a894-84d4b3cd89b7)" id="svg_43" points="253.866 566.043 253.866 584.59 253.866 590.773 253.866 673.203 253.866 679.386 253.866 696.902 278.595 696.902 286.838 696.902 286.838 679.386 286.838 673.203 286.838 590.773 286.838 584.59 286.838 566.043 278.595 566.043 253.866 566.043"/>
   </g>
   <g id="svg_44" opacity="0.1">
    <polygon fill="url(#fa1ca12c-a5d3-4b88-b665-ae3e1db189da)" id="svg_45" points="352.601 688.383 325.251 585.838 325.251 585.838 323.658 579.865 323.658 579.865 318.878 561.944 287.019 570.441 291.799 588.362 291.799 588.362 293.068 593.119 314.635 673.982 314.635 673.982 316.228 679.955 316.228 679.955 320.742 696.88 352.601 688.383"/>
   </g>
  </g>
  <rect fill="#535461" height="124.25606" id="svg_46" width="31.30861" x="222.20723" y="569.24144"/>
  <rect fill="#002d61" height="5.87037" id="svg_47" width="31.30861" x="222.20723" y="586.85254"/>
  <rect fill="#002d61" height="5.87037" id="svg_48" width="31.30861" x="222.20723" y="670.99444"/>
  <rect height="124.25606" id="svg_49" opacity="0.1" width="7.82715" x="245.68869" y="569.24144"/>
  <rect fill="#535461" height="124.25606" id="svg_50" width="31.30861" x="255.47264" y="569.24144"/>
  <rect fill="#002d61" height="5.87037" id="svg_51" width="31.30861" x="255.47264" y="586.85254"/>
  <rect fill="#002d61" height="5.87037" id="svg_52" width="31.30861" x="255.47264" y="670.99444"/>
  <rect height="124.25606" id="svg_53" opacity="0.1" width="7.82715" x="278.9541" y="569.24144"/>
  <rect fill="#535461" height="124.25606" id="svg_54" transform="translate(-372.80777 74.29859) rotate(-14.93399)" width="31.30861" x="508.8509" y="652.28465"/>
  <rect fill="#002d61" height="5.87037" id="svg_55" transform="translate(-362.8158 70.17999) rotate(-14.93399)" width="31.30861" x="498.13504" y="671.30024"/>
  <rect fill="#002d61" height="5.87037" id="svg_56" transform="translate(-383.03485 78.51409) rotate(-14.93399)" width="31.30861" x="519.81891" y="752.60011"/>
  <rect height="124.25606" id="svg_57" opacity="0.1" transform="translate(-371.64487 77.11985) rotate(-14.93399)" width="7.82715" x="531.9358" y="649.259"/>
  <rect fill="#535461" height="124.25606" id="svg_58" transform="translate(1371.45134 1347.73895) rotate(-180)" width="31.30861" x="773.27903" y="654.24144"/>
  <rect fill="#002d61" height="5.87037" id="svg_59" transform="translate(1371.45134 1264.57544) rotate(-180)" width="31.30861" x="773.27903" y="671.85254"/>
  <rect fill="#002d61" height="5.87037" id="svg_60" transform="translate(1371.45134 1432.85924) rotate(-180)" width="31.30861" x="773.27903" y="755.99444"/>
  <rect height="124.25606" id="svg_61" opacity="0.1" transform="translate(1347.96988 1347.73895) rotate(-180)" width="7.82715" x="773.27903" y="654.24144"/>
  <rect fill="#535461" height="124.25606" id="svg_62" transform="translate(1304.92053 1347.73895) rotate(-180)" width="31.30861" x="740.01363" y="654.24144"/>
  <rect fill="#002d61" height="5.87037" id="svg_63" transform="translate(1304.92053 1264.57544) rotate(-180)" width="31.30861" x="740.01363" y="671.85254"/>
  <rect fill="#002d61" height="5.87037" id="svg_64" transform="translate(1304.92053 1432.85924) rotate(-180)" width="31.30861" x="740.01363" y="755.99444"/>
  <rect height="124.25606" id="svg_65" opacity="0.1" transform="translate(1281.43907 1347.73895) rotate(-180)" width="7.82715" x="740.01363" y="654.24144"/>
  <path d="m848.65412,719.16264l113.51162,0s22.39345,28.571 -12.355,71.04128l-89.5738,0s-32.43189,-29.34314 -11.58282,-71.04128z" fill="#002d61" id="svg_66" transform="translate(-206.41535 -85)"/>
  <g id="svg_67" opacity="0.1">
   <path d="m962.16574,719.16264l-113.51162,0c-0.2586,0.51721 -0.50274,1.031 -0.74508,1.54438l110.39576,0s21.844,27.88077 -11.11731,69.4969l2.62324,0c34.74846,-42.47033 12.35501,-71.04128 12.35501,-71.04128z" id="svg_68" transform="translate(-206.41535 -85)"/>
  </g>
  <rect fill="#e0e0e0" height="26.68371" id="svg_69" width="787.1693" y="692.40023"/>
  <rect fill="#e0e0e0" height="10.91606" id="svg_70" width="720.46004" x="33.35463" y="719.08394"/>
  <rect height="3.63869" id="svg_71" opacity="0.1" width="720.46004" x="33.35463" y="719.08394"/>
  <use id="svg_73" transform="translate(269.059, 172.575) scale(0.606301, 0.584727) translate(-269.059, -172.575) translate(-128.309, -292.776) scale(0.368297, 0.351074) translate(128.309, 292.776) translate(-442.011, -846.31) scale(0.701661, 0.532938) translate(442.011, 846.31) translate(924.373, 1774.04) scale(1.01565, 0.695743) translate(-924.373, -1774.04) translate(1179.95, 2284.99) scale(0.577023, 0.958343) translate(-1179.95, -2284.99) translate(-1085, 259) matrix(0.618619, 0, 0, 0.719373, 470.282, -462.53)" x="1352.176617" xlink:href="#svg_72" y="1565.314336"/>
  <g id="svg_74"/>
 </g>
</svg>