<svg width="640" height="240" 
  xmlns="http://www.w3.org/2000/svg" 
  xmlns:svg="http://www.w3.org/2000/svg">
  <!-- Created with SVG-edit - http://svg-edit.googlecode.com/ -->
  <rect width="100%" height="100%" x="0" y="0" fill="#ffffff" />
  <!-- <text x="321" y="125" font-family="Monospace" text-anchor="middle" font-size="24">https://www.myblog.com/app/read/posts/1</text> -->
  <text x="25" y="123" font-size="24" font-family="Monospace">https://www.myblog.com</text>
  <polyline points="25,132 25,147 350,147 350,132 345,132 345,142 30,142 30,132"/>
  <text x="160" y="175" font-size="24" id="svg_10">origine</text>
  <text x="350" y="123" font-size="24" font-family="Monospace">/app/read</text>
  <polyline points="355,132 355,147 475,147 475,132 470,132 470,142 360,142 360,132"/>
  <text font-size="24" id="svg_10" x="398" y="175">base</text>
  <text x="480" y="123" font-size="24" font-family="Monospace">/post/1</text>
  <polyline points="480,132 480,147 585,147 585,132 580,132 580,142 485,142 485,132"/>
  <text font-size="24" id="svg_10" x="508" y="175">route</text>
  <polyline transform="matrix(-1,0,0,-1,1130,395)"  points="545,294 545,309 775,309 775,294 770,294 770,304 550.4,304 550,294"/>
  <text font-size="24" id="svg_10" x="442" y="71">chemin</text>
</svg>