<?xml version="1.0" encoding="utf-8"?>
<!-- Generator: Adobe Illustrator 25.0.0, SVG Export Plug-In . SVG Version: 6.00 Build 0)  -->
<svg version="1.1" id="Layer_1" xmlns="http://www.w3.org/2000/svg" xmlns:xlink="http://www.w3.org/1999/xlink" x="0px" y="0px"
	 viewBox="0 0 1080 1070.5" style="enable-background:new 0 0 1080 1070.5;" xml:space="preserve">
<style type="text/css">
	.st0{fill:#000000;}
</style>
<g>
	<path class="st0" d="m296.52 92.14c10.3 0 18.01-1.71 23.16-5.15 2.57-2.57 3.87-4.7 3.87-6.43v7.73c0 3.44-3 6.01-9.01 7.72-5.14 1.73-11.13 2.57-18.01 2.57-6.86 0-12.87-0.85-18.01-2.57-5.15-1.71-7.72-4.28-7.72-7.72v-7.73c0 1.73 1.28 3.87 3.86 6.43 4.29 3.44 11.57 5.15 21.86 5.15zm59.19 32.17c10.3 0 17.57-1.71 21.88-5.15 2.57-2.57 3.86-4.7 3.86-6.43v7.72c0 3.44-3.01 6.01-9 7.72-4.3 1.73-9.87 2.57-16.73 2.57-6.88 0-12.87-0.85-18.01-2.57-5.99-1.71-9.01-4.28-9.01-7.72v-7.72c0 1.73 1.29 3.86 3.87 6.43 5.13 3.44 12.84 5.15 23.14 5.15zm492.79 240.6v488.93l-84.92 11.58v97.79l-335.82 46.32v-96.5l-84.93 11.58v-781l168.55-24.45v176.27c3.42 0.86 7.72 1.29 12.87 1.29 9.42 0 16.73-2.13 21.88-6.43 2.57-1.71 3.86-3.42 3.86-5.15v6.43c0 3.44-3.02 6.43-9 9-4.3 1.73-9.88 2.57-16.73 2.57-4.3 0-8.59-0.42-12.87-1.28v12.86l252.19-36.03v78.49c4.28 0.86 8.56 1.29 12.86 1.29 10.3 0 17.57-1.71 21.88-5.15 2.57-2.57 3.86-4.7 3.86-6.43v6.43c0 3.44-2.57 6.43-7.71 9-5.15 1.73-11.16 2.57-18.02 2.57-4.3 0-8.59-0.42-12.86-1.28v12.86l84.91-11.56zm-467.06-284.35c10.3 0 17.57-1.71 21.88-5.15 2.57-2.57 3.86-4.7 3.86-6.43v6.43c0 3.44-2.57 6.44-7.71 9.01-5.15 1.73-11.16 2.57-18.02 2.57-6.88 0-12.86-0.84-18.01-2.57-6.01-2.57-9-5.58-9-9.01v-6.43c0 1.73 1.28 3.86 3.86 6.43 5.13 3.44 12.84 5.15 23.14 5.15zm57.9 32.17c10.29 0 17.56-1.71 21.87-5.15 2.57-2.57 3.87-4.7 3.87-6.43v6.43c0 3.44-2.57 6.43-7.72 9-5.15 1.73-11.16 2.57-18.01 2.57-6.88 0-12.87-0.85-18.02-2.57-5.15-2.57-7.71-5.57-7.71-9v-6.43c0 1.73 1.28 3.86 3.86 6.43 4.27 3.44 11.57 5.15 21.86 5.15zm240.61 665.19v-292.06l-168.55 24.45v272.76c3.42 0.86 7.72 1.29 12.87 1.29 10.29 0 17.56-2.14 21.88-6.44 2.57-1.7 3.86-3.41 3.86-5.14v6.44c0 3.44-3.02 6.01-9 7.72-4.3 2.57-9.88 3.86-16.73 3.86-4.3 0-8.59-0.42-12.87-1.29v12.87l168.54-24.46zm-129.96-524.95c10.3 0 17.57-2.13 21.88-6.43 2.57-1.71 3.86-3.42 3.86-5.15v6.43c0 3.44-2.57 6.01-7.72 7.72-5.15 2.57-11.15 3.87-18.01 3.87-6.88 0-12.87-1.29-18.02-3.87-6-1.71-9-4.28-9-7.72v-6.43c0 1.73 1.29 3.44 3.87 5.15 5.13 4.3 12.85 6.43 23.14 6.43zm0 486.36c10.3 0 17.57-1.71 21.88-5.15 2.57-2.57 3.86-4.28 3.86-5.15v6.43c0 3.44-2.57 6.01-7.72 7.72-5.15 1.73-11.15 2.57-18.01 2.57-6.88 0-12.87-0.85-18.02-2.57-6-1.71-9-4.28-9-7.72v-6.43c0 0.86 1.29 2.57 3.87 5.15 5.13 3.44 12.85 5.15 23.14 5.15zm57.9-454.19c10.3 0 17.57-2.14 21.88-6.44 2.57-1.7 3.87-3.41 3.87-5.14v6.43c0 3.44-2.57 6.01-7.72 7.72-5.15 2.57-11.16 3.86-18.02 3.86-6.88 0-12.86-1.28-18.01-3.86-5.15-1.71-7.72-4.28-7.72-7.72v-6.43c0 1.73 1.29 3.44 3.87 5.14 4.26 4.3 11.56 6.44 21.85 6.44zm0 486.35c10.3 0 17.57-1.71 21.88-5.15 2.57-2.57 3.87-4.28 3.87-5.15v6.44c0 3.44-2.57 6.01-7.72 7.71-5.15 1.74-11.16 2.57-18.02 2.57-6.88 0-12.86-0.84-18.01-2.57-5.15-1.7-7.72-4.28-7.72-7.71v-6.44c0 0.87 1.29 2.57 3.87 5.15 4.26 3.44 11.56 5.15 21.85 5.15zm25.74-531.38c10.29 0 17.56-1.71 21.87-5.15 3.42-2.57 5.15-4.28 5.15-5.15v6.43c0 3.44-3.02 6.01-9 7.72-5.15 1.73-11.16 2.57-18.01 2.57-6.88 0-12.87-0.85-18.02-2.57-5.15-1.71-7.72-4.28-7.72-7.72v-6.43c0 0.86 1.29 2.57 3.87 5.15 4.27 3.44 11.56 5.15 21.86 5.15zm59.18 32.16c10.3 0 17.57-1.71 21.88-5.15 2.57-2.57 3.87-4.28 3.87-5.14v6.44c0 3.44-3.02 6.01-9.01 7.72-4.3 1.73-9.87 2.57-16.73 2.57-6.87 0-12.86-0.84-18.01-2.57-6.01-1.71-9-4.28-9-7.72v-6.44c0 0.86 1.28 2.57 3.86 5.14 5.13 3.44 12.85 5.15 23.14 5.15z"/>
</g>
</svg>
