<?xml version="1.0" encoding="utf-8"?>
<!-- Generator: Adobe Illustrator 16.0.3, SVG Export Plug-In . SVG Version: 6.00 Build 0)  -->
<!DOCTYPE svg PUBLIC "-//W3C//DTD SVG 1.1//EN" "http://www.w3.org/Graphics/SVG/1.1/DTD/svg11.dtd">
<svg version="1.1" id="Calque_1" xmlns="http://www.w3.org/2000/svg" xmlns:xlink="http://www.w3.org/1999/xlink" x="0px" y="0px"
	 width="198.425px" height="198.414px" viewBox="0 0 198.425 198.414" enable-background="new 0 0 198.425 198.414"
	 xml:space="preserve">
<g>
	<rect fill="#004982" width="198.425" height="198.414"/>
	<g>
		<path fill="#FFFFFF" d="M103.95,133.966c0,0,2.037,0.355-0.096,1.258c0.004,0-14.058,5.66-32.429,5.66
			c-17.722,0-38.568-7.643-42.372-29.408C25.488,91.067,43.207,60.36,85.203,43.38c0,0,33.12-13.385,60.594-4.074
			c0,0,25.047,7.629,22.292,34.221c0,0-0.991,23.584-28.916,38.441c0,0-11.792,6.822-11.3-0.807l2.775-22.979
			c0,0,1.682-5.236-3.767-2.57c0,0-2.475,1.395-1.982-0.588c0,0,0-0.301,1.292-0.793l9.707-2.775c0,0,2.769-1.094,2.181,3.063
			l-2.68,21.994c0,0-1.189,5.113,2.379,3.568l0,0c11.389-3.568,19.811-17.332,19.811-17.332c12.277-21.396,3.172-35.26,3.172-35.26
			c-11.293-18.826-38.828-18.033-38.828-18.033c-40.216,0-64.183,23.98-64.183,23.98c-31.496,27.535-21.595,50.705-21.595,50.705
			c13.668,35.451,67.289,19.865,67.289,19.865L103.95,133.966z"/>
		<path fill="#FFFFFF" d="M52.739,99.585c-0.068-4.717,3.35-15.244,9.102-15.244c2.256,0,2.69,1.818,2.69,3.623
			c0,1.313-0.144,2.543-0.434,3.787L52.739,99.585z M69.381,106.991c-2.68,2.324-6.378,5.373-10.09,5.373
			c-5.602,0-6.621-5.811-6.552-10.236c7.28-5.004,14.109-9.215,20.2-14.369c0.072-0.588,0.219-1.094,0.219-1.682
			c0-0.205-0.075-0.424-0.362-0.424c-0.588,0,0,0.355-2.618,1.955v-1.313c0-3.541-2.386-4.334-5.575-4.334
			c-11.566,0-19.78,10.65-19.78,21.629c0,6.887,2.905,12.041,10.466,12.041c5.749,0,11.344-2.83,15.107-7.109L69.381,106.991z"/>
		<path fill="#FFFFFF" d="M80.619,85.38c3.852-2.242,10.681-3.678,12.424-3.678c0.796,0,1.09,0.137,1.09,1.436
			c0,2.748-0.731,6.221-1.237,12.332l0.147,0.137c2.468-5.811,7.41-13.904,13.859-13.904c3.682,0,4.775,3.678,4.775,6.713
			c0,3.131-2.105,18.74-2.092,20.176c0,0.506,0,2.242,0.868,2.242c0.943,0,3.924-1.6,4.942-2.105l0.581,1.668
			c-2.837,2.379-9.663,4.484-12.277,4.484c-1.524,0-1.524-2.898-1.524-3.76c0-4.768,2.536-16.252,2.563-21.816
			c0-1.244-0.362-2.557-1.962-2.557c-2.905,0-5.448,4.238-6.542,6.289c-3.626,6.604-4.283,10.445-5.807,20.955h-7.044
			c1.159-8.623,3.339-22.637,3.339-26c0-1.313,0-2.475-1.019-2.475c-1.162,0-3.339,1.094-4.501,1.6L80.619,85.38z"/>
		<path fill="#FFFFFF" d="M131.434,73.458c0-2.611,2.468-5.086,5.004-5.086c1.818,0,2.967,1.449,2.967,3.131
			c0,2.461-2.167,5.086-4.703,5.086C132.815,76.589,131.434,75.345,131.434,73.458z"/>
	</g>
	<rect x="39.05" y="166.818" fill="#FFFFFF" width="120.767" height="3.965"/>
</g>
</svg>
