<?xml version="1.0" standalone="no"?>
<!DOCTYPE svg PUBLIC "-//W3C//DTD SVG 20010904//EN"
 "http://www.w3.org/TR/2001/REC-SVG-20010904/DTD/svg10.dtd">
<svg version="1" xmlns="http://www.w3.org/2000/svg"
 width="1300pt" height="1300pt" viewBox="0 0 1300 1100"
 preserveAspectRatio="xMidYMid meet">

<g transform="matrix(0.1,0,0,-0.1,0,1100)"
fill="#002d61" stroke="none">
<path d="M 2265.7 9443.3 l -240 -6 l -65 -39 c -93 -57 -190 -157 -230 -240 c -32 -64 -34 -76 -41 -215 c -18 -324 -28 -3224 -18 -4866 c 10 -1770 16 -2000 47 -2105 c 94 -314 307 -567 588 -696 c 174 -81 387 -117 567 -96 c 173 19 347 75 450 143 c 117 77 457 410 2209 2159 l 1028 1025 l 437 -436 c 2067 -2057 2616 -2596 2769 -2719 c 42 -34 104 -71 150 -90 c 427 -178 909 -83 1217 239 c 91 95 145 174 202 294 c 69 144 95 247 106 427 c 11 180 15 1989 11 4835 l -2 2000 l -48 85 c -58 105 -162 212 -251 259 c -62 33 -68 34 -235 43 c -94 5 -398 8 -676 5 c -556 -4 -559 -4 -666 -68 c -83 -49 -164 -133 -217 -224 l -47 -80 l -1 -1370 c -1 -753 -5 -1713 -8 -2131 l -6 -762 l -935 927 c -966 956 -1144 1127 -1244 1192 c -64 42 -180 90 -296 122 c -63 17 -104 21 -255 21 c -164 0 -189 -2 -277 -26 c -125 -34 -248 -88 -313 -137 c -117 -88 -331 -296 -1216 -1178 c -509 -508 -928 -923 -932 -923 c -4 0 -7 861 -7 1913 c 0 1897 -5 2215 -34 2357 c -18 86 -33 114 -97 185 c -63 69 -150 129 -227 158 c -55 20 -75 21 -507 22 c -247 1 -558 -1 -690 -4 z"/>
</g>
</svg>
