<?xml version="1.0" encoding="UTF-8" standalone="no"?>
<svg
   xmlns:dc="http://purl.org/dc/elements/1.1/"
   xmlns:cc="http://creativecommons.org/ns#"
   xmlns:rdf="http://www.w3.org/1999/02/22-rdf-syntax-ns#"
   xmlns:svg="http://www.w3.org/2000/svg"
   xmlns="http://www.w3.org/2000/svg"
   xmlns:sodipodi="http://sodipodi.sourceforge.net/DTD/sodipodi-0.dtd"
   xmlns:inkscape="http://www.inkscape.org/namespaces/inkscape"
   inkscape:version="1.0 (4035a4f, 2020-05-01)"
   height="785.07391"
   width="756.396"
   inkscape:export-ydpi="94"
   inkscape:export-xdpi="94"
   inkscape:export-filename="/Users/apaskulin/Downloads/programming.png"
   sodipodi:docname="programming-circle.svg"
   xml:space="preserve"
   viewBox="0 0 756.396 785.07391"
   y="0px"
   x="0px"
   id="Capa_1"
   version="1.1"><metadata
   id="metadata890"><rdf:RDF><cc:Work
       rdf:about=""><dc:format>image/svg+xml</dc:format><dc:type
         rdf:resource="http://purl.org/dc/dcmitype/StillImage" /><dc:title></dc:title></cc:Work></rdf:RDF></metadata><defs
   id="defs888" /><sodipodi:namedview
   inkscape:current-layer="Capa_1"
   inkscape:window-maximized="0"
   inkscape:window-y="23"
   inkscape:window-x="0"
   inkscape:cy="415.0409"
   inkscape:cx="388.8332"
   inkscape:zoom="0.67178375"
   fit-margin-bottom="0"
   fit-margin-right="0"
   fit-margin-left="0"
   fit-margin-top="0"
   showgrid="false"
   id="namedview886"
   inkscape:window-height="784"
   inkscape:window-width="1440"
   inkscape:pageshadow="2"
   inkscape:pageopacity="0"
   guidetolerance="10"
   gridtolerance="10"
   objecttolerance="10"
   borderopacity="1"
   bordercolor="#666666"
   pagecolor="#ffffff" />







<g
   transform="translate(-657.27388,143.65525)"
   id="g855">
</g>
<g
   transform="translate(-657.27388,143.65525)"
   id="g857">
</g>
<g
   transform="translate(-657.27388,143.65525)"
   id="g859">
</g>
<g
   transform="translate(-657.27388,143.65525)"
   id="g861">
</g>
<g
   transform="translate(-657.27388,143.65525)"
   id="g863">
</g>
<g
   transform="translate(-657.27388,143.65525)"
   id="g865">
</g>
<g
   transform="translate(-657.27388,143.65525)"
   id="g867">
</g>
<g
   transform="translate(-657.27388,143.65525)"
   id="g869">
</g>
<g
   transform="translate(-657.27388,143.65525)"
   id="g871">
</g>
<g
   transform="translate(-657.27388,143.65525)"
   id="g873">
</g>
<g
   transform="translate(-657.27388,143.65525)"
   id="g875">
</g>
<g
   transform="translate(-657.27388,143.65525)"
   id="g877">
</g>
<g
   transform="translate(-657.27388,143.65525)"
   id="g879">
</g>
<g
   transform="translate(-657.27388,143.65525)"
   id="g881">
</g>
<g
   transform="translate(-657.27388,143.65525)"
   id="g883">
</g>
<ellipse
   ry="392.53696"
   rx="378.198"
   cy="392.53696"
   cx="378.198"
   id="path892"
   style="fill:#eaf3ff;fill-opacity:1;stroke-width:0.907208" /><g
   transform="translate(-12.484428,0.80785197)"
   id="g1706"><polygon
     transform="translate(134.68241,135.72908)"
     style="fill:#a2a9b1;fill-opacity:1"
     points="480.106,58.472 256,58.472 235.984,409.753 480.106,389.737 "
     id="polygon833" /><g
     transform="translate(134.68241,135.72908)"
     id="g839"><polygon
       style="fill:#a2a9b1;fill-opacity:1"
       points="31.894,58.472 31.894,389.737 256,409.753 256,58.472 "
       id="polygon835" /><polygon
       style="fill:#c8ccd1;fill-opacity:1"
       points="512,389.737 256,389.737 235.984,421.632 256,453.526 512,453.526 "
       id="polygon837" /></g><rect
     x="134.68242"
     y="525.46808"
     style="fill:#c8ccd1;fill-opacity:1"
     width="256"
     height="63.789001"
     id="rect841" /><polygon
     transform="translate(134.68241,135.72908)"
     style="fill:#2a4b8d;fill-opacity:1"
     points="450.105,88.472 256,88.472 235.984,224.105 256,359.737 450.105,359.737 "
     id="polygon843" /><rect
     x="196.57745"
     y="224.19809"
     style="fill:#2a4b8d;fill-opacity:1"
     width="194.10001"
     height="271.26999"
     id="rect845" /><polygon
     transform="translate(134.68241,135.72908)"
     style="fill:#eaf3ff;fill-opacity:1"
     points="178.828,144.631 200.041,165.844 141.78,224.104 200.041,282.366 178.828,303.579 99.354,224.104 "
     id="polygon847" /><g
     transform="translate(134.68241,135.72908)"
     id="g853"><polygon
       style="fill:#eaf3ff;fill-opacity:1"
       points="370.22,224.104 311.959,165.844 333.172,144.631 412.646,224.104 333.172,303.579 311.959,282.366 "
       id="polygon849" /><rect
       x="240.99899"
       y="129.304"
       transform="matrix(-0.9808,-0.1951,0.1951,-0.9808,463.3543,493.8693)"
       style="fill:#eaf3ff;fill-opacity:1"
       width="30"
       height="189.623"
       id="rect851" /></g></g></svg>
