<?xml version="1.0" encoding="iso-8859-1"?>
<!-- Generator: Adobe Illustrator 19.1.0, SVG Export Plug-In . SVG Version: 6.00 Build 0)  -->
<svg version="1.1" xmlns="http://www.w3.org/2000/svg" xmlns:xlink="http://www.w3.org/1999/xlink" x="0px" y="0px"
	 viewBox="0 0 537.209 169.302" style="enable-background:new 0 0 537.209 169.302;" xml:space="preserve">
<g id="Layer_1">
	<g>
		<path style="fill:#A4A093;" d="M156.288,43.305l-0.102-0.131c-8.139-8.343-16.015-12.587-23.381-12.587L88.96,30.835l-17.59,0.321
			l17.59,3.209l0.656,0.671c4.186,4.244,5.09,5.615,5.265,5.951l0.306,1.736h0.773c0.321,1.327,0.846,4.974,0.846,14.79v17.678
			l-0.306,62.791c-0.175,5.149-0.685,6.228-0.685,6.257l-0.131,0.204c-1.648,2.757-3.69,4.653-6.213,5.79l-3.267,1.459
			l-14.834,3.705l18.786-0.248h27.465c4.259,1.181,7.512,1.765,9.918,1.765c9.451,0,19.02-5.528,28.427-16.438l0.248-0.335
			c9.072-15.563,13.958-39.089,13.958-53.354v-4.332C170.173,67.415,165.506,54.245,156.288,43.305z M123.805,143.013
			c-3.413,0-6.213-0.729-8.299-2.188l-0.583-0.408H114.5c-0.19-0.379-0.598-1.546-0.598-4.638V64.455
			c0-4.624,1.429-9.816,4.259-15.446c5.411-5.688,8.708-6.884,10.531-6.884h0.306c1.809,0,3.88,0.496,6.155,1.488
			c9.612,6.213,14.498,19.778,14.498,40.285c0,6.578-0.598,22.914-1.721,30.805C143.729,133.751,135.839,143.013,123.805,143.013z"
			/>
		<path style="fill:#A4A093;" d="M226.547,90.84l-0.598-1.371l-4.755-12.792l0.35,12.792v2.305c0,0.583-0.233,2.071-1.765,5.513
			c-2.728,6.68-9.029,9.918-19.268,9.918c-3.398,0-4.872-0.248-5.455-0.408c-0.365-0.423-0.992-1.648-0.992-4.988V73.6
			c0-2.494,0.846-3.18,1.488-3.428l1.619,0.233c5.732,3.53,10.312,5.236,14.017,5.236l0.263-0.015
			c8.956-1.079,10.837-5.674,10.837-9.349v-0.379c0-1.342-0.35-2.815-1.05-4.522l-0.583-1.429c-0.54,0-4.259,1.152-4.259,1.152
			v1.181c-0.496,1.225-1.138,1.327-1.809,1.327c-1.05,0-2.13-0.204-3.238-0.627c-5.192-3.253-8.839-4.769-11.45-4.769
			c-1.998,0-3.938,0.51-5.79,1.502l0.146-14.921l0.219-2.932c0.146-0.627,0.583-1.692,3.69-1.692h2.786
			c5.805,0,10.122,0.875,12.806,2.596c0.408,0.277,1.765,1.677,1.765,8.124v7.92l3.428-1.823l4.434-2.946l3.238-4.74
			c0.496-1.648,0.744-3.384,0.744-5.222v-0.627l-0.015-0.306c-1.298-9.554-2.523-12.471-5.251-12.471H163.77l10.691,3.442
			l0.671,0.671c2.596,2.582,3.384,3.69,3.617,4.055v1.94h0.977c0.219,1.181,0.511,3.909,0.511,10.108v13.025l-0.19,39.571
			c0,5.776-2.713,7.541-4.755,8.358l-3.238,1.298l-3.617,3.486l7.191,0.073h19.311c3.515,0,8.285,1.823,14.177,5.426l0.904,0.554
			l4.551-1.488l0.277-0.19c9.174-6.432,13.827-13.112,13.827-19.866v-2.115C228.676,96.732,227.976,94.063,226.547,90.84z"/>
		<path style="fill:#A4A093;" d="M275.092,13.356L266.25,2.879l4.749,13.074l0.614,1.726c4.193,11.77,6.318,22.883,6.318,33.031
			c0,11.525-3.317,23.861-9.849,36.644c-2.011,3.845-4.469,7.38-7.337,10.553l-2.392-12.286c-3.721-19.013-6.315-34.207-7.71-45.165
			v-0.723c0-0.835,0.623-2.648,4.798-5.402l1.032-0.68l6.368-2.797h-6.481h-26.648l-5.457-0.176l5.859,3.867l1.386,0.598
			c1.526,0.659,2.909,2.225,4.115,4.656c6.227,30.007,10.384,52.271,12.358,66.188c-0.096,2.342-2.578,4.7-4.667,6.276l-0.912,0.689
			v3.671l25.925-0.527v-3.388l-0.099-0.099c7.869-10.062,12.728-17.64,14.853-23.187c4.366-12.506,6.579-23.569,6.579-32.882
			c0-14.672-4.477-28.592-13.307-41.369L275.092,13.356z"/>
		<path style="fill:#A4A093;" d="M340.635,60.721l-4.084,2.596c0,0-0.292,0.117-0.627,0.248c-0.204,0.131-0.496,0.248-0.875,0.35
			c-0.073,0.029-0.131,0.044-0.161,0.044c-0.146,0.044-0.321,0.088-0.496,0.117c-0.408-0.015-0.831-0.044-1.24-0.117l-1.374,0.019
			c0,0-0.522-0.515-0.522-0.53c-0.015,0-0.044,0-0.058-0.015c-5.12-3.194-9.014-4.755-11.902-4.755c-1.663,0-3.369,0.481-5.09,1.415
			l0.321-18.436c0-0.51,0-1.531,3.282-1.531h2.786c5.922,0,10.429,0.89,13.419,2.64c1.356,1.079,2.086,3.734,2.086,7.687
			c0,0.463,0.109,0.935,0.104,1.386c-0.007,0.77-0.321,1.592-0.498,2.34c-0.39,1.647-0.781,3.295-1.171,4.942
			c4.219-0.556,8.144-3.045,10.446-6.623c1.42-2.207,2.128-5.346,2.464-7.93c0.273-2.103-0.027-4.267-0.382-6.356
			c-0.423-2.483-1.153-5.625-3.539-6.967c-0.001,0-0.467-0.263-0.467-0.263h-54.492l6.316,3.194l0.613,0.613
			c2.698,2.698,3.457,3.792,3.646,4.142v1.809h0.963c0.233,1.109,0.569,3.821,0.569,10.385v13.113l-0.219,39.614L300,107.832
			l-0.015,0.233c0,0.16-0.131,1.677-4.682,4.93l-0.875,0.627l-9.626,3.413h44.049l-8.708-3.442l-0.919-0.627
			c-3.428-2.334-5.09-5.82-5.09-10.691V71.82c0.16-0.51,0.525-1.488,0.992-1.604l1.955,0.292c5.79,3.544,10.37,5.265,14.017,5.265
			l0.292-0.029c8.81-1.24,10.662-5.426,10.662-8.722v-0.627c0-1.196-0.336-2.713-1.036-4.624L340.635,60.721z"/>
		<path style="fill:#A4A093;" d="M448.379,64.703l2.071-1.561c6.855-5.149,10.327-11.071,10.327-17.619
			c0-2.436-0.758-4.93-2.232-7.424l-0.16-0.263l-0.233-0.219c-4.551-4.376-10.035-6.578-16.307-6.578
			c-0.598,0-1.109,0.131-1.517,0.35l-4.317-0.35h-0.175c-2.975,0-5.776,0.379-8.401,1.167c-8.883,2.932-13.579,8.853-13.579,17.153
			c0,6.476,6.111,13.419,18.67,21.193l0.16,0.102c10.823,5.484,16.088,12.514,16.088,21.485c0,2.246-0.379,4.332-1.109,6.126
			c-2.48,5.63-6.899,8.401-13.506,8.474c-12.062-2.786-12.062-9.116-12.062-11.202v-0.861c0-1.969,0.948-4.419,2.83-7.293
			l8.051-12.66l-7.672,6.068l-3.763,3.15c-5.338,4.463-8.635,8.693-9.962,12.792l-0.16,8.401c1.036,3.428,3.632,7.161,7.832,11.289
			l0.642,0.627l18.757,0.467c11.698-0.19,13.083-0.817,13.827-1.75c8.503-7.03,12.821-14.761,12.821-23.016v-1.925
			C465.298,81.243,459.61,72.462,448.379,64.703z M447.066,59.787l-0.277,0.511l-1.517,2.348c-0.321-0.204-1.269-0.817-1.59-1.021
			c0,0-14.717-11.216-14.717-12.704c0-1.24,0.569-2.494,1.736-3.807c4.011-2.611,7.687-3.924,10.939-3.924
			c0.015,0,0.467,0.029,1.925,0.656c3.807,1.429,5.572,4.492,5.572,9.612C449.138,54.405,448.437,57.206,447.066,59.787z"/>
		<path style="fill:#A4A093;" d="M531.73,34.116c-0.453-3.137-5.077-3.137-6.873-3.137h-50.311l-3.356,0.235
			c-3.821,0.087-5.179,5.235-5.179,19.541v7.055l0.556,5.361l0.044,0.269c2.364,10.453,5.882,17.402,10.754,21.241l8.989,8.548
			l-5.331-11.119c-1.875-5.624-2.826-12.182-2.826-19.495c0-4.386,0.422-8.001,1.255-10.746c1.885-4.387,4.876-9.555,8.504-9.555
			c1.656,0,3.063,1.618,4.184,4.811l0.228,20.917V91.13l-0.232,41.931c0,8.079-2.286,13.908-6.988,17.819l-1.966,1.636
			l-10.302,3.384l13.336-0.35h28.101l11.848,0.35l-8.307-3.006l-2.693-1.838c-4.74-3.234-7.044-7.549-7.044-13.189v-8.604
			c0-30.98,0.266-69.889,0.767-84.215c0.196-2.472,0.948-2.709,1.528-2.731l2.663,0.444c5.467,3.072,8.126,9.496,8.126,19.623
			c0,7.752-0.943,14.265-2.804,19.355l-0.141,0.387l-4.71,11.103l9.558-9.451l0.324-0.333c6.61-8.345,9.961-16.969,9.961-25.635
			v-6.745C533.392,42.826,532.848,37.273,531.73,34.116z"/>
		<g>
			<path style="fill:#E2E1CC;" d="M149.914,40.417l-0.015,0.029l0.481,0.481L149.914,40.417z M153.866,138.477l-0.073,0.088
				l0.54,0.292L153.866,138.477z M168.408,84.626l-0.102-2.173l-0.102-2.261l-0.948-2.217l0.875-2.334l-1.094-2.144l0.146-2.305
				l-0.146-2.275l-1.604-1.94l0.073-2.45l-0.394,0.394l-1.211-0.394l-0.058-0.933l-0.117-1.006l1.225,0.7l-0.89-2.509l-0.817-2.188
				l-0.569-2.334l-1.823-1.692l-0.671-2.305l-1.984-1.517l-0.379-2.567l-1.561-1.765l-1.809-1.561l-2.217-1.473l-1.517-2.217
				l-0.831,0.263l-0.919,0.758l-0.627,0.131l-0.146-0.481l-1.823-0.977l-0.35,0.467l-0.642-0.379l-0.19,0.686l-0.583-0.233
				l0.073-0.656l0.131-0.058l-1.036-0.335l0.861-0.219l-0.073-0.554l0.481,0.438l0.044-0.452l0.715-0.233l0.146-0.773l-0.438-0.496
				l0.335,0.19l0.394-0.35l0.175,1.371l0.846,0.175l1.152,1.196l0.321,0.263l-0.044,0.438l0.817-0.146l0.394-0.744l-1.079-1.065
				l-1.648-1.488l-1.692-1.473l-2.421-0.233l-1.663-1.59l-2.086-0.744l-2.305,0.16l-2.013-0.977l-2.202-0.788l-2.873,1.298
				l-0.583-0.408l-2.246-0.306l-2.232,0.175l-2.232,0.569l-2.246-0.277l-2.246-0.583l-2.232,0.481l-2.246-0.35l-2.246-0.35
				l-2.232,1.109l-2.246-0.408l-2.261-0.656l-2.275,0.846l-2.217,0.321l-2.232-0.788l-2.232,0.248l-2.232-0.438l-2.304-0.146
				l-0.438,1.152l1.969,1.181l1.065,1.838l0.496,0.219l2.057,1.24l0.408,2.713l0.977,1.386l1.006,2.027l-0.35,2.232l0.992,2.13
				l-0.423,4.565l3.5-0.102l-3.005,2.144l-0.175,2.202l0.321,2.202l-0.846,2.217l0.627,2.202l0.175,2.217l-0.044,2.202l-0.963,2.217
				l0.088,2.217l0.656,2.217l-0.015,2.334l-0.496,4.405l1.765,0.919l-1.721,1.692l-0.029,2.334l0.336,2.348l0.525,2.348
				l-0.088,2.348l-0.496,2.348l0.35,2.334l-0.773,2.348l0.248,2.348l-0.088,2.348l-0.438,2.348l0.073,2.334l0.146,2.363l2.465-3.121
				l-2.64,7.832l1.108,2.407l-1.123,2.392l0.117,2.407l0.292,2.407l0.408,2.407l-0.088,2.407l0.248,0.788l-0.452,2.728l0.117,2.713
				l-0.321,2.567l0.277,2.64l-0.831,2.669l-1.604,1.984l-2.071,1.531l-2.13,1.254l-1.911,1.604h0.7l2.13,0.248l2.246,0.802
				l2.232,0.044l2.246-0.554l2.232-0.642l2.246,1.079l2.246-0.919l2.246,1.109l2.232-0.452l2.246-0.554l2.261,0.058l2.202,0.904
				h2.436l2.48,0.102l2.377,0.408l2.363,0.321l2.552,0.029l2.538-0.35l2.421-0.89l0.919-0.233l2.042-0.686l1.925-0.977l1.517-1.619
				l1.896-1.021l1.502-0.088l1.575-2.202l1.94-1.721l2.246-0.992l1.006-2.261l1.969-2.159l-0.146-0.146l0.335-0.394l-0.175-0.088
				l-0.233-0.583l0.292-1.181l-0.335,0.263l-0.292-0.336l0.496-0.904l-1.911-1.05l0.233-0.438l-0.263-0.408l-0.583,0.656
				l0.058-0.452l-1.925-0.598l-1.809,0.467l-0.248-1.619l1.882,0.627l1.079-0.321l0.467-2.305l1.809,0.569l-0.35,0.35l0.656,0.773
				l0.306,1.575l0.802,1.225l0.7,0.569l0.656,0.467l0.861,0.525l0.671-2.48l1.648-1.823l0.933-2.159l0.452-1.283l0.656-1.765
				l-0.817,0.117l-0.51,1.079l-1.181-0.744l1.006-1.663l-0.758-2.129l0.335-0.773l0.365,0.438l-0.044,0.438l0.861,0.7l0.365,0.715
				l0.773-0.029l0.306-1.284l-0.19,0.583l-0.758-0.467l-0.598-0.934l-0.16,0.627l-0.452,0.102l0.277-0.438l0.525-1.109l0.744-0.365
				l-0.233-0.365l0.51-0.481l0.379,1.531l1.021-0.015l-0.233-2.217l0.831-1.838l0.802-1.867l0.336-1.269l0.963-2.261l-4.449-1.094
				l4.449-1.721l0.817-2.246l0.175-2.363l-0.044-2.407l1.502-2.144l-0.219-2.421l-0.19-2.392l0.467-2.319l0.598-2.319l0.394-2.334
				l-0.117-2.363L168.408,84.626z M99.608,36.552l-0.306,0.204l0.029,0.058l-0.044,0.029l0.219,0.175l-0.175,0.933l-0.569-0.715
				l0.525-0.394L99.229,36.8l0.073-0.044l-0.321-0.817l0.671,0.394L99.608,36.552z M155.237,61.362l0.321-0.685l0.088,0.715
				l-0.248,0.671l-0.16-0.088l-0.335-0.321L155.237,61.362z M115.215,38.113l0.613,0.525l1.444,0.102l-0.685,1.356l-0.613-0.058
				l-0.511-0.919l-0.583-0.131l-0.452-0.423L115.215,38.113z M116.177,41.584l-0.365,0.277l-0.35,0.613l-0.102-0.861l-0.438-0.613
				l0.408,0.423l0.029,0.19l0.015,0.029L116.177,41.584z M139.791,144.602l-0.146,0.394l0.16-0.686l-0.715-0.146l-0.685,0.175
				l-0.467,1.065l-0.336-0.715l0.161-0.408l0.088-0.146l-0.306-0.117l-0.175-0.729l0.89,0.321l0.583-0.219l0.496,0.481l0.277-0.423
				l0.715,1.765L139.791,144.602z M142.621,146.455l0.583-1.342l0.7-0.7l-0.831-0.831l-0.919-1.225l-0.54-1.59l0.452-0.802
				l0.758-0.204l0.963,0.335l0.015,0.977l-0.263,0.7l-0.029,0.963l1.036,1.969l0.204,1.415L142.621,146.455z M147.507,135.778
				l0.642,0.452l0.977-0.204l0.613-0.452l0.802-0.525l0.89,0.175l-0.642,0.802l-0.321,0.263l-0.86,1.371l-0.438,1.809l-1.254-0.467
				v-1.05l-1.123,0.117l-0.102-1.152l0.044,0.919l-0.452-0.773l-0.467,0.219l-0.058-0.219l-0.335-0.656l1.021-0.481L147.507,135.778
				z M151.445,92.794l0.729,2.261l-1.006,2.202l0.277,2.246l0.35,2.261l-0.204,2.246l-0.992,2.173l-0.015,2.246l0.219,2.261
				l-0.598,2.188l0.452,2.334l-0.919,1.882l-0.861,2.232l-0.729,2.246l0.058,2.523l-1.459,1.998l-0.467,2.377l-0.992,2.159
				l-1.429,1.94l-0.671,2.392l-2.275,1.284l-1.152,2.1l-1.911,1.415l0.263,1.05l-2.305,1.152l-1.765,1.444l-0.365,0.102l0.277,0.146
				l-0.335,0.015l0.146,1.006l-0.496-0.525l-0.35-0.175l-0.146-0.35l-1.823,0.934l-2.494-0.088l-2.232,1.24l-2.421-0.904
				l-2.48-0.102l-2.538,0.029l-2.436-0.686l-1.969-1.867l-1.794-0.496l-0.394-1.94l-0.729-1.925l-0.117-2.042l-0.131-2.305
				l0.496-2.29l-0.058-2.304l0.015-2.29l-0.088-2.29l0.627-2.29l-0.729-2.305l0.54-2.29l-4.317-3.573l0.613-2.304l3.457-1.021
				l0.117-2.305l-0.248-2.29l0.131-2.304l-0.511-2.305l0.423-2.29l0.131-2.305l-0.263-2.304l0.204-2.305l-0.117-2.305l0.117-2.305
				l0.219-2.29l-0.117-2.305l-0.569-2.305l0.758-2.29l-0.408-2.304l0.423-2.319l-0.7-2.29l0.306-2.319l0.35-2.305l-0.292-2.319
				l0.438-1.998l-0.102-2.057l0.51-1.969l0.613-2.188l0.175-2.334l1.298-1.94l0.831-2.129l0.365-2.45l1.604-1.575l2.305-0.7
				l1.196-1.925l1.473-1.692l2.086-0.802l2.042-0.831l0.773,0.758l1.342-0.671l0.306-0.627l2.305,1.021l2.334,0.292l1.721,0.175
				l0.511-0.569l-0.263-0.073l-0.54,0.19l0.102-0.686l-0.933-0.627l-0.336-0.438l-1.313-0.569l-0.846,0.423l-0.948,0.467
				l0.073-1.079l1.473-0.102l-1.036-0.933l0.773-0.19l-0.058,0.51l0.292,0.248l0.89,0.175l0.598,0.452l0.656,0.598l0.306-0.788
				l0.058-0.044l-0.219-0.248l-0.029-0.831l1.459-0.015l0.642,1.342l-0.248,0.656l0.642-0.029l0.029,0.394l-0.496,3.253l2.465,1.429
				l2.071,1.473l1.415,2.115l1.692,2.173l-0.204-1.065l0.831-0.263l0.467-0.7l-0.379-0.583l-0.948-0.073l-0.073,0.088l-0.496-0.233
				l0.35-0.481l-0.35-0.394l-0.802-0.277l0.292-0.773l-0.773,0.131l0.51-0.438l0.89,0.277l1.138-0.846l-0.204,0.933l0.19,0.977
				l0.715,1.167l0.7,1.298l0.263,0.394l0.423,0.015l0.321,0.438l1.429-0.131l0.029-0.088l0.088,0.073l0.131-0.015l0.044-0.525
				l0.525-0.219l0.467-0.788l0.7,0.146l-0.19,0.89l-0.073,1.838l-0.583-1.065l-0.248,0.408l-0.773-0.671l-0.117,0.015l-0.452,1.021
				h-0.365l-0.365-0.525l-0.248-0.365l-0.394,0.044l-0.35-0.496l-0.496-0.029l-0.613,0.233l-0.131,0.335l0.729,0.598l-0.685,0.642
				l0.933,1.459l1.196,2.071l0.861,2.246l0.554,2.319l0.685,2.275l0.627,2.29l0.919,2.232l0.263,2.363l0.452,2.334l-0.569,2.465
				l0.408,2.334l0.729,2.319l-0.831,2.421l1.036,2.159l-0.131,2.188l-0.088,2.246l4.274,0.875l-5.251,3.559L151.445,92.794z
				 M157.265,129.536l-0.642-1.065l-0.788,0.715l0.511-0.277l-0.379,0.54l0.408,0.088l0.117,0.919l0.365,0.496l-0.554,0.335
				l-0.977,0.248l-0.656-0.977l0.496-1.065l-0.977-0.365l-0.7,1.152l-0.963,0.452l0.642-2.086l2.1-0.802l-0.117-0.831l0.627-0.233
				l-0.015-1.298l0.627,0.963l0.175,0.642l1.05,0.146l-0.423,1.006l0.627,0.438L157.265,129.536z M158.169,55.937l-0.744,0.146
				l-0.015-0.598l-0.948-0.175l0.379-0.598l0.467-0.671l0.875,0.496l-0.569,0.875L158.169,55.937z M166.76,71.514l-0.365,0.481
				l-0.613,0.088l-0.438-0.408l-0.058-0.204l-0.7-0.292l0.292-0.729l0.423-0.627l0.423,0.613l0.394,0.656l0.788-0.321L166.76,71.514
				z"/>
		</g>
		<g>
			<path style="fill:#E2E1CC;" d="M226.663,96.412l-0.715-2.494l-1.225-2.48l-1.021,0.19l-0.073,2.377l-0.277,2.29l-0.89,2.086
				l-1.911,1.692l-0.744,2.319l-2.086,1.284l-1.167,2.29l-2.363,0.685l-2.027,1.313l-2.188,0.992l-2.334,0.554l-2.363,0.306
				l-1.911-0.131l-0.496-0.029l-2.363,0.058l-2.567,0.029h-0.175l-2.742-0.19l-1.24-0.583l-0.875-2.363l-0.554-5.791l-3.544,1.079
				l3.325-2.436l-0.321-4.697l-0.058-1.298l-0.058-1.036l-0.117-2.363l-0.394-2.348l-0.015-2.348l0.875-2.348l0.219-2.363
				l-0.233-2.348l0.044-2.363l-0.861-2.363l1.123-2.13l0.16-2.45l2.859-1.152l-0.569-1.779l5.207,3.384l2.115,1.123l2.363,0.583
				l1.925,1.648l2.494-0.161l2.246,0.19l2.48-0.029l2.144-1.254l1.444-0.613l0.773-0.321l1.313-1.984l0.831-2.363l-0.394-0.365
				l-0.19-1.823l-0.569-1.706l-0.569-0.408l0.613,0.788l-2.115,1.925l-1.459,0.467l-0.861,0.277l-2.086-0.175l-2.377,0.175
				l-1.867-1.415l-1.954-1.211l-1.75-1.677l-2.494,0.044l-2.159-0.481l-2.217,0.35l-2.1,0.802l-2.071,1.006l-2.057,1.604
				l0.306-2.275l-0.408-2.188l0.438-2.173l0.35-2.188l-0.773-2.188l0.088-2.188l0.452-2.188l0.583-2.173l-0.7-2.217l0.438-3.136
				l0.831-2.567l2.436-1.313l2.655,0.627l2.801-0.904l2.45,0.117l0.948,0.379l1.429,0.583l2.45-0.015l2.29,0.758l2.494,0.219
				l2.013,1.415l1.094,1.779c0.554,0.569,1.677,1.313,1.925,2.086c0.175,0.54-0.088,1.298-0.029,1.882
				c0.117,0.919,0.569,1.794,0.788,2.698c0.394,1.634,0.146,3.413-0.686,4.872c1.065-0.671,2.13-1.342,3.194-2.013
				c1.109-0.7,2.348-1.459,3.092-2.552c0.729-1.065,0.511-1.984,0.511-3.223l0.029-2.29l0.7-0.671l-0.875-2.173l-0.131-2.261
				l-0.919-2.086l-0.627-2.115l-0.992-1.415l-2.261-0.496l-2.261,0.058l-2.275-0.015l-2.261,0.073l-5.426-0.627l1.75,3.588
				l-3.121-3.384l-2.261,0.452l-2.173-0.569l-0.088-0.029l-2.275,0.394l-2.261-0.131l-2.261,0.248l-2.261-0.117l-2.275,0.496
				l-2.261-0.408l-2.275-0.146l-2.261,0.277l-2.275-0.204l-2.275,0.117l-2.29-0.102l-0.277,0.54l1.706,1.619l1.954,1.357
				l0.598,2.465l4.274,0.292l-3.194,0.992l0.817,4.39l-0.219,2.144l-0.306,2.144l0.306,2.13l-0.365,2.173l0.35,2.159l-0.16,2.159
				l-0.058,2.173l0.554,2.173l-0.54,2.173l0.073,2.334l0.744,2.319l-0.073,2.334l-0.831,1.765l-0.263,0.54l0.686,2.348l0.525,2.319
				l-0.35,2.334l0.015,2.319l-0.934,2.305l0.51,2.334l0.598,2.334l-0.802,2.334l0.263,2.319l0.583,2.334l-0.773,2.319l0.452,2.348
				l-0.831,2.334l0.146,2.144l0.117,2.232l-1.604,1.663l-0.802,1.984l-1.765,1.196l-2.202,1.094l0.831,1.065l2.363-0.933
				l2.305-0.146l2.275,1.181l2.29-1.167l2.305,0.263l2.29,0.758l2.319-0.321l2.29-0.54l2.392,0.54l2.13,1.109l1.109-0.088
				l1.473-0.102l2.173,1.006l2.013,1.298l2.115,1.094l1.969,1.4l3.048-1.561l1.882-1.123l2.144-0.992l1.634-1.634l-0.861-4.274
				l3.661,0.642l2.115-1.298l0.773-2.232l0.598-2.217l0.904-2.115l0.438-2.275l-0.058-2.115L226.663,96.412z M193.714,64.673
				l0.335-0.175h0.35v1.036l-0.35,1.021l-0.51-1.021L193.714,64.673z M213.58,114.673l-0.175,0.35l-0.861,0.51l-0.846,0.685
				l-1.721,0.175l0.35-0.51l0.671-2.071l-0.335-1.021l2.917-0.16v1.021l0.175,0.86L213.58,114.673z"/>
		</g>
		<path style="fill:#A4A093;" d="M406.883,90.84l-0.598-1.371l-4.755-12.792l0.35,12.792v2.305c0,0.583-0.233,2.071-1.765,5.513
			c-2.727,6.68-9.028,9.918-19.268,9.918c-3.398,0-4.872-0.248-5.455-0.408c-0.365-0.423-0.992-1.648-0.992-4.988V73.6
			c0-2.494,0.846-3.18,1.488-3.428l1.619,0.233c5.732,3.53,10.312,5.236,14.017,5.236l0.263-0.015
			c8.956-1.079,10.837-5.674,10.837-9.349v-0.379c0-1.342-0.35-2.815-1.05-4.522l-0.583-1.429c-0.54,0-4.259,1.152-4.259,1.152
			v1.181c-0.496,1.225-1.138,1.327-1.809,1.327c-1.05,0-2.13-0.204-3.238-0.627c-5.192-3.253-8.839-4.769-11.45-4.769
			c-1.998,0-3.938,0.51-5.791,1.502l0.146-14.921l0.219-2.932c0.146-0.627,0.583-1.692,3.69-1.692h2.786
			c5.805,0,10.122,0.875,12.806,2.596c0.408,0.277,1.765,1.677,1.765,8.124v7.92l3.428-1.823l4.434-2.946l3.238-4.74
			c0.496-1.648,0.744-3.384,0.744-5.222v-0.627l-0.015-0.306c-1.298-9.554-2.523-12.471-5.251-12.471h-58.328l10.691,3.442
			l0.671,0.671c2.596,2.582,3.384,3.69,3.617,4.055v1.94h0.977c0.219,1.181,0.511,3.909,0.511,10.108v13.025l-0.19,39.571
			c0,5.776-2.713,7.541-4.755,8.358l-3.238,1.298l-3.617,3.486l7.191,0.073h19.311c3.515,0,8.285,1.823,14.177,5.426l0.904,0.554
			l4.551-1.488l0.277-0.19c9.174-6.432,13.827-13.112,13.827-19.866v-2.115C409.013,96.732,408.312,94.063,406.883,90.84z"/>
		<g>
			<path style="fill:#E2E1CC;" d="M407,96.412l-0.715-2.494l-1.225-2.48l-1.021,0.19l-0.073,2.377l-0.277,2.29l-0.89,2.086
				l-1.911,1.692l-0.744,2.319l-2.086,1.284l-1.167,2.29l-2.363,0.685l-2.027,1.313l-2.188,0.992l-2.334,0.554l-2.363,0.306
				l-1.911-0.131l-0.496-0.029l-2.363,0.058l-2.567,0.029h-0.175l-2.742-0.19l-1.24-0.583l-0.875-2.363l-0.554-5.791l-3.544,1.079
				l3.326-2.436l-0.16-2.348l-0.16-2.348l-0.058-1.298l-0.058-1.036l-0.117-2.363l-0.394-2.348l-0.015-2.348l0.875-2.348
				l0.219-2.363l-0.233-2.348l0.044-2.363l-0.861-2.363l1.123-2.13l0.16-2.45l2.859-1.152l-0.569-1.779l5.207,3.384l2.115,1.123
				l2.363,0.583l1.925,1.648l2.494-0.161l2.246,0.19l2.48-0.029l2.144-1.254l1.444-0.613l0.773-0.321l1.313-1.984l0.831-2.363
				l-0.394-0.365l-0.19-1.823l-0.569-1.706l-0.569-0.408l0.613,0.788l-2.115,1.925l-1.459,0.467l-0.861,0.277l-2.086-0.175
				l-2.377,0.175l-1.867-1.415l-1.954-1.211l-1.75-1.677l-2.494,0.044l-2.159-0.481l-2.217,0.35l-2.1,0.802l-2.071,1.006
				l-2.057,1.604l0.306-2.275l-0.408-2.188l0.438-2.173l0.35-2.188l-0.773-2.188l0.087-2.188l0.452-2.188l0.583-2.173l-0.7-2.217
				l0.438-3.136l0.831-2.567l2.436-1.313l2.655,0.627l2.8-0.904l2.45,0.117l0.948,0.379l1.429,0.583l2.45-0.015l2.29,0.758
				l2.494,0.219l2.013,1.415l1.094,1.779c0.554,0.569,1.677,1.313,1.925,2.086c0.175,0.54-0.087,1.298-0.029,1.882
				c0.117,0.919,0.569,1.794,0.788,2.698c0.394,1.634,0.146,3.413-0.685,4.872c1.065-0.671,2.13-1.342,3.194-2.013
				c1.109-0.7,2.348-1.459,3.092-2.552c0.729-1.065,0.51-1.984,0.51-3.223l0.029-2.29l0.7-0.671l-0.875-2.173l-0.131-2.261
				l-0.919-2.086l-0.627-2.115l-0.992-1.415l-2.261-0.496l-2.261,0.058l-2.275-0.015l-2.261,0.073l-5.426-0.627l1.75,3.588
				l-3.121-3.384l-2.261,0.452l-2.173-0.569l-0.087-0.029l-2.275,0.394l-2.261-0.131l-2.261,0.248l-2.261-0.117l-2.275,0.496
				l-2.261-0.408l-2.275-0.146l-2.261,0.277l-2.275-0.204l-2.275,0.117l-2.29-0.102l-0.277,0.54l1.707,1.619l1.954,1.357
				l0.598,2.465l4.274,0.292l-3.194,0.992l0.817,4.39l-0.219,2.144l-0.306,2.144l0.306,2.13l-0.365,2.173l0.35,2.159l-0.16,2.159
				l-0.058,2.173l0.554,2.173l-0.54,2.173l0.073,2.334l0.744,2.319l-0.073,2.334l-0.831,1.765l-0.263,0.54l0.685,2.348l0.525,2.319
				l-0.35,2.334l0.015,2.319l-0.933,2.305l0.51,2.334l0.598,2.334l-0.802,2.334l0.263,2.319l0.583,2.334l-0.773,2.319l0.452,2.348
				l-0.831,2.334l0.146,2.144l0.117,2.232l-1.604,1.663l-0.802,1.984l-1.765,1.196l-2.202,1.094l0.831,1.065l2.363-0.933
				l2.304-0.146l2.275,1.181l2.29-1.167l2.305,0.263l2.29,0.758l2.319-0.321l2.29-0.54l2.392,0.54l2.13,1.109l1.108-0.088
				l1.473-0.102l2.173,1.006l2.013,1.298l2.115,1.094l1.969,1.4l3.048-1.561l1.882-1.123l2.144-0.992l1.634-1.634l-0.861-4.274
				l3.661,0.642l2.115-1.298l0.773-2.232l0.598-2.217l0.904-2.115l0.438-2.275l-0.058-2.115L407,96.412z M374.051,64.673
				l0.335-0.175h0.35v1.036l-0.35,1.021l-0.51-1.021L374.051,64.673z M393.916,114.673l-0.175,0.35l-0.861,0.51l-0.846,0.685
				l-1.721,0.175l0.35-0.51l0.671-2.071l-0.335-1.021l2.917-0.16v1.021l0.175,0.86L393.916,114.673z"/>
		</g>
		<g>
			<path style="fill:#E2E1CC;" d="M232.556,32.92l-0.058,0.117l0.146-0.058L232.556,32.92z M244.72,114.031l0.175,0.263l0.277-0.248
				L244.72,114.031z M287.296,52.042l0.233-2.29l-0.233-2.246l-0.408-2.232l-1.05-2.115l-0.773-2.115l0.087-2.334l-1.079-2.042
				l-0.394-2.217l-0.452-2.246l-1.386-1.692l-0.117-0.131l-0.233-2.348l-1.546-1.75l-1.109-1.969l-0.525-2.275l-1.634-1.648
				l-1.152-1.925l-1.123-1.575l-0.817-0.044l1.109,2.188l0.467,2.29l0.744,2.173l0.204,2.334l1.094,2.1l0.569,2.232l0.335,2.275
				l0.627,2.246l0.044,0.16l0.569,2.071l-0.131,2.348l0.423,2.275l3.457,2.363l-3.005-1.021l0.015,5.543l0.306,2.29l-0.656,2.29
				l0.715,2.377l-0.35,2.29l-0.613,2.275l-0.511,2.261l-0.452,2.261l-0.715,2.202l-0.292,2.305l-0.671,2.217l-0.875,2.144
				l-0.51,2.261L275,77.888l-0.423,2.348l-0.934,2.144l-1.852,1.706l-0.379,2.377l-1.663,1.765l-0.175,2.465l-1.721,1.59
				l-0.934,2.071l-1.138,1.969l-1.386,1.794l-1.502,1.677l-1.809,1.415l-1.94,1.517l-0.583-2.407l-0.554-2.348l-0.248-2.407
				l0.204-2.494l-0.715-5.951l-1.094,0.758l-3.15,2.173l3.457-4.069l-0.598-2.232l-0.613-2.232l-0.525-2.246l-0.54-2.275
				l-0.831-2.188l-0.423-2.261l0.423-2.436l-0.161-2.305l-0.044-0.16l-0.219-0.7l-0.394-1.356l-0.35-2.29l-0.758-1.298l-0.336-0.583
				l-0.131-0.233l0.365-1.838l0.117-0.598l-0.292-0.496l-0.875-1.415l-0.117-0.204l0.015-0.088l0.204-2.29l-0.452-2.261
				l-0.146-1.313l-0.029-0.321l-0.088-0.656l0.219-6.053l-5.455,2.159l4.58-2.976l-1.094-2.202l-0.058-0.904l1.036-2.363
				l1.079-2.319l2.115-1.371l1.911-1.444l0.204-0.204l-2.421,0.423h-2.421l-2.407,0.058l-2.436-0.525l-2.246,0.715l-0.16,0.044
				l-2.436-0.758l-2.407,0.029l-2.436,0.088l-2.188,0.875l1.59,1.065l0.919,1.925l1.911,1.123l0.919,1.896l0.496,1.969l0.058,0.277
				l0.467,2.217l0.204,2.261l0.758,2.159l0.16,2.275l0.875,2.144l0.029,2.29l0.117,2.304l1.225,2.057l0.219,1.225l0.131,0.831
				l0.029,0.19l0.015,2.305l-0.073,1.531l-0.044,0.788l0.452,0.861l0.102,0.146l0.35,0.656l0.248,0.438l0.015,0.088l0.175,1.736
				l0.044,0.438l0.904,2.144l0.175,0.773l0.146,0.146h1.036l0.35,1.036v1.181l-0.19,1.05l0.686,1.692l0.408,0.481l0.627,0.729
				l0.161-1.021l-0.146-0.904l-0.015-0.146l-0.51-1.181l0.335-1.546l1.021,0.846l0.146,0.233l0.715,1.152l0.685-0.861l0.861-0.335
				h1.021l-0.336,0.51l-0.685,0.35l-0.16,0.496l-0.175,0.335v0.365l0.671,0.685v0.861l-0.335,0.335l-0.525-0.335l-0.248,0.394
				l-0.423,0.627l-0.846,0.86h-0.525l-0.686,0.161v0.175l-0.175,0.16l-0.335,1.386l-0.685,0.846l-0.175,0.175l-0.263,0.496
				l0.438,1.24l0.146,2.275l0.963,2.129l0.073,2.29l0.044,2.275l1.327,2.086l-0.102,2.305l0.35,1.05l0.394,1.123l-0.627,2.377
				l0.525,2.188l-0.919,2.246l-0.365,2.728l-1.998,1.721l-1.619,1.488l1.882,0.044l2.377-0.277l2.363,0.7l2.363-0.948l2.392,0.977
				l2.363-0.058l2.363-0.525l2.363-0.19l2.45,0.642l-0.044-0.758l-0.627-0.934l0.948-1.809l1.327-1.779l1.24-1.867l-0.671-2.64
				l3.676-0.671l1.284-1.809l1.196-1.882l1.75-1.517l0.569-2.275l1.59-1.634l0.7-2.173l1.531-1.736l0.511-2.202l0.875-2.202
				l0.51-2.319l-2.013-4.565l2.975-0.029l1.021-2.173l0.7-2.246l0.248-2.363l0.686-2.246l0.292-2.348l0.467-2.305l0.496-2.319
				l0.117-2.363l-0.452-2.377l-0.087-2.319l0.569-2.246L287.296,52.042z M245.96,54.566l-1.036,0.175l-0.51-0.861l0.846-0.335
				l0.7,0.335l0.16,0.35L245.96,54.566z M246.645,83.853v0.175h0.161v-0.175H246.645z M245.96,77.698l-0.496,0.058l0.773,1.24
				l0.088,0.525l0.321-0.642L245.96,77.698z"/>
		</g>
		<g>
			<path style="fill:#E2E1CC;" d="M296.572,114.527l0.131,0.335l0.248-0.248L296.572,114.527z M296.922,33.343l0.117,0.277
				l0.175-0.029L296.922,33.343z M345.273,43.816l-0.35-2.261l0.263-2.334l-0.846-2.159l-0.583-2.173l-1.211-2.188l-2.1,0.904
				l-2.071-0.992l-2.071,0.729l-2.057-0.292l-2.071-0.408l-2.071-0.102l-1.867,0.394l-0.19,0.044l-2.071,0.029l-2.071,0.16
				l-2.071-0.204l-2.071,0.598l-2.057-0.729l-2.071-0.029l-2.071,0.715l-2.057-0.904l-2.086,0.671l-2.071-0.758l-2.057,0.379
				l-2.086,0.19l-2.057-0.35l-2.086,0.467l-1.852,0.379l1.531,1.225l1.386,1.852l0.831,2.261l1.765,1.4l-0.685,2.275l1.065,2.071
				l-0.321,2.159l0.379,2.129l-0.525,2.159l0.058,2.188l-0.379,2.188l-0.044,2.173c0,0,0.087,2.173,0.087,2.188l0.583,2.188
				l0.277,2.188l-0.613,2.086l0.423,2.1l-0.292,2.071l-0.335,2.1l3.311,0.758l-2.859,0.598l0.073,4.915l0.087,2.086l-0.613,2.1
				l0.496,2.071l-0.058,2.1l0.175,2.086l-0.583,2.1l0.306,2.086l-0.233,2.086l0.029,2.1l-0.394,2.086l0.438,2.1v2.115l-0.365,2.013
				l-0.073,2.071l-0.554,2.202l-1.75,1.473l-1.575,1.561l-1.313,1.313l1.721,0.394l2.129-0.248l2.159,0.569l2.159-0.758l2.407-2.64
				l1.896,3.063l2.159,0.16l2.144,0.015l2.173,0.204l2.173-0.248l0.146-0.569l-1.531-1.429l-1.517-1.313l-1.415-1.531l-1.269-1.75
				l-0.583-2.042l0.583-2.188l-0.715-2.027l0.627-2.042l-0.934-2.057l0.598-2.042l-0.321-2.057l-0.233-2.042l-0.044-4.23
				l-2.407-1.823l2.771-0.088l0.015-2.057l-0.087-2.042l-0.088-1.882l-0.015-0.19l0.204-2.042l0.627-2.057l-0.263-2.057l-0.686-2.1
				l1.809-2.027l1.852-1.152l2.611,0.248l1.809,0.963l1.852,0.904l1.984,0.598l1.867,0.802l1.663,1.415l1.998,0.7l2.144-0.029
				l2.027-0.321l1.736-1.284l2.173-0.088l1.065-1.852l1.502-1.327l0.277-1.998l0.073-0.627l-0.321-1.984l-0.934-1.634l-0.365-0.452
				l0.058,2.304l-1.721,1.4l-2.129,0.233l-2.319,0.248l-2.071-1.036l-1.75-0.992l-1.575-1.298l-1.94-0.583l-1.809-0.802
				l-1.882-0.583l-4.551-0.204l1.342,1.852l-2.844-1.386l-1.794,1.109l-0.963,1.531l-0.758-1.94l0.263-2.042l0.146-2.042l0.7-2.042
				l-0.802-2.057l0.117-2.057l-0.029-2.071l0.015-2.042l0.263-2.057l-0.248-2.057l0.321-2.057l0.102-1.984l1.692-1.036l1.823-0.219
				l1.794-0.861l2.786,0.058l2.159,0.438l2.115,0.656l2.202-0.438l2.086,0.554l1.721,0.073l0.511,0.015l2.071,0.7l1.517,1.721
				l1.954,0.948l0.846,1.969l-0.219,2.159l0.554,1.998l-0.146,2.027c0,0,1.764-2.129,1.765-2.13
				c-0.218,0.263-0.286,0.915-0.386,1.235c-0.249,0.796-0.527,1.576-0.777,2.374c-0.549,1.751-1.163,3.482-1.839,5.187
				c0.969-0.553,1.938-1.106,2.907-1.659c0.428-0.245,0.899-0.544,1.002-1.026c0.032-0.148,0.028-0.31,0.112-0.435
				c0.061-0.091,0.161-0.149,0.256-0.203c1.632-0.933,2.45-1.978,3.334-3.576l0.598-2.086l-0.073-2.202L345.273,43.816z
				 M321.718,64.148l1.021-0.496l0.51,0.335v0.846l0.7,0.861l-0.19,1.021l-0.51-0.335l-0.51-0.51h-1.021l-0.525-0.686
				L321.718,64.148z"/>
		</g>
		<g>
			<path style="fill:#E2E1CC;" d="M449.065,61.085l0.554-0.029l0.044-0.35L449.065,61.085z M462.702,92.751l0.306-1.911
				l-0.263-5.572l-2.625,0.131l2.071-1.663l-1.459-1.969l-1.152-2.042l-0.715-2.334l-1.867-1.561l-0.102-0.131h-0.015l-0.671-0.802
				l-0.715-0.875l-1.779-1.546l-1.327-2.057l-2.057-1.24l-1.721-1.634l-1.984-1.313l-2.071-1.152l-2.013-1.065l-1.692-1.561
				l-1.925-1.167l-1.911-1.181l-2.261-0.729l-1.59-1.677l-2.013-1.109l-1.327-1.896l-1.867-1.415l-0.321-2.377l-0.963-1.984
				l0.19-2.1l1.036-1.838l1.429-1.488l1.677-1.502l2.334-0.336l1.984-0.919l1.794-1.706l2.377,0.452l2.144-1.225l2.976,0.875
				l1.882,1.765l2.086,1.342l1.152,2.173l1.094,2.188l0.54,2.407l-0.54,2.436l0.394,2.45l-0.963,2.275l-0.365,2.392l-0.233,2.144
				l1.313-0.861l1.269-2.1l2.202-1.211l1.371-1.969l1.604-1.896l0.073-2.552l1.356-2.144l-0.685-2.465l0.277-0.948l0.394-1.356
				l-0.992-2.086l-1.123-1.152l-0.438-0.467l-1.721-1.444l-1.327-2.173l-2.392-0.554l-2.217-0.671l-2.057-1.4l-2.48,0.715
				l-2.261-0.729l-0.627-0.015l-2.727,0.948l-2.684-0.277l-2.596-0.933l-2.538,0.729l-2.552,0.51l-2.305,0.51l-1.677,1.852
				l-2.275,0.686l-1.181,2.129l-1.181,0.467l-1.24,0.496l-1.24,2.042l-0.7,2.305l4.799-0.175l-3.997,2.13l-1.167,5.076l1.648,1.794
				l1.05,1.925l1.152,1.911l1.167,1.998l2.275,0.875l1.517,1.619l1.459,1.779l2.246,0.744l1.459,1.838l2.013,1.036l0.219,0.233
				l1.386,1.502l1.998,1.284l0.525-2.057l0.365,2.567l1.984,1.342l6.097,1.006l0.379,4.157l2.217,1.24l1.386,1.998l1.094,2.188
				l0.861,2.261l0.583,2.348l3.253,2.8l-3.311,0.277l-0.292,4.113l-0.277,2.363l-1.079,2.129l-0.642,2.115l-1.211,1.575l-0.117,0.16
				l-1.677,1.415l-1.473,1.546l-1.59,1.634l-2.246,0.365l1.692,2.713l-3.121-1.911l-4.974,0.102l-2.407-0.044l-2.115-1.152
				l-2.129-0.992l-1.794-1.517l-2.159-0.992l-1.59-1.75l-1.006-2.13l-0.758-2.246l-0.744-2.348l0.292-0.875l0.073-2.407l1.284-2.042
				l0.598-2.29l1.327-1.882l0.131-0.758l-1.327,2.392l-2.436,0.817l-1.006,2.246l-1.707,1.634l-1.677,1.706l-1.181,2.1l-0.277,2.421
				l-0.248,2.319l0.175,0.817l0.073,2.217l1.327,1.838l0.321,2.319l1.211,1.882l1.984,1.254l0.744,2.319l1.954,1.021l2.173,0.875
				l2.217-0.365l2.232-0.146l2.202,0.408l2.232-0.452l2.246-0.379l2.217,0.715l2.232-0.263l2.465,0.16l2.48,0.408l-3.632-1.779
				l5.513,1.867l5.003-1.852l2.057-1.181l1.429-1.852l2.027-1.254l1.459-1.809l1.736-1.648l0.729-1.152l0.54-0.831l0.992-2.144
				l0.277-2.392l0.321-2.275l1.006-2.173L462.702,92.751z M445.097,70.726l-0.525,0.175h-0.685l-0.336-0.175l0.336-0.335l0.16-0.35
				h0.685l0.365,0.525V70.726z M453.82,86.158l-0.35,0.335h-0.335l-0.175,0.161v-1.356l0.175-0.686l0.335-0.525l0.175-0.16h0.525
				l0.16,0.16v1.021L453.82,86.158z M456.547,94.02l-0.161,0.35l-0.861,0.51l-0.861,0.686l-1.706,0.16l0.35-0.496l0.671-2.071
				l-0.335-1.021l2.903-0.175v1.036l0.19,0.846L456.547,94.02z"/>
		</g>
		<g>
			<path style="fill:#E2E1CC;" d="M530.7,57.818l0.408-1.4l0.248-0.846l-0.583-2.261l0.058-2.246l-0.204-2.363l0.569-2.392
				l-0.467-2.348l0.088-2.377l-0.306-2.348l0.044-2.436l-0.525-2.275l-2.684-0.671l-2.48-0.044l-2.275-0.875l-2.29,0.89
				l-0.642-0.102l-1.634-0.277h-2.29l-2.29,0.073l-1.809,0.131l-0.481,0.029l-2.275-0.058l-2.29-0.481l-2.29,0.788l-2.275-0.583
				l-0.686-0.175l-1.619-0.452h-2.275l-2.275,0.044l-2.305,0.846l-2.275-0.058l-2.29-0.35h-0.904l-1.356-0.015h-1.561l-2.319,4.419
				l-0.729-4.667l-2.305,0.496l-2.29-0.102l-1.561-0.292l-0.744-0.131l-3.282,0.015l-0.963,2.334l-1.284,1.954l-0.729,2.188
				l0.438,2.319l-0.627,2.232l0.146,2.275l-0.496,2.261l0.977,1.823l0.248,0.452l-0.846,2.348l0.51,2.348l0.058,2.348l0.117,2.552
				l-0.51,2.64l0.919,2.188l0.613,2.188l0.656,2.202l1.167,1.984l0.496,2.246l0.963,2.071l0.7,1.984l0.088,0.204l1.415,1.838
				l1.502,1.765l1.663,0.744l-0.51-1.692l-0.686-2.188v-2.334l-0.015-2.304l-0.788-2.188l-0.204-0.919l-0.263-1.254l-0.015-0.073
				l-0.175-2.261l0.117-0.671l0.263-1.4l0.044-0.248l0.058-4.084l0.029-2.086v-0.846l-0.656-1.196l-1.386,1.4l-1.021-0.7
				l1.021-0.846l0.861-0.846l-1.984-3.646l2.64,2.99l0.54,0.613l-0.015-0.642v-0.35l-0.16-0.175l-0.175-0.686l-0.35-0.175h-0.16
				l0.35-0.846l0.496-0.7l0.175-2.377l1.371-2.071l0.335-0.16l0.365-0.35l-0.175-0.511l0.175-0.51l0.686,0.175l0.16,0.671
				l0.175,0.044l0.233,0.058l0.598-1.692l-0.146-0.963l-0.16-0.525l0.16-0.335l0.511-0.19l0.175,0.525l0.263,0.088l0.642-0.948
				l0.583-0.467l0.963-0.802l0.263-0.219l2.1-0.919l2.188-0.802l1.167,0.744l0.336,0.204l0.598,0.394l0.277,0.233l1.079,0.933
				l0.379,0.321l0.292,0.204v0.015l0.598,0.408l1.313,0.933l0.029,2.538v0.058l0.627,1.313l0.496,1.006v2.363l-0.744,2.377
				l0.146,0.919l0.19,1.444l1.284-1.225l1.575-1.531l-1.036,1.59l-1.677,2.64l0.073,2.377l-0.919,5.63l0.467,1.823l0.131,0.554
				l-0.569,2.305l0.394,2.29l0.365,0.117l2.304,0.686l2.407,0.715l-1.619,1.094l-3.005,2.013l-0.277,2.319l0.685,2.305l-0.802,2.305
				l0.058,2.319l-0.496,2.305l0.89,2.334l-0.831,2.319l0.846,2.334l-0.948,2.305l0.306,2.348l0.656,2.319l0.029,2.319l-1.05,2.334
				l0.656,2.319l0.19,2.334l-0.831,2.319l1.109,2.348l-0.642,2.304l-0.467,2.334l2.946-2.319l-2.363,2.844l-0.569,6.476l0.379,2.348
				l-0.117,2.334l-0.408,2.392l0.715,2.509l-1.036,2.29l0.233,2.596l-1.984,1.867l-1.05,2.1l-1.152,2.071l-0.934,2.348l-1.371,1.488
				l-0.204,1.006l2.494-0.904l2.392,0.058l2.377,0.248l2.407,0.467l1.181-2.261l1.604-3.092l1.371,3.165l0.627,1.459l2.392,0.481
				l2.407-0.744l2.392,0.671l2.407-0.263l2.436,0.613l0.846-0.919l-2.217-0.904l-0.204-0.088l-1.765-1.429l-1.575-1.663
				l-0.656-2.232l-0.685-2.1l-1.561-1.867l-0.438-2.261l-0.058-2.29l0.029-2.144l0.146-4.317l0.583-2.144l0.029-2.348l-0.146-2.348
				l0.379-2.348l-0.379-2.334l0.16-2.348l0.321-2.334l-0.233-2.334l-0.583-2.334l0.525-2.348l-0.131-2.334l0.175-2.363l0.058-2.334
				l-0.569-2.363l0.263-1.429l0.175-0.904l0.073-2.363l0.423-2.334l-0.569-2.363l-0.073-2.348l0.16-2.348l-0.117-2.348l-0.54-2.363
				l0.321-2.348l-0.204-2.334l0.613-2.348l-0.438-2.348l0.19-2.348l0.569-5.411l-2.13-1.05l2.377-0.554l-0.773-2.363l0.379-2.334
				l0.481-2.348l0.175-2.334l-0.452-2.348l0.044-2.334l-0.044-0.875l-0.058-1.473l0.671-2.275l0.904-2.392l0.904,0.015l1.604,0.044
				l3.238,0.583l2.275,0.525l1.079,2.232l2.392-1.284l2.304-1.24l-2.407,2.932l-1.094,1.342l0.934,1.254l1.823,2.421l0.963,2.057
				l0.233,2.305l0.904,2.115l0.014,0.015l0.729,2.246l-0.54,2.348l0.379,2.29l-0.233,2.29l-0.583,2.246l2.48-2.013l-2.275,3.18
				l0.117,5.718l-0.831,2.188l-0.102,2.319l-1.181,2.027l-0.656,2.173l0.321,0.788l0.277-0.233l0.861-0.685l1.444-2.042l0.846-2.363
				l1.006-2.188l1.75-1.75l0.627-2.377l1.196-2.086l1.123-2.173l-0.088-2.523l1.167-2.217l-0.365-2.465v-1.138L530.7,57.818z
				 M484.566,40.082l-0.321,0.263l-0.54,0.423l0.335-1.036l0.058-0.219l0.117-0.452h0.35l0.161,0.335L484.566,40.082z
				 M485.762,36.479l-1.036-0.51v-0.336l0.685-0.525l0.51,0.525L485.762,36.479z M491.917,38.871l-1.196-1.356l-1.036-1.196
				l-0.481-0.656l-0.014-0.029v-0.015l0.16-0.846l1.196-0.525l0.685,0.525l0.467,1.109l0.102,0.292l0.117,0.306V38.871z
				 M493.799,37.85l-0.35,0.686l-0.613,0.146l-0.058,0.029l-0.16-0.511v-0.525l0.058-0.073l0.438-0.613l0.685-0.175l0.175,0.525
				L493.799,37.85z M495.68,38.2h-0.16l-0.525-0.35l0.175-0.51l0.51-0.525l0.35,1.036L495.68,38.2z M497.693,100.291l-0.175,0.335
				h-0.335l-0.16-0.335l-0.19-0.525l0.35-0.335h0.335l0.175,0.525V100.291z M499.458,39.907l-0.51,0.335h-0.19l-0.029-0.015
				l-0.306-0.146l0.525-0.686l0.321-0.175l0.35-0.16L499.458,39.907z M498.554,131.986l0.175-0.7l0.335-0.51l0.175-0.175h0.525
				l0.16,0.175v1.021l-0.525,1.036l-0.336,0.35h-0.335l-0.175,0.161V131.986z M502.142,140.708l-0.161,0.35l-0.861,0.496l-0.861,0.7
				l-1.707,0.16l0.35-0.496l0.671-2.071l-0.336-1.021l2.903-0.175v1.021l0.19,0.861L502.142,140.708z M504.023,120.668l-0.335,0.335
				l-0.161,0.525l-0.175,0.335l-0.525,0.35l-0.335,0.175h-0.686v-0.861l-0.335-1.021l-0.35-0.35v-0.51l0.35-0.16h0.335l0.175,0.16
				h1.211l0.335,0.175l0.496,0.16l0.19,0.35L504.023,120.668z"/>
		</g>
		<g>
			<path style="fill:#A4A093;" d="M87.302,87.223L56.591,30.951H36.546h-8.375H6.196l2.081,3.726l32.471,58.147l-1.669,2.748l0,0
				L2.941,155.056L31.782,155h22.325l22.03-36.201l0,0.001l2.279-3.743l2.137-3.508l0-0.001L86.974,101
				C89.527,96.806,89.653,91.527,87.302,87.223z"/>
			<g>
				<g>
					<path style="fill:#EDAB19;" d="M62.196,115.081l-3.428-6.709l-0.408-0.773l-0.19-0.379l-2.436,3.413l-0.088,0.117v0.015
						l-0.613,0.875v0.467l0.117,1.123l0.452-0.554l0.219-0.685l0.088-0.773l0.029-0.248l0.35-0.452l0.233-0.233l0.102-0.233
						l0.35,0.686v0.117l0.102,0.117v1.021l0.685-0.35h0.117l0.35-0.102l0.554-0.117h0.569l0.233,0.117l-0.569,0.394l-0.233,0.175
						l-0.335,0.117h-0.219l-0.233,0.219l-0.35,0.233v0.117l-0.102,0.102l0.219,0.569l-0.248,0.467l-0.058,0.146l-0.029,0.073h-0.35
						l-0.219-0.35h-0.015v0.015l-0.671,0.569h-0.117v0.102l-0.452,0.233l-0.686,0.233H54.13l-0.044-0.029h-0.015l-0.175-0.088
						l-0.452,0.233l-0.233,0.233l-0.35,0.102l-0.438,0.336l-0.073,0.015l-0.204,0.088h-0.015l-3.646,6.126l-1.123,1.896l-1.998,3.34
						l-7.614,12.033l-0.336,0.598l-0.306,0.583l-2.363,4.317l-0.656,1.225l-1.634,2.99l-0.569,1.036l-0.365,0.685l-0.306,0.554
						h21.135l1.473-2.771c-0.467-0.481-0.919-0.89-1.225-1.065c-1.065-0.583-2.275-1.079-2.917-2.115
						c1.852,0.131,3.719,0.306,5.557,0.525l4.011-7.512l0.525-1.021l5.236-9.233l1.094-1.911l0.904-1.604L62.196,115.081z
						 M58.097,108.576l-0.452,0.452l-0.336,0.233l0.146-0.452l0.233-0.306l0.073-0.029v-0.073l0.044-0.058h0.292V108.576z
						 M46.531,140.095l-0.19,0.583l0.102,0.306l-0.204,0.204l-0.292-0.292l-0.292-0.511l-0.204-0.583l0.102-0.292l0.292-0.102
						l0.394-0.102l0.394,0.204l0.19,0.292L46.531,140.095z M49.9,138.71h-0.394l-0.204-0.394l0.204-0.204h0.292l0.204,0.102
						l0.19,0.306L49.9,138.71z M52.963,140.985l-0.496,0.496l0.102,0.408l-0.394,0.19l-0.204-0.306l0.204-0.292v-0.204l0.102-0.496
						l0.394-0.19h0.19l0.102,0.088V140.985z M53.357,137.733l-0.394-0.204l-0.598-0.088l-0.496,0.088l0.496-0.788l0.89,0.102
						l0.102,0.102l0.204,0.394L53.357,137.733z M53.649,131.111l-0.088,0.088l-0.204,0.102h-0.292v-0.394l0.19-0.394l0.394-0.102
						l0.204,0.408L53.649,131.111z"/>
				</g>
				<g>
					<path style="fill:#65BD9C;" d="M58.126,107.015l-0.248-0.146l-0.452,0.117l-0.117,0.452v0.452l-0.117,0.117l-0.117,0.233
						h-0.554v-0.35l-0.131-0.336v-0.685l0.467-0.569l0.365-0.569l0.044-0.058l-0.292-0.51l-0.583,0.233l-0.102-0.583l-0.233-0.788
						l0.131-0.088l-0.452-0.758l-0.015,0.044v0.335l-0.233,0.583l0.336,0.671v0.7l-0.219,0.219h-0.117l-0.088-0.146l-0.365-0.656
						l0.117-1.021l0.233-0.438l-0.233-0.35l-0.233-0.117v-0.35l-0.117-0.102l0.233-0.117h0.233l-0.656-1.021h-0.263l-0.452-0.117
						l-0.336-0.117l-0.117,0.233v0.102l-0.117-0.102v-0.117l-0.117-0.233l0.452-0.554l0.175-0.35l-4.332-6.928l-2.319-3.705
						l-2.202,3.486L41.047,99.3l-1.138,1.809l-3.5,5.28l-0.146,0.204l-4.303,6.505l-3.486,6.768
						c0.977,1.473,1.954,3.005,3.384,4.084c-1.108-0.846-2.728-1.823-3.924-3.034l-0.423,0.817l-1.006,1.925l-0.175,0.35
						l-0.992,1.896l-0.613,0.992l-6.622,10.502l-0.131,0.204l-0.306,0.481l-3.559,5.98l-0.452,0.773l-3.544,5.98l-0.248,0.408
						h17.838l-0.656-0.423l0.102-0.102v-0.102l-0.685-0.088l-0.102-0.788l-0.394-0.204l-0.496-0.088l-0.496-0.219l-0.583,0.598
						h-0.496l-0.89,0.89l-0.598-0.394l0.598-0.496l0.89-0.89h0.496l-0.306-0.292l-0.102-0.408l-0.204-0.088h-0.102l0.219-0.496
						l0.292-0.394l0.088-1.386l0.802-1.181l0.19-0.102l0.204-0.19l-0.102-0.306l0.102-0.292l0.394,0.102l0.102,0.379l0.394,0.117
						l0.102,0.292l0.19,0.204l-0.19,0.19l-0.408,0.102l-0.292,0.379v0.102l0.102,0.204l0.292,0.204l0.204,0.496l-0.204,0.088
						l-0.19,0.204l-0.408-0.204l-0.088-0.394l-0.292,0.102l-0.204,0.102l-0.292,0.394l-0.102,0.496l0.102,0.292v0.204l0.496,0.788
						l0.788,0.292h0.394l0.496,0.102l0.394-0.102l0.19,0.292l0.394,0.511l0.394,0.379v-0.088l0.102-0.204v-0.686l-0.394-0.802
						l0.496-0.583l0.89-0.686l0.788,0.394l0.102,0.102h0.583l0.219,0.583v0.686l-0.117,0.613l0.408,0.963l0.219,0.277l-0.306,0.554
						h2.538l0.029-0.044l0.175-0.35l6.053-11.727l5.936-12.281l1.794-3.092l1.05-1.823l3.559-6.155l-0.204,0.088h-0.015
						l-1.079,0.365l-0.452,0.219v0.452l-0.233,0.467l-0.102,0.102h-0.467l0.233-0.438l0.117-0.131v-0.117l0.219-0.219l-0.452,0.117
						l-0.233,0.102l-0.335,0.117l-0.686-0.452l0.117-0.452v-0.467l-0.335-0.102l-0.35-0.233l-0.102-0.219v-0.685l0.102-0.117v-0.102
						l0.233-0.35l0.117-0.233l-0.117-0.452l-0.583,0.117v0.233l-0.102,0.219h-0.802l-0.102-0.335l-0.233-0.233l0.233-0.219
						l0.102-0.248v-0.102l0.569-0.335h0.802l0.904-0.467l0.233,1.036l-0.569,1.123l-0.117,0.35v0.335h0.117l0.117,0.117l0.335,0.117
						l0.802,0.685v0.452l0.233-0.117l0.335-0.102v-0.233l0.102-0.233l0.467-0.686l0.102-0.335l0.35-0.569l0.335-0.452v-0.117
						l0.671-0.671l0.35,0.335l-0.219,0.336l0.102,0.233l0.233,0.117h0.35l0.788-0.817h0.117v-0.102l-0.788-1.138h-0.015
						l-0.686-0.335h-0.219l-0.219,0.335l-0.117,0.336H52.19l-0.656,0.233h-0.015L50.6,111.42l-0.306-1.036l-0.029-0.102l0.102-0.102
						h0.117l-0.219-0.35l-0.233-0.233l0.117-0.671h0.117l-0.233-0.248l-0.117-0.204l-0.685-0.919l-0.117-0.117h-0.233l-0.117-0.102
						H48.66l-1.109-0.233h-0.933l-0.219-0.685h1.006l0.452-0.117l0.219-0.248l0.481-0.54l0.671-0.233l1.59-1.721l0.233-0.204v-0.35
						l0.015-0.029l0.335-0.204l0.452,0.117v0.467l0.335,0.204v0.467l0.233,0.233l-0.35,0.219L52,104.492l-0.102,0.029l-0.496,0.073
						h0.117v0.117l0.102,0.102l0.233,0.467v0.233H51.84l-0.219,0.102h-0.35l-0.219-0.336v-0.569h-0.569l-0.569,0.35l-0.452,0.452
						v0.335l-0.233,0.335l0.015,0.044l0.219,0.992l0.569,0.788l0.554,0.117H50.6l0.335,0.35l0.569,0.102h0.015v0.452l0.102,0.686
						v0.117l0.117,0.219v0.35l0.219-0.117l0.117-0.102l0.452-0.919v-1.021l0.919-0.467h0.219l0.131-0.058h0.015l0.073-0.044h0.248
						l0.671-0.233l0.685,0.904l0.117,0.131l0.335,0.102h0.35l-0.117,0.452l-0.117,0.35l-0.233,0.452l-0.219,0.35l-0.088,0.102
						l-0.088,0.131l-0.394,0.554v1.079l0.773-1.036v-0.015l0.088-0.102v-0.015l1.561-2.071l0.233-0.306l0.073-0.102l0.044-0.058
						l0.554-0.744l0.073-0.088L58.126,107.015z M50.484,112.893l0.335-0.35h0.35l0.102,0.131l0.131,0.452l-0.467,0.233l-0.335,0.219
						l-0.233-0.219L50.484,112.893z M46.152,110.851v0.117H46.05l-0.117,0.117h-0.117l-0.219-0.233l0.102-0.117v-0.219l0.117-0.117
						h0.233v0.219L46.152,110.851z M45.7,115.738l-0.102,0.35l-0.904,0.233l-0.35-0.233v-0.35l0.452-0.233h0.569L45.7,115.738z
						 M45.131,113.462l-0.335,0.583l-0.919,0.219l0.117-0.569l0.467-0.335l-0.467-0.467l-0.219-0.788l-0.233-0.904v-0.35
						l0.336-0.233l0.583,0.233l0.117,0.569v0.452l-0.117,0.467L45.131,113.462z M40.813,113.127v-0.117h0.452l0.35-0.117h0.219
						l0.233-0.102l0.569,1.006h-0.569v-0.102l-0.117-0.117l-0.219-0.117l-0.35,0.117h-0.219l-0.233-0.117v-0.102h-0.233
						L40.813,113.127z M40.813,115.738l0.219-0.102h0.233l0.117,0.102l-0.117,0.233h-0.102l-0.131,0.117h-0.219l-0.117-0.117
						L40.813,115.738z M35.752,130.338l0.088-0.102h0.204l0.204,0.408l0.088,0.598l0.583,0.583l0.102,0.292l-0.102,0.292
						l-0.19,0.204l-0.292-0.088l-0.102-0.204l0.102-0.292v-0.292l-0.292-0.204l-0.394-0.598V130.338z M31.697,137.266l0.686-0.306
						l0.394,0.306l0.394,0.992v1.371l-0.7-0.788l-0.583-0.685l-0.292-0.394L31.697,137.266z M34.089,145.959h-0.51l-0.408,0.394
						l-0.394-0.204l-0.496,0.102l-0.583-0.102l-0.306,0.102v0.306l0.117,0.394l-0.117,0.292h-0.379l-0.306-0.394l-0.204-0.496
						l0.292-0.496l0.306-0.685l-0.496-0.292l-0.394,0.292l-0.204-0.408l-0.292-0.685l0.496-0.598l0.496-0.088l0.088,0.992
						l0.715,0.379l0.379,0.89l0.496,0.102l0.496,0.204l0.088-0.102l0.204-0.102l0.788-0.788l0.204-0.583l0.583-0.598v0.948
						L34.089,145.959z M46.618,108.241l0.335,0.335l0.452-0.335h0.452l0.408-0.292l0.058-0.058l0.233,0.233l-0.044,0.131
						l-0.073,0.219h-0.35l-0.569,0.904l-0.117,1.021l-0.452-0.35l-0.335-0.219l-0.219-0.35l-0.35-0.219v0.117h-0.233l-0.219-0.117
						l-0.117-0.117v-0.335l0.452-0.467L46.618,108.241z M52.759,101.298l0.102-0.117l0.117,0.117h0.131l0.452,0.452l0.336,0.117
						l0.452,0.233v0.102l0.117,0.117v0.117l-0.335,0.685l-0.569,0.233l-0.35,0.335l-0.35-0.335l-0.102-0.802V101.298z
						 M53.328,106.869l-0.015,0.015l-0.204,0.102l-0.131-0.233l-0.219-0.233l0.102-0.102v-0.117l0.088-0.029l0.102-0.029h0.015
						l0.146-0.058h0.117l0.233,0.233v0.219l-0.117,0.233H53.328z M54.684,105.061l-0.219,0.219l-0.569,0.233l-0.452-0.35
						l-0.117-0.102v-0.131l-0.467-0.117v-0.554l0.583-0.117l0.117,0.335l0.219,0.117h0.685l0.219,0.335V105.061z M30.603,150.101
						l-0.685,0.102H29.32l-0.102,0.102H29.13v0.496l-0.35,0.423h2.013l0.219-0.423L30.603,150.101z"/>
				</g>
				<g>
					<path style="fill:#B12C5A;" d="M76.402,75.277L69.97,61.348l-8.722-12.689l-2.159-4.492c-1.75,2.436-3.223,5.076-4.697,7.687
						c-0.073-1.721,0.525-3.398,1.167-4.988c0.336-0.773,0.671-1.604,0.54-2.436c-0.204,0.029-0.408,0.044-0.598,0.073
						c0.423-0.919,0.963-2.932,1.677-4.274l-2.669-5.557H34.41l5.674,10.443l2.815,5.207l3.588,7.745l0.306,0.671h0.015l3.457,7.439
						l8.693,15.154l8.649,15.169l2.903,5.484l4.959,9.408l0.015,0.029l0.642-1.094l0.044-0.044v-0.029l0.131-0.19v-0.015
						l6.928-11.654l0.335-9.583L76.402,75.277z M67.432,80.134h0.117l0.117,0.117v0.233l-0.233,0.117h-0.117l-0.102-0.233
						L67.432,80.134z M59.935,75.365v-0.117h0.219l0.233,0.233v0.438l-0.35-0.204L59.935,75.365z M61.744,77.523l0.117-0.35
						l0.233-0.102l0.102,0.102v0.467l-0.219,0.335L61.744,77.523z M64.369,80.601v-0.233l0.102-0.117h0.233l0.102,0.117v0.233
						l-0.219,0.102l-0.117-0.102H64.369z M65.157,81.957l-0.102,0.233l-0.248-0.117v-0.35l0.117-0.219l0.233,0.219V81.957z
						 M63.684,73.425l0.686-0.117l0.335-0.102l0.219,0.102l0.131,0.35l-0.467,0.219L63.8,73.994l-0.452-0.336L63.684,73.425z
						 M63.45,76.619l0.233,0.219v0.117l-0.131,0.117l-0.336-0.117l-0.219-0.335H63.45z M61.408,68.874h0.336l0.35,0.35l0.102,0.452
						l-0.219,0.452v0.467l-0.685-0.467v-0.569l-0.117-0.219L61.408,68.874z M61.292,71.718l0.219-0.452h0.583l0.452,0.685
						l-0.233,0.802v0.102l0.117,0.117l0.117,0.452l-0.117,0.452h-0.233l-0.219-0.452l0.117-0.569l-0.583-0.452l-0.335-0.569
						L61.292,71.718z M60.154,63.302l0.35-0.233l0.336,0.467l0.219,0.569l-0.671-0.131l-0.35-0.336L60.154,63.302z M60.037,66.03
						l0.467-0.117l0.336,0.35l-0.117,0.117l-0.219,0.102l-0.233,0.248l-0.233,0.102l-0.233-0.35L60.037,66.03z M60.154,71.952
						l0.438,0.569h-0.788L60.154,71.952z M58.666,63.069l0.686,0.117l0.335,0.35l-0.102,0.336l-0.233,0.452l-0.102,0.35l-0.233-0.35
						l-0.35-0.35l-0.438-0.102l-0.131-0.452L58.666,63.069z M51.855,61.931l0.102-0.321l0.233-0.131l0.336,0.233l0.117,0.219
						l-0.117,0.233l-0.219,0.233l-0.233-0.117L51.855,61.931z M57.645,67.97h0.685l-0.335,0.335l-0.35,0.117V67.97z M57.543,71.033
						v0.233l-0.117,0.233h-0.233l-0.219-0.233h-0.117l-0.233-0.233v-0.335l0.233-0.102l0.219,0.102l0.35,0.233L57.543,71.033z
						 M56.857,66.482l0.336,0.569l-0.467,0.467l-0.554-0.35l-0.117-0.438l-0.117-0.583L56.857,66.482z M51.738,59.889h0.336
						l0.233,0.336h0.117l0.102,0.131l0.335,0.102l0.248,0.35l-0.131,0.102h-0.554l-0.35-0.335v-0.117l-0.336-0.233V59.889z
						 M45.116,53.078l0.131-0.131l0.35-0.219l-0.233-0.35V51.94l0.233,0.219H45.7l0.452,0.335l0.248,0.35l0.671,0.685l0.117,0.219
						h0.117l0.438,0.117l0.35-0.233h0.467l-0.467,0.569l-0.685,0.117l-0.335,0.117l-0.233-0.117l-0.788-0.919l-0.452,0.233
						l-0.175,0.117L45.116,53.078z M47.362,58.022l0.277-0.19l0.35-0.335l0.569-0.219l-0.117,0.788l-0.452,0.788l-0.277-0.073
						L47.362,58.022z M59.57,79.23l-0.554-0.233l-0.233-0.452l0.219-0.204l0.015-0.015l0.452,0.102l0.219,0.335l-0.102,0.467H59.57z
						"/>
				</g>
				<g>
					<path style="fill:#1E3C90;" d="M56.974,105.163l0.292,0.51l0.044-0.058L56.974,105.163z M56.974,105.163l0.292,0.51
						l0.044-0.058L56.974,105.163z M70.801,101.108l-3.238-5.28l-7.395-15.68l-0.583-0.919H59.57l-0.554-0.233l-0.233-0.452
						l0.219-0.204l-8.139-12.689l-0.015-0.029l-0.058-0.088l-3.078-6.753l-0.35-0.758l-1.94-4.274l-0.306-0.671l-1.517-3.325
						l-2.567-4.376l-6.243-10.706H12.984l5.076,9.626l2.159,4.113v-0.248h0.35l0.569,0.248h0.569l0.335-0.131l0.117,0.233v0.452
						l-0.452,0.233l0.117,0.467l0.219,0.321l0.802,0.117l0.686-0.117l0.569-0.102h0.685l-0.569,0.452h-1.488l-0.686-0.233h-0.685
						l-0.233-0.029l7.745,13.74l0.015,0.044l6.33,12.266c0.7,0.175,1.415,0.336,2.115,0.511c-0.394,0.16-0.788,0.335-1.167,0.496
						c0.131,0.802,1.065,1.138,1.838,1.327c1.225,0.292,2.45,0.569,3.676,0.86c-1.065,0.554-2.319,0.525-3.515,0.481
						c-0.335-0.029-0.671-0.044-1.006-0.058l7.672,12.996l0.16,0.277l2.83,4.697l3.238,5.397v-0.102l0.015-0.029l0.335-0.204
						l0.452,0.117v0.467l0.335,0.204v0.467l0.233,0.233l-0.35,0.219L52,104.492l-0.102,0.029l0.875,1.488l0.175,0.263l0.102-0.029
						h0.015l0.146-0.058h0.117l0.233,0.233v0.219l-0.117,0.233h-0.117l-0.015,0.015l0.496,0.831l0.073-0.044h0.248l0.671-0.233
						l0.685,0.904l0.117,0.131l0.335,0.102h0.35l-0.117,0.452l-0.117,0.35l-0.233,0.452l-0.219,0.35l-0.088,0.102l-0.088,0.131
						l0.219,0.335v0.015l0.161,0.233v0.015l0.102,0.204l0.029-0.248l0.35-0.452l0.233-0.233l0.102-0.233l0.35,0.686v0.117
						l0.102,0.117v1.021l0.685-0.35h0.117l0.35-0.102l0.554-0.117h0.569l0.233,0.117l-0.569,0.394l-0.233,0.175l-0.335,0.117h-0.219
						l-0.233,0.219l-0.35,0.233v0.117l-0.102,0.102l0.219,0.569l-0.248,0.467l-0.058,0.146l1.794,3.296l0.102,0.175l2.275,4.215
						l3.384,6.272l1.123-1.75l9.335-14.892l0.656-1.065l0.044-0.044v-0.029l0.131-0.19v-0.015L70.801,101.108z M63.115,97.549
						h-0.233l-0.335-0.117V96.98l0.452-0.452l0.219,0.671L63.115,97.549z M57.31,97.651v0.452l-0.117,0.35v0.233l-0.219,0.219
						l-0.248,0.569l-0.102-0.685v-0.336l-0.102-0.117h0.204v-0.233l0.131-0.102l0.219-0.452v-0.467l0.35-0.452l0.452-0.569
						l-0.117,0.919L57.31,97.651z M57.426,102.436v0.219l-0.233,0.117l-0.219,0.233l-0.117-0.117h-0.233l0.233-0.452l0.452-0.117
						L57.426,102.436z M52.759,101.298l0.102-0.117l0.117,0.117h0.131l0.452,0.452l0.336,0.117l0.452,0.233v0.102l0.117,0.117v0.117
						l-0.335,0.685l-0.569,0.233l-0.35,0.335l-0.35-0.335l-0.102-0.802V101.298z M54.349,101.414l-0.452-0.117l-0.336-0.117
						l-0.117,0.233v0.102l-0.117-0.102v-0.117l-0.117-0.233l0.452-0.554l0.175-0.35l0.058-0.117l0.335-0.35l0.452,0.817l0.35,0.788
						l-0.35,0.117H54.349z M60.387,96.747l0.117,1.706l-0.919-0.904l-0.685-0.802l-0.452-0.35l0.117-0.671l0.686-0.569l0.554,0.336
						L60.387,96.747z M60.271,94.822l0.233-0.131h0.088l0.131,0.233v0.117l-0.131,0.117h-0.088l-0.117-0.117L60.271,94.822z
						 M59.935,90.825l0.102,0.35l-0.233,0.686l-0.788,0.569l0.452-1.021l0.219-0.583H59.935z M59.687,89.469v-0.233l0.117-0.219
						l0.131-0.117l0.102,0.335l0.117,0.233l-0.219,0.219L59.687,89.469z M59.133,93.903l0.117,0.117v0.219l-0.117,0.117h-0.117
						l-0.233-0.117v-0.336l0.117-0.117L59.133,93.903z M55.151,99.358l0.233-0.671h0.219l0.117,0.219l-0.233,0.686l-0.452,0.452
						L55.151,99.358z M55.72,100.846l0.102-0.233l0.233-0.102l0.117,0.335l-0.117,0.219l-0.117,0.35l-0.219,0.102l-0.117-0.336
						L55.72,100.846z M55.72,97.199l-0.233-0.117v-0.335l0.336-0.35l0.467,0.35l-0.117,0.569L55.72,97.199z M56.172,95.041
						l0.452-0.452l0.569,0.102l0.117,0.35l-0.117,0.233l-0.569,0.219L56.172,95.041z M58.331,99.941l0.452-0.248l-0.117-0.788
						l0.467-0.452v0.686l-0.35,1.254l-0.904-0.117L58.331,99.941z M58.899,101.75l0.35-0.802l0.219-0.671l0.685,0.117v0.904
						l-0.802,1.138h-1.123L58.899,101.75z M59.133,104.477h0.117l0.219-0.452l0.117-0.117v-0.102h0.102v-0.117l0.904-0.686
						l0.7-0.233v0.788l-0.35,0.7h-0.102v0.117l-0.117,0.336l-0.219,0.452h-0.7l-0.554,0.117l-0.117-0.467V104.477z M61.175,100.612
						l-0.117,0.685l-0.117,0.802l-0.102,0.102h-0.117l-0.219-1.356l-0.117-0.335l0.117-0.35l0.336-0.219h0.219l0.233,0.102v0.35
						L61.175,100.612z M61.175,98.104l-0.233-0.335v-0.336l0.35-0.569l0.335-0.233l0.117,0.569v0.35l-0.233,0.452L61.175,98.104z
						 M28.299,54.201h-0.117l-0.336-0.117v-0.335h0.336l0.117,0.335V54.201z M28.868,53.297l-0.335-0.35l-0.452-0.219h-0.452v-0.35
						l0.335-0.102l0.335,0.102l0.686,0.117L28.868,53.297z M33.535,48.41h-0.233l-0.336-0.131L32.85,48.06v-0.335l0.233-0.467
						l0.685,0.685L33.535,48.41z M34.454,54.317l-0.117-0.117l0.117-0.671l0.219-0.802l0.452,0.904L34.454,54.317z M36.379,49.198
						l-0.569-0.336l0.102-0.117l0.233-0.117l0.35,0.233L36.379,49.198z M40.595,54.653l-0.233,0.131l-0.233-0.233l-0.117-0.233
						l-0.219-0.569l-0.117-0.219l-0.102-0.131v-0.102l-0.117-0.117h-0.233l-0.35-0.569l-0.204-0.117l-0.7-0.219l-0.452,0.219
						l-0.35-0.117l0.117-0.35l0.233-0.336v-0.219l0.233-0.102h0.102v0.219l0.35,0.35l0.467,0.088h0.438l0.117,0.131l0.102-0.131
						h0.583l-0.452-0.088l-0.35-0.248l0.117-0.219l0.685-0.102l0.569,0.569l-0.233,0.438v0.117l0.117,0.117l0.233,1.823V54.653z
						 M44.693,58.854l-0.233-0.904l0.336-0.336l0.233-0.335v-0.117l-0.335-0.35H44.46l-0.233,0.117v-0.117l-0.233-0.219l-0.117-0.35
						l-0.102-0.219h-0.117l0.219-0.219l0.35-0.233h0.569l-0.102,0.335l0.219,0.583l0.569,0.554l0.335,0.788l0.336,0.233h0.335
						l0.306,0.671l-0.292-0.219l-0.452-0.102l-0.452-0.233h-0.35l-0.117,0.233l0.117,0.336l-0.117,0.233L44.693,58.854z
						 M54.684,105.061l-0.219,0.219l-0.569,0.233l-0.452-0.35l-0.117-0.102v-0.131l-0.467-0.117v-0.554l0.583-0.117l0.117,0.335
						l0.219,0.117h0.685l0.219,0.335V105.061z M55.822,105.513l-0.219,0.219h-0.117l-0.088-0.146l-0.365-0.656l0.117-1.021
						l0.233-0.438l-0.233-0.35l-0.233-0.117v-0.35l-0.117-0.102l0.233-0.117h0.233l0.219,0.117h0.233l0.102,0.102v0.233
						l-0.088,0.292l-0.015,0.044v0.335l-0.233,0.583l0.336,0.671V105.513z M56.055,104.025l0.131-0.088l0.335-0.248l0.335-0.219
						h0.336l0.233-0.248l0.219,0.467l-0.336,0.904l0.686,0.685l0.233,1.021l0.044,0.044l0.394,0.292l1.488-0.336h0.117l0.671-0.569
						l0.117-0.219l0.35-0.919h0.102v-0.117l0.233-0.219l0.452-0.35l-0.102,0.686v0.219l-0.117,0.467v0.336l-0.117,0.233
						l-0.569,0.904l-0.35,0.583l-0.904-0.233l-0.569,0.452l-0.452-0.335h-0.569l-0.321-0.204l-0.248-0.146l-0.452,0.117
						l-0.117,0.452v0.452l-0.117,0.117l-0.117,0.233h-0.554v-0.35l-0.131-0.336v-0.685l0.467-0.569l0.365-0.569l0.044-0.058
						l0.044-0.058l-0.335-0.452l-0.583,0.233l-0.102-0.583L56.055,104.025z M58.097,108.576l-0.452,0.452l-0.336,0.233l0.146-0.452
						l0.233-0.306l0.073-0.029v-0.073l0.044-0.058h0.292V108.576z M56.974,105.163l0.292,0.51l0.044-0.058L56.974,105.163z
						 M56.974,105.163l0.292,0.51l0.044-0.058L56.974,105.163z"/>
				</g>
				<polygon style="fill:#D16A0F;" points="55.14,113.241 55.032,112.107 55.032,111.632 55.637,110.757 55.734,110.628 
					55.939,110.962 55.907,111.211 55.82,111.988 55.604,112.669 				"/>
				<polygon style="fill:#D16A0F;" points="65.012,128.038 54.081,114.926 54.125,114.948 54.913,114.948 55.604,114.721 
					56.058,114.483 56.058,114.386 56.166,114.386 56.846,113.803 57.073,114.149 57.419,114.149 57.451,114.073 57.516,113.933 
									"/>
				<polygon style="fill:#4E9278;" points="50.258,109.828 50.485,110.174 50.366,110.174 50.258,110.282 50.29,110.379 
					48.508,108.251 48.26,107.949 47.558,107.106 48.659,107.333 48.767,107.333 48.886,107.441 49.113,107.441 49.232,107.549 
					49.912,108.467 50.02,108.683 50.258,108.921 50.139,108.921 50.02,109.601 				"/>
				<polygon style="fill:#4E9278;" points="47.86,106.307 47.407,106.415 46.985,106.415 41.045,99.298 44.987,93.012 
					51.068,102.981 51.046,103.002 51.046,103.348 50.82,103.564 49.232,105.281 48.551,105.508 48.076,106.059 				"/>
				<polygon style="fill:#4E9278;" points="51.511,109.029 51.511,108.575 50.928,108.467 50.593,108.122 50.02,108.003 
					49.459,107.215 49.243,106.221 49.232,106.188 49.459,105.843 49.459,105.508 49.912,105.054 50.485,104.709 51.046,104.709 
					51.046,105.281 51.273,105.616 51.619,105.616 51.846,105.508 51.846,105.281 51.619,104.817 51.511,104.709 51.511,104.59 
					51.392,104.59 51.9,104.514 51.997,104.493 53.055,106.242 53.444,106.869 53.93,107.668 53.887,107.668 53.801,107.711 
					53.66,107.776 53.444,107.776 52.526,108.241 52.526,109.267 52.072,110.174 51.954,110.282 51.727,110.401 51.727,110.055 
					51.619,109.828 51.619,109.709 				"/>
				<polygon style="fill:#4E9278;" points="53.552,111.308 54.351,112.442 54.351,112.55 54.233,112.55 53.444,113.36 
					53.098,113.36 52.861,113.241 52.753,113.014 52.98,112.669 52.634,112.334 52.245,112.723 51.532,111.87 52.191,111.643 
					52.299,111.643 52.418,111.308 52.634,110.962 52.861,110.962 				"/>
				<polygon style="fill:#4E9278;" points="55.896,110.887 55.799,111.016 55.032,112.042 55.032,110.962 55.421,110.411 
					55.518,110.282 				"/>
			</g>
		</g>
		<g>
			<path style="fill:#A4A093;" d="M188.386,127.665c1.906,2.183,3.54,4.613,4.901,7.289l1.894,4.541l0.071,0l0.001-0.24
				c0.034-6.488-0.141-9.734-0.525-9.736c-0.905-1.108-1.485-1.662-1.741-1.663l0-0.168l7.36,0.038v0.072
				c-1.621,1.158-2.437,2.856-2.448,5.093l-0.115,3.524l-0.026,5.01l0.076,3.932c-0.415,6.023-0.938,9.816-1.57,11.379
				c-1.039,3.158-2.285,6.14-3.738,8.946l-0.24-0.001l-0.167-0.169c1.133-2.791,1.703-4.85,1.71-6.176
				c0.229-1.006,0.434-3.577,0.615-7.715c0.023-4.347-1.485-9.429-4.523-15.246c-1.778-2.359-3.415-4.069-4.911-5.132l-0.101,1.006
				l-0.104,15.787c-0.019,3.74,0.282,5.699,0.904,5.878c-0.002,0.4,0.746,0.907,2.245,1.522l-0.001,0.168l-8.701-0.045l0.001-0.168
				c1.617-0.599,2.431-1.937,2.442-4.014l0.178-11.783l0.025-4.866c0.017-3.292-0.174-4.939-0.573-4.942
				c-0.031-0.336-0.61-1.034-1.739-2.094l0.072-0.071L188.386,127.665z"/>
			<path style="fill:#A4A093;" d="M216.908,127.765c1.751,1.432,2.997,2.901,3.741,4.407c2.421,4.504,3.782,8.562,4.084,12.176
				l1.059,8.889c0.125,0.56,0.704,1.314,1.739,2.262l0,0.072l-8.222-0.043l0-0.072c1.54-0.966,2.311-1.897,2.315-2.792
				c0.02-3.724-0.218-4.529-0.715-10.493c-0.892-0.548-1.666-0.824-2.321-0.827c-0.56-0.003-1.784,0.446-3.675,1.347l-2.544,0.466
				c-0.398,2.811-0.611,2.735-0.637,7.848c-0.009,1.758,0.225,2.83,0.702,3.216c0,0.096,0.429,0.497,1.289,1.205l-0.097,0.071
				l-7.983-0.041l0-0.072c1.491-0.903,2.241-2.153,2.248-3.751c0.674-9.682,1.131-10.483,1.37-10.482
				c0.885-4.214,2.606-7.857,5.163-10.928C215.825,128.583,216.653,127.764,216.908,127.765z M212.865,140.114
				c1.458-0.727,2.842-1.088,4.153-1.081l0.072,0c1.518,0.008,2.769,0.701,3.753,2.081h0.072c0.009-1.822-0.855-4.671-2.592-8.548
				c-0.57-0.962-1.071-1.475-1.503-1.542C215.493,131.018,214.174,134.048,212.865,140.114z"/>
			<path style="fill:#A4A093;" d="M242.624,127.948c1.907,2.183,3.54,4.613,4.901,7.289l1.894,4.541h0.072l0.001-0.24
				c0.034-6.488-0.141-9.734-0.524-9.736c-0.905-1.107-1.486-1.662-1.741-1.663l0-0.168l7.359,0.038v0.072
				c-1.62,1.158-2.436,2.856-2.447,5.093l-0.115,3.524l-0.026,5.01l0.076,3.932c-0.416,6.023-0.939,9.816-1.57,11.379
				c-1.04,3.158-2.286,6.14-3.739,8.946l-0.24-0.001l-0.167-0.168c1.132-2.792,1.703-4.85,1.71-6.177
				c0.229-1.005,0.434-3.576,0.615-7.715c0.023-4.347-1.485-9.429-4.523-15.246c-1.777-2.359-3.415-4.069-4.911-5.132l-0.101,1.006
				l-0.104,15.787c-0.019,3.74,0.282,5.699,0.904,5.877c-0.002,0.4,0.747,0.907,2.246,1.522l-0.001,0.168l-8.702-0.045l0.001-0.168
				c1.617-0.599,2.431-1.937,2.442-4.014l0.178-11.783l0.025-4.866c0.017-3.292-0.174-4.939-0.573-4.941
				c-0.031-0.336-0.61-1.034-1.739-2.095l0.072-0.071L242.624,127.948z"/>
			<path style="fill:#A4A093;" d="M263.429,128.008l15.556,0.081c0.943,0.005,1.414,0.143,1.412,0.415
				c0.332,0.865,0.491,2.56,0.477,5.085l-0.011,2.086c-0.013,2.525-1.001,5.013-2.964,7.464l-0.314,0.262l0.001-0.096
				c0.616-1.659,0.93-3.735,0.944-6.228c0.018-3.452-0.969-5.711-2.96-6.776l-1.006-0.173c-0.751-0.004-1.17,0.497-1.255,1.504
				c-0.183,4.538-0.299,7.435-0.348,16.768l-0.014,2.661c-0.01,1.982,0.813,3.544,2.469,4.687l-0.096,0.071l-8.151-0.042
				l-0.167-0.169c1.621-1.334,2.438-3.351,2.452-6.052l0.112-3.633l0.037-7.143l-0.037-6.593c-0.456-1.393-1.124-2.092-2.002-2.096
				c-1.23-0.006-2.34,1.131-3.326,3.411c-0.293,0.926-0.443,2.115-0.451,3.57c-0.012,2.349,0.28,4.436,0.878,6.262
				c-1.353-1.078-2.366-3.137-3.036-6.177l-0.16-1.583l0.011-2.181c0.018-3.548,0.331-5.321,0.939-5.318L263.429,128.008z"/>
			<path style="fill:#A4A093;" d="M287.704,128.494l17.524,0.092c0.398,0.002,0.775,1.355,1.129,4.057l-0.001,0.24
				c-0.013,2.382-1.229,4.277-3.65,5.687l-0.096-0.097l0.001-0.071c0.61-0.716,0.919-1.57,0.924-2.561l0.002-0.336
				c0.011-2.109-0.342-3.406-1.059-3.888c-1.195-0.773-3.006-1.167-5.435-1.18l-1.079-0.005c-1.343-0.007-2.112,0.461-2.309,1.403
				l-0.102,1.222l-0.112,7.598c0.997-0.986,2.046-1.476,3.148-1.47c0.831,0.004,2.17,0.595,4.019,1.771
				c0.558,0.226,1.108,0.341,1.651,0.344c0.783,0.004,1.312-0.409,1.589-1.238l0.001-0.168l0.168,0.001
				c0.221,0.544,0.33,1.016,0.328,1.416l-0.001,0.143c-0.008,1.55-1.148,2.455-3.418,2.715c-1.279-0.006-2.977-0.678-5.095-2.016
				l-1.007-0.149c-0.928,0.235-1.395,0.976-1.401,2.222l-0.057,6.869c-0.008,1.406,0.259,2.311,0.801,2.713
				c0.415,0.178,1.269,0.27,2.563,0.277c4.315,0.022,7.08-1.426,8.294-4.343c0.501-1.116,0.753-1.938,0.755-2.465l0.24,0.001
				c0.491,1.121,0.734,2.058,0.73,2.808l-0.005,0.815c-0.012,2.317-1.677,4.626-4.998,6.926l-1.249,0.401
				c-2.421-1.499-4.399-2.253-5.933-2.261l-7.096-0.037l-0.167-0.169c1.6-0.63,2.408-1.977,2.417-4.038l0.152-11.255l0.027-5.035
				c0.017-3.196-0.168-4.795-0.551-4.797c0.002-0.272-0.546-0.962-1.643-2.07L287.704,128.494z"/>
			<path style="fill:#A4A093;" d="M321.956,128.625l2.084,0.178c0-0.111,0.081-0.168,0.241-0.167
				c2.206,0.011,4.103,0.788,5.694,2.331c0.49,0.834,0.735,1.642,0.731,2.425c-0.012,2.253-1.237,4.285-3.676,6.094v-0.168
				c0.613-1.131,0.924-2.345,0.931-3.639c0.012-2.349-0.891-3.872-2.709-4.569c-0.478-0.21-0.83-0.315-1.054-0.317
				c-1.47-0.007-3.079,0.56-4.827,1.701c-0.659,0.7-0.99,1.418-0.994,2.153c-0.009,1.63,2.297,3.712,6.919,6.245
				c4.73,3.03,7.088,4.363,7.068,8.039l-0.004,0.743c-0.015,2.957-1.604,4.703-4.766,7.26c-0.162,0.222-1.736,0.35-4.725,0.383
				l-6.879-0.204c-1.973-1.96-2.954-3.65-2.946-5.073l0.001-0.312c0.01-1.806,1.29-3.765,3.843-5.878l-0.001,0.168
				c-0.838,1.258-1.26,2.359-1.265,3.302l-0.002,0.335c-0.014,2.669,1.799,4.42,5.439,5.254c2.973,0.015,5.025-0.235,6.156-2.77
				c0.34-0.829,0.513-1.739,0.518-2.73c0.021-3.803-2.202-4.832-6.664-7.125c-4.525-2.836-6.78-5.333-6.769-7.491
				c0.015-2.844,1.575-4.77,4.681-5.777C319.894,128.75,320.885,128.619,321.956,128.625z"/>
			<path style="fill:#A4A093;" d="M370.545,135.443c0.014-2.748-0.567-3.848-1.741-5.316c-1.175-1.469-2.675-2-4.499-1.594
				c-2.895,0.465-4.896,2.476-6.001,6.034c-1.219-5.2,0.787-8.266,6.018-9.198c3.946,0.261,6.592,1.501,7.94,3.721
				c1.346,2.221,2.013,3.672,1.999,6.372c-0.022,4.027-3.735,7.987-11.137,17.937c5.973,0.718,10.016-0.787,12.13-4.516
				c0.466,2.432-0.257,4.954-2.173,7.564l-16.685-0.207l0.031-1.151C365.814,144.768,370.52,140.238,370.545,135.443z"/>
			<path style="fill:#A4A093;" d="M393.97,125.5c1.726,0.009,3.408,0.785,5.047,2.328c1.638,1.542,2.912,3.739,3.824,6.588
				c0.912,2.849,1.44,3.806,1.584,6.907c0.049,2.75-0.332,4.499-1.147,7.267c-0.813,2.769-2.095,5.004-3.846,6.705
				c-1.751,1.701-3.633,2.618-5.648,2.751c-1.789-0.009-3.5-0.801-5.129-2.376c-1.631-1.574-2.889-3.77-3.778-6.587
				c-0.888-2.818-1.324-4.767-1.308-7.868c0.017-3.1,0.491-4.051,1.425-6.891c0.934-2.839,2.228-5.023,3.883-6.548
				C390.53,126.249,392.228,125.491,393.97,125.5z M387.402,141.905c0.209,2.877,0.879,4.933,2.014,8.183
				c1.134,3.25,2.904,5.489,5.311,6.715c0.096,0.001,0.191-0.007,0.287-0.023c2.971-2.556,4.656-5.504,5.057-8.843
				c0.248-1.709,0.378-2.456,0.387-4.263c0.005-0.99-0.031,0.022-0.104-1.002c-0.209-2.894-0.749-5.745-1.622-8.555
				c-0.872-2.809-2.694-5.116-5.466-6.921c-3.08,2.222-4.932,5.001-5.557,8.338c-0.265,1.756-0.402,3.554-0.411,5.392
				C387.292,141.919,387.327,140.898,387.402,141.905z"/>
			<path style="fill:#A4A093;" d="M413.44,156.634l0.006-1.199l2.301,0.012c1.646,0.009,2.48-1.864,2.499-5.62l0.1-14.995
				c0.076-2.621-0.853-3.656-2.789-3.107l-3.003,1.183c2.32-3.455,5.16-5.646,8.52-6.572l1.198,0.006l-0.144,23.505
				c-0.02,3.756,0.794,5.637,2.44,5.646l2.301,0.012l-0.006,1.199L413.44,156.634z"/>
			<path style="fill:#A4A093;" d="M438.243,158.085c3.185-0.814,7.048-2.388,9.628-4.881c3.168-3.061,4.149-5.615,4.409-8.486
				c-1.526,1.478-3.655,2.21-6.388,2.196c-1.725-0.009-3.41-0.473-5.051-1.393c-1.642-0.919-2.922-2.224-3.84-3.916
				c-0.918-1.691-1.371-3.463-1.363-5.317c0.01-1.854,0.47-3.613,1.382-5.279s2.069-2.958,3.472-3.878
				c1.403-0.919,2.76-1.376,4.071-1.369c3.883,0.02,6.805,1.334,8.766,3.941c1.959,2.608,3.001,5.59,2.913,8.945
				c-0.172,6.581-1.775,10.056-4.624,13.563C448.991,155.448,443.659,158.416,438.243,158.085z M444.775,126.627
				c-3.237,1.694-4.861,4.945-4.869,9.756c-0.009,4.81,2.308,8.035,6.95,9.673c1.454,0.008,2.797-0.816,4.028-2.472
				c1.231-1.655,1.461-4.475,0.691-8.459C450.805,131.141,448.539,128.309,444.775,126.627z"/>
		</g>
	</g>
</g>
<g id="old" style="display:none;">
</g>
</svg>
