<svg viewBox="0 0 52 52" xmlns="http://www.w3.org/2000/svg"><path d="m21.05 21.05-0.05025 4.9497 5 9.8995-14.05 14.05 2.0502-21.849z" fill="#e62626"/><path d="m7 0c-3.866 0-7 3.134-7 7v38l14-16v-22c0-3.866-3.134-7-7-7zm0 4a3 3 0 0 1 3 3 3 3 0 0 1-3 3 3 3 0 0 1-3-3 3 3 0 0 1 3-3z" fill="#f89c20"/><path d="m14 28.1-11.949 11.951 0.00391 2e-3c-1.3138 1.3114-2.0529 3.0909-2.0547 4.9472 0 3.866 3.134 7 7 7s7-3.134 7-7zm-7 13.9c1.6569 0 3 1.3431 3 3s-1.3431 3-3 3-3-1.3431-3-3 1.3431-3 3-3z" fill="#d02e27"/><path d="m30.95 21.05 0.05025 4.9497-5 9.8995 14.05 14.05-2.0502-21.849z" fill="#694d9f"/><path d="m45 0c3.866 0 7 3.134 7 7v38l-14-16v-22c0-3.866 3.134-7 7-7zm0 4a3 3 0 0 0-3 3 3 3 0 0 0 3 3 3 3 0 0 0 3-3 3 3 0 0 0-3-3z" fill="#2eb3c4"/><path d="m38 28.1 11.949 11.951-0.0039 2e-3c1.3138 1.3114 2.0528 3.0909 2.0547 4.9472 0 3.866-3.134 7-7 7s-7-3.134-7-7zm7 13.9c-1.6569 0-3 1.3431-3 3s1.3431 3 3 3 3-1.3431 3-3-1.3431-3-3-3z" fill="#263c81"/><path d="m25.898 19a7 7 0 0 0-4.8477 2.0508 7 7 0 0 0 0 9.8984l4.9492 4.9512 4.9492-4.9512a7 7 0 0 0 0-9.8984 7 7 0 0 0-5.0508-2.0508zm0.10156 4a3 3 0 0 1 3 3 3 3 0 0 1-3 3 3 3 0 0 1-3-3 3 3 0 0 1 3-3z" fill="#7f1333"/></svg>
