<?xml version="1.0" encoding="UTF-8" standalone="no"?>
<!DOCTYPE svg PUBLIC "-//W3C//DTD SVG 1.1//EN"
 "http://www.w3.org/Graphics/SVG/1.1/DTD/svg11.dtd">
<!-- Generated by graphviz version 2.42.1 (0)
 -->
<!-- Title: dependency&#45;cruiser output Pages: 1 -->
<svg width="932pt" height="526pt"
 viewBox="0.00 0.00 932.00 526.13" xmlns="http://www.w3.org/2000/svg" xmlns:xlink="http://www.w3.org/1999/xlink">
<g id="graph0" class="graph" transform="scale(1 1) rotate(0) translate(4 522.13)">
<title>dependency&#45;cruiser output</title>
<polygon fill="white" stroke="transparent" points="-4,4 -4,-522.13 928,-522.13 928,4 -4,4"/>
<g id="clust1" class="cluster">
<title>cluster_node_modules</title>
<path fill="#ffffff" stroke="black" stroke-width="2" d="M96.5,-26.13C96.5,-26.13 904,-26.13 904,-26.13 910,-26.13 916,-32.13 916,-38.13 916,-38.13 916,-378.13 916,-378.13 916,-384.13 910,-390.13 904,-390.13 904,-390.13 96.5,-390.13 96.5,-390.13 90.5,-390.13 84.5,-384.13 84.5,-378.13 84.5,-378.13 84.5,-38.13 84.5,-38.13 84.5,-32.13 90.5,-26.13 96.5,-26.13"/>
<text text-anchor="middle" x="500.25" y="-378.93" font-family="Helvetica,sans-Serif" font-weight="bold" font-size="9.00">node_modules</text>
</g>
<g id="clust2" class="cluster">
<title>cluster_node_modules/object&#45;assign</title>
<path fill="#ffffff" stroke="black" stroke-width="2" d="M669,-142.13C669,-142.13 730,-142.13 730,-142.13 736,-142.13 742,-148.13 742,-154.13 742,-154.13 742,-182.13 742,-182.13 742,-188.13 736,-194.13 730,-194.13 730,-194.13 669,-194.13 669,-194.13 663,-194.13 657,-188.13 657,-182.13 657,-182.13 657,-154.13 657,-154.13 657,-148.13 663,-142.13 669,-142.13"/>
<text text-anchor="middle" x="699.5" y="-182.93" font-family="Helvetica,sans-Serif" font-weight="bold" font-size="9.00">object&#45;assign</text>
</g>
<g id="clust3" class="cluster">
<title>cluster_node_modules/prop&#45;types</title>
<path fill="#ffffff" stroke="black" stroke-width="2" d="M654,-39.13C654,-39.13 896,-39.13 896,-39.13 902,-39.13 908,-45.13 908,-51.13 908,-51.13 908,-113.13 908,-113.13 908,-119.13 902,-125.13 896,-125.13 896,-125.13 654,-125.13 654,-125.13 648,-125.13 642,-119.13 642,-113.13 642,-113.13 642,-51.13 642,-51.13 642,-45.13 648,-39.13 654,-39.13"/>
<text text-anchor="middle" x="775" y="-113.93" font-family="Helvetica,sans-Serif" font-weight="bold" font-size="9.00">prop&#45;types</text>
</g>
<g id="clust4" class="cluster">
<title>cluster_node_modules/prop&#45;types/lib</title>
<path fill="#ffffff" stroke="black" stroke-width="2" d="M770,-47.13C770,-47.13 888,-47.13 888,-47.13 894,-47.13 900,-53.13 900,-59.13 900,-59.13 900,-87.13 900,-87.13 900,-93.13 894,-99.13 888,-99.13 888,-99.13 770,-99.13 770,-99.13 764,-99.13 758,-93.13 758,-87.13 758,-87.13 758,-59.13 758,-59.13 758,-53.13 764,-47.13 770,-47.13"/>
<text text-anchor="middle" x="829" y="-87.93" font-family="Helvetica,sans-Serif" font-weight="bold" font-size="9.00">lib</text>
</g>
<g id="clust5" class="cluster">
<title>cluster_node_modules/react&#45;dom</title>
<path fill="#ffffff" stroke="black" stroke-width="2" d="M104.5,-148.13C104.5,-148.13 338,-148.13 338,-148.13 344,-148.13 350,-154.13 350,-160.13 350,-160.13 350,-252.13 350,-252.13 350,-258.13 344,-264.13 338,-264.13 338,-264.13 104.5,-264.13 104.5,-264.13 98.5,-264.13 92.5,-258.13 92.5,-252.13 92.5,-252.13 92.5,-160.13 92.5,-160.13 92.5,-154.13 98.5,-148.13 104.5,-148.13"/>
<text text-anchor="middle" x="221.25" y="-252.93" font-family="Helvetica,sans-Serif" font-weight="bold" font-size="9.00">react&#45;dom</text>
</g>
<g id="clust6" class="cluster">
<title>cluster_node_modules/react&#45;dom/cjs</title>
<path fill="#ffffff" stroke="black" stroke-width="2" d="M192,-156.13C192,-156.13 330,-156.13 330,-156.13 336,-156.13 342,-162.13 342,-168.13 342,-168.13 342,-226.13 342,-226.13 342,-232.13 336,-238.13 330,-238.13 330,-238.13 192,-238.13 192,-238.13 186,-238.13 180,-232.13 180,-226.13 180,-226.13 180,-168.13 180,-168.13 180,-162.13 186,-156.13 192,-156.13"/>
<text text-anchor="middle" x="261" y="-226.93" font-family="Helvetica,sans-Serif" font-weight="bold" font-size="9.00">cjs</text>
</g>
<g id="clust7" class="cluster">
<title>cluster_node_modules/react</title>
<path fill="#ffffff" stroke="black" stroke-width="2" d="M372.5,-44.13C372.5,-44.13 595.5,-44.13 595.5,-44.13 601.5,-44.13 607.5,-50.13 607.5,-56.13 607.5,-56.13 607.5,-148.13 607.5,-148.13 607.5,-154.13 601.5,-160.13 595.5,-160.13 595.5,-160.13 372.5,-160.13 372.5,-160.13 366.5,-160.13 360.5,-154.13 360.5,-148.13 360.5,-148.13 360.5,-56.13 360.5,-56.13 360.5,-50.13 366.5,-44.13 372.5,-44.13"/>
<text text-anchor="middle" x="484" y="-148.93" font-family="Helvetica,sans-Serif" font-weight="bold" font-size="9.00">react</text>
</g>
<g id="clust8" class="cluster">
<title>cluster_node_modules/react/cjs</title>
<path fill="#ffffff" stroke="black" stroke-width="2" d="M473.5,-52.13C473.5,-52.13 587.5,-52.13 587.5,-52.13 593.5,-52.13 599.5,-58.13 599.5,-64.13 599.5,-64.13 599.5,-122.13 599.5,-122.13 599.5,-128.13 593.5,-134.13 587.5,-134.13 587.5,-134.13 473.5,-134.13 473.5,-134.13 467.5,-134.13 461.5,-128.13 461.5,-122.13 461.5,-122.13 461.5,-64.13 461.5,-64.13 461.5,-58.13 467.5,-52.13 473.5,-52.13"/>
<text text-anchor="middle" x="530.5" y="-122.93" font-family="Helvetica,sans-Serif" font-weight="bold" font-size="9.00">cjs</text>
</g>
<g id="clust9" class="cluster">
<title>cluster_node_modules/scheduler</title>
<path fill="#ffffff" stroke="black" stroke-width="2" d="M370,-178.13C370,-178.13 624,-178.13 624,-178.13 630,-178.13 636,-184.13 636,-190.13 636,-190.13 636,-342.13 636,-342.13 636,-348.13 630,-354.13 624,-354.13 624,-354.13 370,-354.13 370,-354.13 364,-354.13 358,-348.13 358,-342.13 358,-342.13 358,-190.13 358,-190.13 358,-184.13 364,-178.13 370,-178.13"/>
<text text-anchor="middle" x="497" y="-342.93" font-family="Helvetica,sans-Serif" font-weight="bold" font-size="9.00">scheduler</text>
</g>
<g id="clust10" class="cluster">
<title>cluster_node_modules/scheduler/cjs</title>
<path fill="#ffffff" stroke="black" stroke-width="2" d="M445,-186.13C445,-186.13 616,-186.13 616,-186.13 622,-186.13 628,-192.13 628,-198.13 628,-198.13 628,-316.13 628,-316.13 628,-322.13 622,-328.13 616,-328.13 616,-328.13 445,-328.13 445,-328.13 439,-328.13 433,-322.13 433,-316.13 433,-316.13 433,-198.13 433,-198.13 433,-192.13 439,-186.13 445,-186.13"/>
<text text-anchor="middle" x="530.5" y="-316.93" font-family="Helvetica,sans-Serif" font-weight="bold" font-size="9.00">cjs</text>
</g>
<g id="clust11" class="cluster">
<title>cluster_src</title>
<path fill="#ffffff" stroke="black" stroke-width="2" d="M20,-398.13C20,-398.13 284,-398.13 284,-398.13 290,-398.13 296,-404.13 296,-410.13 296,-410.13 296,-498.13 296,-498.13 296,-504.13 290,-510.13 284,-510.13 284,-510.13 20,-510.13 20,-510.13 14,-510.13 8,-504.13 8,-498.13 8,-498.13 8,-410.13 8,-410.13 8,-404.13 14,-398.13 20,-398.13"/>
<text text-anchor="middle" x="152" y="-498.93" font-family="Helvetica,sans-Serif" font-weight="bold" font-size="9.00">src</text>
</g>
<!-- node_modules/object&#45;assign/index.js -->
<g id="node1" class="node">
<title>node_modules/object&#45;assign/index.js</title>
<g id="a_node1"><a xlink:href="node_modules/object-assign/index.js" xlink:title="index.js">
<path fill="#c40b0a" fill-opacity="0.101961" stroke="black" d="M720,-168.13C720,-168.13 678,-168.13 678,-168.13 675,-168.13 672,-165.13 672,-162.13 672,-162.13 672,-156.13 672,-156.13 672,-153.13 675,-150.13 678,-150.13 678,-150.13 720,-150.13 720,-150.13 723,-150.13 726,-153.13 726,-156.13 726,-156.13 726,-162.13 726,-162.13 726,-165.13 723,-168.13 720,-168.13"/>
<text text-anchor="middle" x="699" y="-156.93" font-family="Helvetica,sans-Serif" font-size="9.00" fill="#c40b0a">index.js</text>
</a>
</g>
</g>
<!-- node_modules/prop&#45;types/checkPropTypes.js -->
<g id="node2" class="node">
<title>node_modules/prop&#45;types/checkPropTypes.js</title>
<g id="a_node2"><a xlink:href="node_modules/prop-types/checkPropTypes.js" xlink:title="checkPropTypes.js">
<path fill="#c40b0a" fill-opacity="0.101961" stroke="black" d="M742,-73.13C742,-73.13 656,-73.13 656,-73.13 653,-73.13 650,-70.13 650,-67.13 650,-67.13 650,-61.13 650,-61.13 650,-58.13 653,-55.13 656,-55.13 656,-55.13 742,-55.13 742,-55.13 745,-55.13 748,-58.13 748,-61.13 748,-61.13 748,-67.13 748,-67.13 748,-70.13 745,-73.13 742,-73.13"/>
<text text-anchor="middle" x="699" y="-61.93" font-family="Helvetica,sans-Serif" font-size="9.00" fill="#c40b0a">checkPropTypes.js</text>
</a>
</g>
</g>
<!-- node_modules/prop&#45;types/lib/ReactPropTypesSecret.js -->
<g id="node3" class="node">
<title>node_modules/prop&#45;types/lib/ReactPropTypesSecret.js</title>
<g id="a_node3"><a xlink:href="node_modules/prop-types/lib/ReactPropTypesSecret.js" xlink:title="ReactPropTypesSecret.js">
<path fill="#c40b0a" fill-opacity="0.101961" stroke="black" d="M886,-73.13C886,-73.13 772,-73.13 772,-73.13 769,-73.13 766,-70.13 766,-67.13 766,-67.13 766,-61.13 766,-61.13 766,-58.13 769,-55.13 772,-55.13 772,-55.13 886,-55.13 886,-55.13 889,-55.13 892,-58.13 892,-61.13 892,-61.13 892,-67.13 892,-67.13 892,-70.13 889,-73.13 886,-73.13"/>
<text text-anchor="middle" x="829" y="-61.93" font-family="Helvetica,sans-Serif" font-size="9.00" fill="#c40b0a">ReactPropTypesSecret.js</text>
</a>
</g>
</g>
<!-- node_modules/prop&#45;types/checkPropTypes.js&#45;&gt;node_modules/prop&#45;types/lib/ReactPropTypesSecret.js -->
<g id="edge1" class="edge">
<title>node_modules/prop&#45;types/checkPropTypes.js&#45;&gt;node_modules/prop&#45;types/lib/ReactPropTypesSecret.js</title>
<path fill="none" stroke="#000000" stroke-width="2" stroke-opacity="0.466667" d="M748.03,-64.13C750.57,-64.13 753.15,-64.13 755.75,-64.13"/>
<polygon fill="#000000" fill-opacity="0.466667" stroke="#000000" stroke-width="2" stroke-opacity="0.466667" points="755.83,-67.63 765.83,-64.13 755.83,-60.63 755.83,-67.63"/>
</g>
<!-- node_modules/react&#45;dom/cjs/react&#45;dom.development.js -->
<g id="node4" class="node">
<title>node_modules/react&#45;dom/cjs/react&#45;dom.development.js</title>
<g id="a_node4"><a xlink:href="node_modules/react-dom/cjs/react-dom.development.js" xlink:title="react&#45;dom.development.js">
<path fill="#c40b0a" fill-opacity="0.101961" stroke="black" d="M322.5,-212.13C322.5,-212.13 199.5,-212.13 199.5,-212.13 196.5,-212.13 193.5,-209.13 193.5,-206.13 193.5,-206.13 193.5,-200.13 193.5,-200.13 193.5,-197.13 196.5,-194.13 199.5,-194.13 199.5,-194.13 322.5,-194.13 322.5,-194.13 325.5,-194.13 328.5,-197.13 328.5,-200.13 328.5,-200.13 328.5,-206.13 328.5,-206.13 328.5,-209.13 325.5,-212.13 322.5,-212.13"/>
<text text-anchor="middle" x="261" y="-200.93" font-family="Helvetica,sans-Serif" font-size="9.00" fill="#c40b0a">react&#45;dom.development.js</text>
</a>
</g>
</g>
<!-- node_modules/react&#45;dom/cjs/react&#45;dom.development.js&#45;&gt;node_modules/object&#45;assign/index.js -->
<g id="edge2" class="edge">
<title>node_modules/react&#45;dom/cjs/react&#45;dom.development.js&#45;&gt;node_modules/object&#45;assign/index.js</title>
<path fill="none" stroke="#000000" stroke-width="2" stroke-opacity="0.466667" d="M264.36,-212.35C272.09,-240.38 299.6,-324.72 358,-357.13 384.04,-371.58 395.28,-358.96 425,-357.13 519.31,-351.35 562.16,-390.08 636,-331.13 683.68,-293.07 694.71,-215.21 697.25,-178.77"/>
<polygon fill="#000000" fill-opacity="0.466667" stroke="#000000" stroke-width="2" stroke-opacity="0.466667" points="700.76,-178.67 697.81,-168.49 693.77,-178.29 700.76,-178.67"/>
</g>
<!-- node_modules/react&#45;dom/cjs/react&#45;dom.development.js&#45;&gt;node_modules/prop&#45;types/checkPropTypes.js -->
<g id="edge3" class="edge">
<title>node_modules/react&#45;dom/cjs/react&#45;dom.development.js&#45;&gt;node_modules/prop&#45;types/checkPropTypes.js</title>
<path fill="none" stroke="#000000" stroke-width="2" stroke-opacity="0.466667" d="M328.63,-201.84C336.76,-198.97 344.22,-194.61 350,-188.13 360.89,-175.93 346.12,-52.38 358,-41.13 445.03,41.29 607.26,-21.15 671.15,-50.79"/>
<polygon fill="#000000" fill-opacity="0.466667" stroke="#000000" stroke-width="2" stroke-opacity="0.466667" points="669.65,-53.95 680.19,-55.07 672.65,-47.63 669.65,-53.95"/>
</g>
<!-- node_modules/react/index.js -->
<g id="node9" class="node">
<title>node_modules/react/index.js</title>
<g id="a_node9"><a xlink:href="node_modules/react/index.js" xlink:title="index.js">
<path fill="#c40b0a" fill-opacity="0.101961" stroke="black" d="M416.5,-134.13C416.5,-134.13 374.5,-134.13 374.5,-134.13 371.5,-134.13 368.5,-131.13 368.5,-128.13 368.5,-128.13 368.5,-122.13 368.5,-122.13 368.5,-119.13 371.5,-116.13 374.5,-116.13 374.5,-116.13 416.5,-116.13 416.5,-116.13 419.5,-116.13 422.5,-119.13 422.5,-122.13 422.5,-122.13 422.5,-128.13 422.5,-128.13 422.5,-131.13 419.5,-134.13 416.5,-134.13"/>
<text text-anchor="middle" x="395.5" y="-122.93" font-family="Helvetica,sans-Serif" font-size="9.00" fill="#c40b0a">index.js</text>
</a>
</g>
</g>
<!-- node_modules/react&#45;dom/cjs/react&#45;dom.development.js&#45;&gt;node_modules/react/index.js -->
<g id="edge4" class="edge">
<title>node_modules/react&#45;dom/cjs/react&#45;dom.development.js&#45;&gt;node_modules/react/index.js</title>
<path fill="none" stroke="#000000" stroke-width="2" stroke-opacity="0.466667" d="M328.77,-198.05C336.31,-195.69 343.58,-192.47 350,-188.13 355.62,-184.34 354.22,-180.77 358,-175.13 365.44,-164.04 374.26,-151.94 381.37,-142.42"/>
<polygon fill="#000000" fill-opacity="0.466667" stroke="#000000" stroke-width="2" stroke-opacity="0.466667" points="384.34,-144.29 387.55,-134.2 378.74,-140.08 384.34,-144.29"/>
</g>
<!-- node_modules/scheduler/index.js -->
<g id="node14" class="node">
<title>node_modules/scheduler/index.js</title>
<g id="a_node14"><a xlink:href="node_modules/scheduler/index.js" xlink:title="index.js">
<path fill="#c40b0a" fill-opacity="0.101961" stroke="black" d="M416.5,-212.13C416.5,-212.13 374.5,-212.13 374.5,-212.13 371.5,-212.13 368.5,-209.13 368.5,-206.13 368.5,-206.13 368.5,-200.13 368.5,-200.13 368.5,-197.13 371.5,-194.13 374.5,-194.13 374.5,-194.13 416.5,-194.13 416.5,-194.13 419.5,-194.13 422.5,-197.13 422.5,-200.13 422.5,-200.13 422.5,-206.13 422.5,-206.13 422.5,-209.13 419.5,-212.13 416.5,-212.13"/>
<text text-anchor="middle" x="395.5" y="-200.93" font-family="Helvetica,sans-Serif" font-size="9.00" fill="#c40b0a">index.js</text>
</a>
</g>
</g>
<!-- node_modules/react&#45;dom/cjs/react&#45;dom.development.js&#45;&gt;node_modules/scheduler/index.js -->
<g id="edge5" class="edge">
<title>node_modules/react&#45;dom/cjs/react&#45;dom.development.js&#45;&gt;node_modules/scheduler/index.js</title>
<path fill="none" stroke="#000000" stroke-width="2" stroke-opacity="0.466667" d="M328.64,-203.13C338.74,-203.13 348.82,-203.13 357.96,-203.13"/>
<polygon fill="#000000" fill-opacity="0.466667" stroke="#000000" stroke-width="2" stroke-opacity="0.466667" points="358.19,-206.63 368.19,-203.13 358.19,-199.63 358.19,-206.63"/>
</g>
<!-- node_modules/scheduler/tracing.js -->
<g id="node15" class="node">
<title>node_modules/scheduler/tracing.js</title>
<g id="a_node15"><a xlink:href="node_modules/scheduler/tracing.js" xlink:title="tracing.js">
<path fill="#c40b0a" fill-opacity="0.101961" stroke="black" d="M419,-272.13C419,-272.13 372,-272.13 372,-272.13 369,-272.13 366,-269.13 366,-266.13 366,-266.13 366,-260.13 366,-260.13 366,-257.13 369,-254.13 372,-254.13 372,-254.13 419,-254.13 419,-254.13 422,-254.13 425,-257.13 425,-260.13 425,-260.13 425,-266.13 425,-266.13 425,-269.13 422,-272.13 419,-272.13"/>
<text text-anchor="middle" x="395.5" y="-260.93" font-family="Helvetica,sans-Serif" font-size="9.00" fill="#c40b0a">tracing.js</text>
</a>
</g>
</g>
<!-- node_modules/react&#45;dom/cjs/react&#45;dom.development.js&#45;&gt;node_modules/scheduler/tracing.js -->
<g id="edge6" class="edge">
<title>node_modules/react&#45;dom/cjs/react&#45;dom.development.js&#45;&gt;node_modules/scheduler/tracing.js</title>
<path fill="none" stroke="#000000" stroke-width="2" stroke-opacity="0.466667" d="M282.12,-212.25C304.24,-222.26 339.96,-238.44 365.19,-249.86"/>
<polygon fill="#000000" fill-opacity="0.466667" stroke="#000000" stroke-width="2" stroke-opacity="0.466667" points="364.07,-253.2 374.62,-254.13 366.96,-246.82 364.07,-253.2"/>
</g>
<!-- node_modules/react&#45;dom/cjs/react&#45;dom.production.min.js -->
<g id="node5" class="node">
<title>node_modules/react&#45;dom/cjs/react&#45;dom.production.min.js</title>
<g id="a_node5"><a xlink:href="node_modules/react-dom/cjs/react-dom.production.min.js" xlink:title="react&#45;dom.production.min.js">
<path fill="#c40b0a" fill-opacity="0.101961" stroke="black" d="M328,-182.13C328,-182.13 194,-182.13 194,-182.13 191,-182.13 188,-179.13 188,-176.13 188,-176.13 188,-170.13 188,-170.13 188,-167.13 191,-164.13 194,-164.13 194,-164.13 328,-164.13 328,-164.13 331,-164.13 334,-167.13 334,-170.13 334,-170.13 334,-176.13 334,-176.13 334,-179.13 331,-182.13 328,-182.13"/>
<text text-anchor="middle" x="261" y="-170.93" font-family="Helvetica,sans-Serif" font-size="9.00" fill="#c40b0a">react&#45;dom.production.min.js</text>
</a>
</g>
</g>
<!-- node_modules/react&#45;dom/cjs/react&#45;dom.production.min.js&#45;&gt;node_modules/object&#45;assign/index.js -->
<g id="edge7" class="edge">
<title>node_modules/react&#45;dom/cjs/react&#45;dom.production.min.js&#45;&gt;node_modules/object&#45;assign/index.js</title>
<path fill="none" stroke="#000000" stroke-width="2" stroke-opacity="0.466667" d="M334.49,-170.81C428.69,-167.78 589.6,-162.61 661.47,-160.31"/>
<polygon fill="#000000" fill-opacity="0.466667" stroke="#000000" stroke-width="2" stroke-opacity="0.466667" points="661.93,-163.79 671.81,-159.98 661.7,-156.8 661.93,-163.79"/>
</g>
<!-- node_modules/react&#45;dom/cjs/react&#45;dom.production.min.js&#45;&gt;node_modules/react/index.js -->
<g id="edge8" class="edge">
<title>node_modules/react&#45;dom/cjs/react&#45;dom.production.min.js&#45;&gt;node_modules/react/index.js</title>
<path fill="none" stroke="#000000" stroke-width="2" stroke-opacity="0.466667" d="M286.92,-164.11C307.43,-156.68 336.73,-146.06 359.57,-137.79"/>
<polygon fill="#000000" fill-opacity="0.466667" stroke="#000000" stroke-width="2" stroke-opacity="0.466667" points="361.03,-140.98 369.24,-134.29 358.64,-134.4 361.03,-140.98"/>
</g>
<!-- node_modules/react&#45;dom/cjs/react&#45;dom.production.min.js&#45;&gt;node_modules/scheduler/index.js -->
<g id="edge9" class="edge">
<title>node_modules/react&#45;dom/cjs/react&#45;dom.production.min.js&#45;&gt;node_modules/scheduler/index.js</title>
<path fill="none" stroke="#000000" stroke-width="2" stroke-opacity="0.466667" d="M322.38,-182.14C331.68,-183.9 341.13,-185.9 350,-188.13 353.34,-188.98 356.79,-189.95 360.23,-190.99"/>
<polygon fill="#000000" fill-opacity="0.466667" stroke="#000000" stroke-width="2" stroke-opacity="0.466667" points="359.17,-194.32 369.76,-194.03 361.29,-187.65 359.17,-194.32"/>
</g>
<!-- node_modules/react&#45;dom/index.js -->
<g id="node6" class="node">
<title>node_modules/react&#45;dom/index.js</title>
<g id="a_node6"><a xlink:href="node_modules/react-dom/index.js" xlink:title="index.js">
<path fill="#c40b0a" fill-opacity="0.101961" stroke="black" d="M148.5,-212.13C148.5,-212.13 106.5,-212.13 106.5,-212.13 103.5,-212.13 100.5,-209.13 100.5,-206.13 100.5,-206.13 100.5,-200.13 100.5,-200.13 100.5,-197.13 103.5,-194.13 106.5,-194.13 106.5,-194.13 148.5,-194.13 148.5,-194.13 151.5,-194.13 154.5,-197.13 154.5,-200.13 154.5,-200.13 154.5,-206.13 154.5,-206.13 154.5,-209.13 151.5,-212.13 148.5,-212.13"/>
<text text-anchor="middle" x="127.5" y="-200.93" font-family="Helvetica,sans-Serif" font-size="9.00" fill="#c40b0a">index.js</text>
</a>
</g>
</g>
<!-- node_modules/react&#45;dom/index.js&#45;&gt;node_modules/react&#45;dom/cjs/react&#45;dom.development.js -->
<g id="edge10" class="edge">
<title>node_modules/react&#45;dom/index.js&#45;&gt;node_modules/react&#45;dom/cjs/react&#45;dom.development.js</title>
<path fill="none" stroke="#000000" stroke-width="2" stroke-opacity="0.466667" d="M154.79,-203.13C163.23,-203.13 173.03,-203.13 183.2,-203.13"/>
<polygon fill="#000000" fill-opacity="0.466667" stroke="#000000" stroke-width="2" stroke-opacity="0.466667" points="183.45,-206.63 193.45,-203.13 183.45,-199.63 183.45,-206.63"/>
</g>
<!-- node_modules/react&#45;dom/index.js&#45;&gt;node_modules/react&#45;dom/cjs/react&#45;dom.production.min.js -->
<g id="edge11" class="edge">
<title>node_modules/react&#45;dom/index.js&#45;&gt;node_modules/react&#45;dom/cjs/react&#45;dom.production.min.js</title>
<path fill="none" stroke="#000000" stroke-width="2" stroke-opacity="0.466667" d="M154.57,-195C162.67,-192.62 171.67,-190.12 180,-188.13 185.72,-186.77 191.7,-185.45 197.7,-184.2"/>
<polygon fill="#000000" fill-opacity="0.466667" stroke="#000000" stroke-width="2" stroke-opacity="0.466667" points="198.66,-187.57 207.77,-182.16 197.28,-180.71 198.66,-187.57"/>
</g>
<!-- node_modules/react/cjs/react.development.js -->
<g id="node7" class="node">
<title>node_modules/react/cjs/react.development.js</title>
<g id="a_node7"><a xlink:href="node_modules/react/cjs/react.development.js" xlink:title="react.development.js">
<path fill="#c40b0a" fill-opacity="0.101961" stroke="black" d="M580.5,-78.13C580.5,-78.13 480.5,-78.13 480.5,-78.13 477.5,-78.13 474.5,-75.13 474.5,-72.13 474.5,-72.13 474.5,-66.13 474.5,-66.13 474.5,-63.13 477.5,-60.13 480.5,-60.13 480.5,-60.13 580.5,-60.13 580.5,-60.13 583.5,-60.13 586.5,-63.13 586.5,-66.13 586.5,-66.13 586.5,-72.13 586.5,-72.13 586.5,-75.13 583.5,-78.13 580.5,-78.13"/>
<text text-anchor="middle" x="530.5" y="-66.93" font-family="Helvetica,sans-Serif" font-size="9.00" fill="#c40b0a">react.development.js</text>
</a>
</g>
</g>
<!-- node_modules/react/cjs/react.development.js&#45;&gt;node_modules/object&#45;assign/index.js -->
<g id="edge12" class="edge">
<title>node_modules/react/cjs/react.development.js&#45;&gt;node_modules/object&#45;assign/index.js</title>
<path fill="none" stroke="#000000" stroke-width="2" stroke-opacity="0.466667" d="M586.51,-64.59C604.5,-66.05 623.15,-71.19 636,-84.13 649.91,-98.14 630.85,-111.85 642,-128.13 647.15,-135.66 654.76,-141.55 662.72,-146.08"/>
<polygon fill="#000000" fill-opacity="0.466667" stroke="#000000" stroke-width="2" stroke-opacity="0.466667" points="661.24,-149.25 671.74,-150.62 664.39,-143 661.24,-149.25"/>
</g>
<!-- node_modules/react/cjs/react.development.js&#45;&gt;node_modules/prop&#45;types/checkPropTypes.js -->
<g id="edge13" class="edge">
<title>node_modules/react/cjs/react.development.js&#45;&gt;node_modules/prop&#45;types/checkPropTypes.js</title>
<path fill="none" stroke="#000000" stroke-width="2" stroke-opacity="0.466667" d="M586.94,-67.47C603.79,-66.96 622.34,-66.41 639.39,-65.89"/>
<polygon fill="#000000" fill-opacity="0.466667" stroke="#000000" stroke-width="2" stroke-opacity="0.466667" points="639.89,-69.38 649.78,-65.58 639.68,-62.38 639.89,-69.38"/>
</g>
<!-- node_modules/react/cjs/react.production.min.js -->
<g id="node8" class="node">
<title>node_modules/react/cjs/react.production.min.js</title>
<g id="a_node8"><a xlink:href="node_modules/react/cjs/react.production.min.js" xlink:title="react.production.min.js">
<path fill="#c40b0a" fill-opacity="0.101961" stroke="black" d="M585.5,-108.13C585.5,-108.13 475.5,-108.13 475.5,-108.13 472.5,-108.13 469.5,-105.13 469.5,-102.13 469.5,-102.13 469.5,-96.13 469.5,-96.13 469.5,-93.13 472.5,-90.13 475.5,-90.13 475.5,-90.13 585.5,-90.13 585.5,-90.13 588.5,-90.13 591.5,-93.13 591.5,-96.13 591.5,-96.13 591.5,-102.13 591.5,-102.13 591.5,-105.13 588.5,-108.13 585.5,-108.13"/>
<text text-anchor="middle" x="530.5" y="-96.93" font-family="Helvetica,sans-Serif" font-size="9.00" fill="#c40b0a">react.production.min.js</text>
</a>
</g>
</g>
<!-- node_modules/react/cjs/react.production.min.js&#45;&gt;node_modules/object&#45;assign/index.js -->
<g id="edge14" class="edge">
<title>node_modules/react/cjs/react.production.min.js&#45;&gt;node_modules/object&#45;assign/index.js</title>
<path fill="none" stroke="#000000" stroke-width="2" stroke-opacity="0.466667" d="M556.79,-108.25C585.19,-118.48 631.46,-135.16 663.25,-146.61"/>
<polygon fill="#000000" fill-opacity="0.466667" stroke="#000000" stroke-width="2" stroke-opacity="0.466667" points="662.43,-150.03 673.02,-150.13 664.8,-143.45 662.43,-150.03"/>
</g>
<!-- node_modules/react/index.js&#45;&gt;node_modules/react/cjs/react.development.js -->
<g id="edge15" class="edge">
<title>node_modules/react/index.js&#45;&gt;node_modules/react/cjs/react.development.js</title>
<path fill="none" stroke="#000000" stroke-width="2" stroke-opacity="0.466667" d="M401.94,-115.95C408.16,-106.33 419.28,-91.61 433,-84.13 442.58,-78.92 453.43,-75.38 464.32,-73"/>
<polygon fill="#000000" fill-opacity="0.466667" stroke="#000000" stroke-width="2" stroke-opacity="0.466667" points="465.11,-76.41 474.29,-71.12 463.81,-69.53 465.11,-76.41"/>
</g>
<!-- node_modules/react/index.js&#45;&gt;node_modules/react/cjs/react.production.min.js -->
<g id="edge16" class="edge">
<title>node_modules/react/index.js&#45;&gt;node_modules/react/cjs/react.production.min.js</title>
<path fill="none" stroke="#000000" stroke-width="2" stroke-opacity="0.466667" d="M422.78,-120C437.21,-117.18 455.68,-113.57 473.19,-110.14"/>
<polygon fill="#000000" fill-opacity="0.466667" stroke="#000000" stroke-width="2" stroke-opacity="0.466667" points="474.21,-113.51 483.35,-108.16 472.86,-106.64 474.21,-113.51"/>
</g>
<!-- node_modules/scheduler/cjs/scheduler&#45;tracing.development.js -->
<g id="node10" class="node">
<title>node_modules/scheduler/cjs/scheduler&#45;tracing.development.js</title>
<g id="a_node10"><a xlink:href="node_modules/scheduler/cjs/scheduler-tracing.development.js" xlink:title="scheduler&#45;tracing.development.js">
<path fill="#c40b0a" fill-opacity="0.101961" stroke="black" d="M608.5,-302.13C608.5,-302.13 452.5,-302.13 452.5,-302.13 449.5,-302.13 446.5,-299.13 446.5,-296.13 446.5,-296.13 446.5,-290.13 446.5,-290.13 446.5,-287.13 449.5,-284.13 452.5,-284.13 452.5,-284.13 608.5,-284.13 608.5,-284.13 611.5,-284.13 614.5,-287.13 614.5,-290.13 614.5,-290.13 614.5,-296.13 614.5,-296.13 614.5,-299.13 611.5,-302.13 608.5,-302.13"/>
<text text-anchor="middle" x="530.5" y="-290.93" font-family="Helvetica,sans-Serif" font-size="9.00" fill="#c40b0a">scheduler&#45;tracing.development.js</text>
</a>
</g>
</g>
<!-- node_modules/scheduler/cjs/scheduler&#45;tracing.production.min.js -->
<g id="node11" class="node">
<title>node_modules/scheduler/cjs/scheduler&#45;tracing.production.min.js</title>
<g id="a_node11"><a xlink:href="node_modules/scheduler/cjs/scheduler-tracing.production.min.js" xlink:title="scheduler&#45;tracing.production.min.js">
<path fill="#c40b0a" fill-opacity="0.101961" stroke="black" d="M614,-272.13C614,-272.13 447,-272.13 447,-272.13 444,-272.13 441,-269.13 441,-266.13 441,-266.13 441,-260.13 441,-260.13 441,-257.13 444,-254.13 447,-254.13 447,-254.13 614,-254.13 614,-254.13 617,-254.13 620,-257.13 620,-260.13 620,-260.13 620,-266.13 620,-266.13 620,-269.13 617,-272.13 614,-272.13"/>
<text text-anchor="middle" x="530.5" y="-260.93" font-family="Helvetica,sans-Serif" font-size="9.00" fill="#c40b0a">scheduler&#45;tracing.production.min.js</text>
</a>
</g>
</g>
<!-- node_modules/scheduler/cjs/scheduler.development.js -->
<g id="node12" class="node">
<title>node_modules/scheduler/cjs/scheduler.development.js</title>
<g id="a_node12"><a xlink:href="node_modules/scheduler/cjs/scheduler.development.js" xlink:title="scheduler.development.js">
<path fill="#c40b0a" fill-opacity="0.101961" stroke="black" d="M590,-242.13C590,-242.13 471,-242.13 471,-242.13 468,-242.13 465,-239.13 465,-236.13 465,-236.13 465,-230.13 465,-230.13 465,-227.13 468,-224.13 471,-224.13 471,-224.13 590,-224.13 590,-224.13 593,-224.13 596,-227.13 596,-230.13 596,-230.13 596,-236.13 596,-236.13 596,-239.13 593,-242.13 590,-242.13"/>
<text text-anchor="middle" x="530.5" y="-230.93" font-family="Helvetica,sans-Serif" font-size="9.00" fill="#c40b0a">scheduler.development.js</text>
</a>
</g>
</g>
<!-- node_modules/scheduler/cjs/scheduler.production.min.js -->
<g id="node13" class="node">
<title>node_modules/scheduler/cjs/scheduler.production.min.js</title>
<g id="a_node13"><a xlink:href="node_modules/scheduler/cjs/scheduler.production.min.js" xlink:title="scheduler.production.min.js">
<path fill="#c40b0a" fill-opacity="0.101961" stroke="black" d="M595.5,-212.13C595.5,-212.13 465.5,-212.13 465.5,-212.13 462.5,-212.13 459.5,-209.13 459.5,-206.13 459.5,-206.13 459.5,-200.13 459.5,-200.13 459.5,-197.13 462.5,-194.13 465.5,-194.13 465.5,-194.13 595.5,-194.13 595.5,-194.13 598.5,-194.13 601.5,-197.13 601.5,-200.13 601.5,-200.13 601.5,-206.13 601.5,-206.13 601.5,-209.13 598.5,-212.13 595.5,-212.13"/>
<text text-anchor="middle" x="530.5" y="-200.93" font-family="Helvetica,sans-Serif" font-size="9.00" fill="#c40b0a">scheduler.production.min.js</text>
</a>
</g>
</g>
<!-- node_modules/scheduler/index.js&#45;&gt;node_modules/scheduler/cjs/scheduler.development.js -->
<g id="edge17" class="edge">
<title>node_modules/scheduler/index.js&#45;&gt;node_modules/scheduler/cjs/scheduler.development.js</title>
<path fill="none" stroke="#000000" stroke-width="2" stroke-opacity="0.466667" d="M416.28,-212.25C421.62,-214.44 427.46,-216.59 433,-218.13 440.1,-220.11 447.57,-221.85 455.07,-223.38"/>
<polygon fill="#000000" fill-opacity="0.466667" stroke="#000000" stroke-width="2" stroke-opacity="0.466667" points="454.46,-226.82 464.94,-225.26 455.77,-219.95 454.46,-226.82"/>
</g>
<!-- node_modules/scheduler/index.js&#45;&gt;node_modules/scheduler/cjs/scheduler.production.min.js -->
<g id="edge18" class="edge">
<title>node_modules/scheduler/index.js&#45;&gt;node_modules/scheduler/cjs/scheduler.production.min.js</title>
<path fill="none" stroke="#000000" stroke-width="2" stroke-opacity="0.466667" d="M422.78,-203.13C430.7,-203.13 439.84,-203.13 449.37,-203.13"/>
<polygon fill="#000000" fill-opacity="0.466667" stroke="#000000" stroke-width="2" stroke-opacity="0.466667" points="449.41,-206.63 459.41,-203.13 449.41,-199.63 449.41,-206.63"/>
</g>
<!-- node_modules/scheduler/tracing.js&#45;&gt;node_modules/scheduler/cjs/scheduler&#45;tracing.development.js -->
<g id="edge19" class="edge">
<title>node_modules/scheduler/tracing.js&#45;&gt;node_modules/scheduler/cjs/scheduler&#45;tracing.development.js</title>
<path fill="none" stroke="#000000" stroke-width="2" stroke-opacity="0.466667" d="M416.28,-272.25C421.62,-274.44 427.46,-276.59 433,-278.13 438.15,-279.57 443.5,-280.88 448.92,-282.08"/>
<polygon fill="#000000" fill-opacity="0.466667" stroke="#000000" stroke-width="2" stroke-opacity="0.466667" points="448.23,-285.51 458.73,-284.1 449.64,-278.65 448.23,-285.51"/>
</g>
<!-- node_modules/scheduler/tracing.js&#45;&gt;node_modules/scheduler/cjs/scheduler&#45;tracing.production.min.js -->
<g id="edge20" class="edge">
<title>node_modules/scheduler/tracing.js&#45;&gt;node_modules/scheduler/cjs/scheduler&#45;tracing.production.min.js</title>
<path fill="none" stroke="#000000" stroke-width="2" stroke-opacity="0.466667" d="M425.03,-263.13C426.86,-263.13 428.75,-263.13 430.69,-263.13"/>
<polygon fill="#000000" fill-opacity="0.466667" stroke="#000000" stroke-width="2" stroke-opacity="0.466667" points="430.74,-266.63 440.74,-263.13 430.74,-259.63 430.74,-266.63"/>
</g>
<!-- src/App.css -->
<g id="node16" class="node">
<title>src/App.css</title>
<g id="a_node16"><a xlink:href="src/App.css" xlink:title="App.css">
<path fill="#ffffcc" stroke="black" d="M282,-454.13C282,-454.13 240,-454.13 240,-454.13 237,-454.13 234,-451.13 234,-448.13 234,-448.13 234,-442.13 234,-442.13 234,-439.13 237,-436.13 240,-436.13 240,-436.13 282,-436.13 282,-436.13 285,-436.13 288,-439.13 288,-442.13 288,-442.13 288,-448.13 288,-448.13 288,-451.13 285,-454.13 282,-454.13"/>
<text text-anchor="middle" x="261" y="-442.93" font-family="Helvetica,sans-Serif" font-size="9.00">App.css</text>
</a>
</g>
</g>
<!-- src/App.js -->
<g id="node17" class="node">
<title>src/App.js</title>
<g id="a_node17"><a xlink:href="src/App.js" xlink:title="App.js">
<path fill="#ffffcc" stroke="black" d="M148.5,-484.13C148.5,-484.13 106.5,-484.13 106.5,-484.13 103.5,-484.13 100.5,-481.13 100.5,-478.13 100.5,-478.13 100.5,-472.13 100.5,-472.13 100.5,-469.13 103.5,-466.13 106.5,-466.13 106.5,-466.13 148.5,-466.13 148.5,-466.13 151.5,-466.13 154.5,-469.13 154.5,-472.13 154.5,-472.13 154.5,-478.13 154.5,-478.13 154.5,-481.13 151.5,-484.13 148.5,-484.13"/>
<text text-anchor="middle" x="127.5" y="-472.93" font-family="Helvetica,sans-Serif" font-size="9.00">App.js</text>
</a>
</g>
</g>
<!-- src/App.js&#45;&gt;node_modules/react/index.js -->
<g id="edge23" class="edge">
<title>src/App.js&#45;&gt;node_modules/react/index.js</title>
<path fill="none" stroke="#000000" stroke-width="2" stroke-opacity="0.466667" d="M154.83,-470.57C161.17,-468.35 167.43,-465.05 172,-460.13 181.4,-450.03 173.43,-442.27 180,-430.13 233.82,-330.8 303.25,-343.99 350,-241.13 362.23,-214.23 347.16,-202.62 358,-175.13 362.83,-162.89 371.39,-150.91 379.01,-141.75"/>
<polygon fill="#000000" fill-opacity="0.466667" stroke="#000000" stroke-width="2" stroke-opacity="0.466667" points="381.67,-144.04 385.61,-134.21 376.4,-139.43 381.67,-144.04"/>
</g>
<!-- src/App.js&#45;&gt;src/App.css -->
<g id="edge21" class="edge">
<title>src/App.js&#45;&gt;src/App.css</title>
<path fill="none" stroke="#000000" stroke-width="2" stroke-opacity="0.466667" d="M154.57,-467C162.67,-464.62 171.67,-462.12 180,-460.13 194.24,-456.73 210.05,-453.63 223.84,-451.14"/>
<polygon fill="#000000" fill-opacity="0.466667" stroke="#000000" stroke-width="2" stroke-opacity="0.466667" points="224.68,-454.54 233.92,-449.36 223.47,-447.65 224.68,-454.54"/>
</g>
<!-- src/logo.svg -->
<g id="node20" class="node">
<title>src/logo.svg</title>
<g id="a_node20"><a xlink:href="src/logo.svg" xlink:title="logo.svg">
<path fill="#ffffcc" stroke="black" d="M282,-484.13C282,-484.13 240,-484.13 240,-484.13 237,-484.13 234,-481.13 234,-478.13 234,-478.13 234,-472.13 234,-472.13 234,-469.13 237,-466.13 240,-466.13 240,-466.13 282,-466.13 282,-466.13 285,-466.13 288,-469.13 288,-472.13 288,-472.13 288,-478.13 288,-478.13 288,-481.13 285,-484.13 282,-484.13"/>
<text text-anchor="middle" x="261" y="-472.93" font-family="Helvetica,sans-Serif" font-size="9.00">logo.svg</text>
</a>
</g>
</g>
<!-- src/App.js&#45;&gt;src/logo.svg -->
<g id="edge22" class="edge">
<title>src/App.js&#45;&gt;src/logo.svg</title>
<path fill="none" stroke="#000000" stroke-width="2" stroke-opacity="0.466667" d="M154.79,-475.13C174.5,-475.13 201.72,-475.13 223.53,-475.13"/>
<polygon fill="#000000" fill-opacity="0.466667" stroke="#000000" stroke-width="2" stroke-opacity="0.466667" points="223.75,-478.63 233.75,-475.13 223.75,-471.63 223.75,-478.63"/>
</g>
<!-- src/index.css -->
<g id="node18" class="node">
<title>src/index.css</title>
<g id="a_node18"><a xlink:href="src/index.css" xlink:title="index.css">
<path fill="#ffffcc" stroke="black" d="M151,-424.13C151,-424.13 104,-424.13 104,-424.13 101,-424.13 98,-421.13 98,-418.13 98,-418.13 98,-412.13 98,-412.13 98,-409.13 101,-406.13 104,-406.13 104,-406.13 151,-406.13 151,-406.13 154,-406.13 157,-409.13 157,-412.13 157,-412.13 157,-418.13 157,-418.13 157,-421.13 154,-424.13 151,-424.13"/>
<text text-anchor="middle" x="127.5" y="-412.93" font-family="Helvetica,sans-Serif" font-size="9.00">index.css</text>
</a>
</g>
</g>
<!-- src/index.js -->
<g id="node19" class="node">
<title>src/index.js</title>
<g id="a_node19"><a xlink:href="src/index.js" xlink:title="index.js">
<path fill="#ffffcc" stroke="black" d="M64,-424.13C64,-424.13 22,-424.13 22,-424.13 19,-424.13 16,-421.13 16,-418.13 16,-418.13 16,-412.13 16,-412.13 16,-409.13 19,-406.13 22,-406.13 22,-406.13 64,-406.13 64,-406.13 67,-406.13 70,-409.13 70,-412.13 70,-412.13 70,-418.13 70,-418.13 70,-421.13 67,-424.13 64,-424.13"/>
<text text-anchor="middle" x="43" y="-412.93" font-family="Helvetica,sans-Serif" font-size="9.00">index.js</text>
</a>
</g>
</g>
<!-- src/index.js&#45;&gt;node_modules/react&#45;dom/index.js -->
<g id="edge28" class="edge">
<title>src/index.js&#45;&gt;node_modules/react&#45;dom/index.js</title>
<path fill="none" stroke="#000000" stroke-width="2" stroke-opacity="0.466667" d="M47.54,-406.02C60.02,-373.96 102.09,-265.85 119.19,-221.93"/>
<polygon fill="#000000" fill-opacity="0.466667" stroke="#000000" stroke-width="2" stroke-opacity="0.466667" points="122.51,-223.04 122.88,-212.45 115.99,-220.5 122.51,-223.04"/>
</g>
<!-- src/index.js&#45;&gt;node_modules/react/index.js -->
<g id="edge27" class="edge">
<title>src/index.js&#45;&gt;node_modules/react/index.js</title>
<path fill="none" stroke="#000000" stroke-width="2" stroke-opacity="0.466667" d="M43.86,-406.09C43.39,-363.26 43.77,-181.37 83,-145.13 158.76,-75.16 294.04,-98.17 358.47,-114.59"/>
<polygon fill="#000000" fill-opacity="0.466667" stroke="#000000" stroke-width="2" stroke-opacity="0.466667" points="357.62,-117.98 368.18,-117.15 359.4,-111.22 357.62,-117.98"/>
</g>
<!-- src/index.js&#45;&gt;src/App.js -->
<g id="edge24" class="edge">
<title>src/index.js&#45;&gt;src/App.js</title>
<path fill="none" stroke="#000000" stroke-width="2" stroke-opacity="0.466667" d="M49.8,-424.35C56.6,-434.46 68.78,-450.52 83,-460.13 85.42,-461.77 88.04,-463.24 90.74,-464.57"/>
<polygon fill="#000000" fill-opacity="0.466667" stroke="#000000" stroke-width="2" stroke-opacity="0.466667" points="89.57,-467.87 100.14,-468.52 92.28,-461.42 89.57,-467.87"/>
</g>
<!-- src/index.js&#45;&gt;src/index.css -->
<g id="edge25" class="edge">
<title>src/index.js&#45;&gt;src/index.css</title>
<path fill="none" stroke="#000000" stroke-width="2" stroke-opacity="0.466667" d="M70.1,-415.13C75.79,-415.13 81.92,-415.13 87.97,-415.13"/>
<polygon fill="#000000" fill-opacity="0.466667" stroke="#000000" stroke-width="2" stroke-opacity="0.466667" points="87.99,-418.63 97.99,-415.13 87.99,-411.63 87.99,-418.63"/>
</g>
<!-- src/serviceWorker.js -->
<g id="node21" class="node">
<title>src/serviceWorker.js</title>
<g id="a_node21"><a xlink:href="src/serviceWorker.js" xlink:title="serviceWorker.js">
<path fill="#ffffcc" stroke="black" d="M166,-454.13C166,-454.13 89,-454.13 89,-454.13 86,-454.13 83,-451.13 83,-448.13 83,-448.13 83,-442.13 83,-442.13 83,-439.13 86,-436.13 89,-436.13 89,-436.13 166,-436.13 166,-436.13 169,-436.13 172,-439.13 172,-442.13 172,-442.13 172,-448.13 172,-448.13 172,-451.13 169,-454.13 166,-454.13"/>
<text text-anchor="middle" x="127.5" y="-442.93" font-family="Helvetica,sans-Serif" font-size="9.00">serviceWorker.js</text>
</a>
</g>
</g>
<!-- src/index.js&#45;&gt;src/serviceWorker.js -->
<g id="edge26" class="edge">
<title>src/index.js&#45;&gt;src/serviceWorker.js</title>
<path fill="none" stroke="#000000" stroke-width="2" stroke-opacity="0.466667" d="M67.05,-424.15C72.28,-426.16 77.82,-428.25 83,-430.13 85.36,-431 87.81,-431.87 90.27,-432.75"/>
<polygon fill="#000000" fill-opacity="0.466667" stroke="#000000" stroke-width="2" stroke-opacity="0.466667" points="89.17,-436.07 99.76,-436.08 91.48,-429.47 89.17,-436.07"/>
</g>
</g>
</svg>
