<?xml version='1.0' encoding='utf-8'?>
<svg xmlns="http://www.w3.org/2000/svg" viewBox="0 0 159.5 68.04"><defs><style>.cls-1{fill:#9d9d9c;}.cls-2{fill:#e83b49;}.cls-3{fill:#fff;}.cls-4{opacity:0.75;}.cls-5{fill:#ffed00;}.cls-6{fill:#1d1d1b;}</style></defs><title>Element 6</title><g id="Ebene_2" data-name="Ebene 2"><g id="Ebene_5" data-name="Ebene 5"><path class="cls-1" d="M36.46,63a20.07,20.07,0,0,0,2.39-6.3,2.7,2.7,0,0,0-.25-1.93,2.54,2.54,0,0,0-1.5-1.14A2.5,2.5,0,0,0,34,55.39,18.11,18.11,0,0,1,32.94,59l.25-.6a17.14,17.14,0,0,1-1,2.1,2.64,2.64,0,0,0-.25,1.93,2.5,2.5,0,0,0,4.57.59Z"/><path class="cls-1" d="M119.71,64.36c2.23.15,4.45.28,6.68.45a33.83,33.83,0,0,1,5.87,1.3,33.58,33.58,0,0,0,6.32.76,16.56,16.56,0,0,1,5.51.88,2.58,2.58,0,0,0,3.42-.89c.62-1,.36-2.9-.89-3.42A20.68,20.68,0,0,0,139.89,62a37,37,0,0,1-6.3-.66,41,41,0,0,0-6.77-1.44c-2.37-.21-4.74-.33-7.11-.49a2.52,2.52,0,0,0-2.5,2.5,2.56,2.56,0,0,0,2.5,2.5Z"/><path class="cls-1" d="M143.74,67.32a7.15,7.15,0,0,0,9-9.14,2.72,2.72,0,0,0-1.15-1.49,2.56,2.56,0,0,0-1.93-.26,2.53,2.53,0,0,0-1.49,1.15,2.43,2.43,0,0,0-.25,1.93,5.37,5.37,0,0,1,.26,1.05l-.09-.67a4.83,4.83,0,0,1,0,1.26l.09-.66a5,5,0,0,1-.33,1.21l.25-.59a4.63,4.63,0,0,1-.58,1l.39-.51a4.08,4.08,0,0,1-.83.83l.51-.39a4.85,4.85,0,0,1-1,.59l.59-.26a5.06,5.06,0,0,1-1.21.34l.66-.09a5.31,5.31,0,0,1-1.26,0l.67.09a4.48,4.48,0,0,1-1-.23,2.5,2.5,0,0,0-2.83,3.67,2.82,2.82,0,0,0,1.5,1.15Z"/><path class="cls-1" d="M149.37,60.85a5.37,5.37,0,0,0,2.81-.13,6.29,6.29,0,0,0,2.33-1.42,7.24,7.24,0,0,0,2-4.21c.42-2.86.06-6.54-2.85-8a2.5,2.5,0,1,0-2.52,4.32c.08,0,.18.11.26.14.25.09-.45-.42-.18-.14a2,2,0,0,0,.21.2c.22.17-.34-.51-.14-.18.08.13.28.37.29.52,0-.09-.24-.61-.1-.2l.09.3a2.45,2.45,0,0,0,.13.61c-.06-.08-.08-.67,0-.22,0,.1,0,.21,0,.31a12.72,12.72,0,0,1,0,1.38c0,.35,0-.12,0-.21,0,.14,0,.3-.08.44a6.05,6.05,0,0,1-.2.73c0,.09-.07.18-.1.28.17-.61.11-.26,0-.06l-.15.26-.06.09c.24-.34,0,0-.08.06s-.41.33-.07.09,0,0-.08.05l-.31.16c-.25.15.56-.16.15-.07l-.33.09c-.28.07.61,0,.19,0-.2,0-.64-.1.11,0a2.67,2.67,0,0,0-1.92.25,2.5,2.5,0,0,0,.6,4.57Z"/><path class="cls-2" d="M49.65,12.74A199.7,199.7,0,0,1,77.5,10.5c8.28-.19,16.73-.62,25,.22s16.14,3,24.1,4.85l26.68,6.12c6.26,1.44,8.93-8.2,2.65-9.64C138.35,8,120.45,2.46,102.48.72,93.57-.15,84.48.3,75.55.55A210.17,210.17,0,0,0,47,3.1c-6.33,1.05-3.65,10.69,2.66,9.64Z"/><path class="cls-2" d="M44.88,21.34c35.92-3.94,72.73-2.11,107.77,6.77,6.24,1.58,8.9-8.06,2.65-9.64C119.43,9.38,81.66,7.3,44.88,11.34c-6.32.69-6.4,10.7,0,10Z"/><path class="cls-2" d="M45.67,30.23c8.67-3.23,18-2.7,27.07-2.8,8.38-.1,16.78-.38,25.14.26,8.65.67,17.26,2,25.86,3.09,9.57,1.22,19.7,1.68,28.93,4.55,6.16,1.92,8.8-7.73,2.66-9.64-9.47-3-19.83-3.41-29.64-4.66-9.25-1.18-18.51-2.62-27.81-3.34-8.95-.68-18-.34-26.93-.24-9.4.1-19-.19-27.94,3.14-6,2.22-3.39,11.89,2.66,9.64Z"/><path class="cls-2" d="M43.18,39.1C50.75,35,59.73,35.35,68.1,35.25q14.18-.16,28.34.49a482.62,482.62,0,0,1,56,5.93c6.29,1,9-8.6,2.66-9.65a503,503,0,0,0-60.61-6.36q-15.13-.64-30.3-.35c-9,.19-18,.72-26.06,5.16-5.64,3.09-.6,11.73,5,8.63Z"/><path class="cls-2" d="M40,48.67c17.78-5.37,36.26-5.89,54.69-5,9,.46,18,1.23,27,2,9.69.78,19.43,1.28,28.9,3.63,6.25,1.56,8.91-8.08,2.66-9.64-9.73-2.42-19.75-3-29.72-3.84-9.59-.78-19.18-1.62-28.8-2.11-19.27-1-38.76-.3-57.35,5.32C31.2,40.89,33.82,50.54,40,48.67Z"/><path class="cls-2" d="M39.05,55.22c17.64-5.74,36.35-4.69,54.62-3.84,9.22.44,18.42,1,27.61,1.87,8.93.81,18,1.25,26.38,4.64,6,2.41,8.56-7.26,2.66-9.64-8.59-3.47-17.94-4-27.07-4.81q-14.76-1.38-29.58-2.06c-19.14-.89-38.8-1.81-57.28,4.2-6.09,2-3.48,11.64,2.66,9.64Z"/><path class="cls-2" d="M42,53.18c7.67-3.41,17.79-1.41,25.79-.3,8.73,1.22,17.37,3,26.05,4.47a241.23,241.23,0,0,0,25.42,3.23c8.43.55,16.76.82,24.91,3.26,6.18,1.85,8.82-7.8,2.66-9.64-9-2.69-18.28-3-27.57-3.62a255.24,255.24,0,0,1-28.34-3.86c-9.11-1.64-18.21-3.34-27.41-4.38s-18-1.59-26.56,2.21C31,47.16,36.12,55.78,42,53.18Z"/><path class="cls-2" d="M39.67,54.11c30.58-.18,61.38,3.87,91.83,6.36,6.41.53,6.38-9.47,0-10C101.05,48,70.25,43.93,39.67,44.11c-6.43,0-6.45,10,0,10Z"/><path class="cls-3" d="M59.06,15.27c.47,5.51,1,11,1.18,16.57s0,11.07-.07,16.6c-.06,3.22,4.94,3.22,5,0,.1-5.53.26-11.07.07-16.6s-.71-11.06-1.18-16.57a2.56,2.56,0,0,0-2.5-2.5,2.53,2.53,0,0,0-2.5,2.5Z"/><path class="cls-3" d="M46.31,16l31.77-4a2.58,2.58,0,0,0,2.5-2.5,2.51,2.51,0,0,0-2.5-2.5L46.31,11a2.57,2.57,0,0,0-2.5,2.5,2.52,2.52,0,0,0,2.5,2.5Z"/><path class="cls-3" d="M83.68,21.27c-2.82-1-6.17-.39-8.84.79a12.59,12.59,0,0,0-6,6.23c-2.63,5.61-3.32,13.83,1.48,18.55,4.46,4.38,12,4.94,17.25,1.61a12.14,12.14,0,0,0,5.21-7.34,22.28,22.28,0,0,0,.49-9.19A11.81,11.81,0,0,0,91,27.2a22,22,0,0,0-3.44-4c-2.44-2-6.13-3.32-9.16-2a2.5,2.5,0,0,0-.89,3.42,2.57,2.57,0,0,0,3.42.9c-.35.14,0,.06.15.1.44.15.92.21,1.36.36a5.72,5.72,0,0,1,2.14,1.26,13.93,13.93,0,0,1,3.63,5.17,14.65,14.65,0,0,1-.06,6.32,8.05,8.05,0,0,1-2.59,5,9.44,9.44,0,0,1-11.16.08c-3.43-2.64-3-8.17-1.76-11.81a9.12,9.12,0,0,1,3.95-5.28,7.35,7.35,0,0,1,5.72-.65,2.52,2.52,0,0,0,3.07-1.75,2.55,2.55,0,0,0-1.74-3.07Z"/><path class="cls-3" d="M94.84,8.81a155.12,155.12,0,0,1,3.12,42c-.2,3.21,4.8,3.2,5,0A160.11,160.11,0,0,0,99.67,7.48c-.68-3.15-5.5-1.82-4.83,1.33Z"/><path class="cls-3" d="M90.81,11.36c5-1.73,9.86-2.69,15-.91a19,19,0,0,1,10,8.15c5,8.43,2.35,19.7-5.23,25.63A22.58,22.58,0,0,1,95.71,48.9c-3.22-.14-3.21,4.86,0,5,11.76.49,23.13-7,26.51-18.39A25.29,25.29,0,0,0,121.1,18.1,23.87,23.87,0,0,0,100.36,4.42,31.23,31.23,0,0,0,89.48,6.54a2.57,2.57,0,0,0-1.75,3.08,2.52,2.52,0,0,0,3.08,1.74Z"/><path class="cls-3" d="M133.29,28.2c-5.9.08-10.49,5.08-11.42,10.68a23.59,23.59,0,0,0,.54,9.53c.73,3,2,5.7,4.92,7a15.31,15.31,0,0,0,9.26,1.39,12.83,12.83,0,0,0,7.16-4.72,23.43,23.43,0,0,0,3.94-8.26c.75-2.69,1.11-5.71.05-8.37-1.25-3.15-4.37-5.3-7.45-6.44-3.28-1.21-6.8-.85-10.18-.32a2.52,2.52,0,0,0-1.74,3.08,2.55,2.55,0,0,0,3.07,1.74c3.84-.6,8.26-.53,11,2.69,1.14,1.32,1.08,3.21.76,4.83a21.65,21.65,0,0,1-2.08,6,10.3,10.3,0,0,1-4.07,4.35,7.22,7.22,0,0,1-5.66.25,8.81,8.81,0,0,1-2.63-1,3.62,3.62,0,0,1-1.14-2,21.2,21.2,0,0,1-1.06-6.74c.07-3.85,2.28-8.59,6.71-8.65,3.21-.05,3.22-5.05,0-5Z"/><path class="cls-3" d="M10.46.74,9.65,3.18s-5.23,30.09-5.2,30L.74,54.78l17.53,5,14,2.76L36.65,48,40.8,33.29l3.34-13.1L47.32,7,20.18,2.64Z"/><g class="cls-4"><path class="cls-5" d="M30.59,61.14a6.62,6.62,0,0,1,2-1l-.86-2L29.43,59.5l1.36,1.76a10.52,10.52,0,0,0,1.82-2.75c.36-.78-.25-2.06-1.27-1.66a51.47,51.47,0,0,0-5.82,2.74l1.54,1.54c1.51-2.52,3.89-4.25,6.25-5.92,1.17-.83.06-2.77-1.13-1.94l-7,4.82,1.36,1.77q3.66-3.66,6.93-7.65c.76-.93-.2-2.49-1.36-1.77-3.47,2.16-6.74,4.61-10,7.07-1.14.86,0,2.82,1.14,2A68.59,68.59,0,0,0,35.16,48.12c.74-.9-.26-2.6-1.36-1.76a69.22,69.22,0,0,1-6.42,4.45A25,25,0,0,1,24,52.5c-1,.4-2.65,1.23-3.66.57l-.26,2.06,11-4.2-.87-2.06c-2.9,1.55-5.78,3.15-8.79,4.46a29.12,29.12,0,0,0-7.54,4.13c-.89.76.07,2.15,1.1,1.88a48.13,48.13,0,0,0,12.67-5,13.49,13.49,0,0,0,3.94-4.19c1.27-1.8,2.94-3.3,4.12-5.17a22.33,22.33,0,0,0,2.25-5.76c.61-2.13,1.33-4.24,2.07-6.33,1.51-4.25,3-8.49,3.36-13a1.13,1.13,0,0,0-2.21-.3A121.89,121.89,0,0,1,38,32.41c-1.37,4.17-3.53,8-4.93,12.15A22.66,22.66,0,0,1,31,49.79a9.26,9.26,0,0,1-4.46,3.37,60,60,0,0,1-6,2c-1.09.33-2.18.64-3.28.93-.92.25-2.63,1-3.54.58v1.94a38.31,38.31,0,0,1,12.78-3l-.57-2.09-5.21,2.58c-1,.51-3.1,1.12-2.56,2.7.45,1.34,2.31,1.35,3.45,1.21,1.65-.21,3.17-1,4.83-1.12L25.61,57A4.73,4.73,0,0,0,24,60.14c-.11.8.8,1.2,1.42,1.09a9.46,9.46,0,0,0,2.74-.94c1.29-.65.15-2.6-1.14-1.94a7.76,7.76,0,0,1-2.2.71l1.43,1.08a2.39,2.39,0,0,1,.92-1.55,1.14,1.14,0,0,0-.8-1.92,15.25,15.25,0,0,0-3.27.7c-.68.2-2.54.92-3.13.36l.33.8c.05.41-.53.44.19.19a7.66,7.66,0,0,0,.86-.43l2-1L27,55.49a1.14,1.14,0,0,0-.57-2.1,41.76,41.76,0,0,0-13.92,3.32,1.13,1.13,0,0,0,0,1.94c2,1,4.46-.11,6.45-.67,2.41-.67,4.82-1.4,7.17-2.27a15.67,15.67,0,0,0,5.23-2.92,11.75,11.75,0,0,0,3-5c.75-2.16,1.42-4.3,2.35-6.39s2-4.37,2.82-6.63a106.12,106.12,0,0,0,3.8-14.57l-2.21-.3c-.36,4.22-1.79,8.23-3.2,12.2-.7,2-1.39,3.93-2,5.94a23.93,23.93,0,0,1-2,5.46,43.06,43.06,0,0,1-3.68,4.64c-1.2,1.56-2.05,3.22-3.79,4.28a45.72,45.72,0,0,1-12.13,4.73l1.09,1.88c2.17-1.84,4.9-2.81,7.47-3.94,2.88-1.27,5.63-2.81,8.41-4.29,1.1-.59.34-2.52-.87-2.06l-11,4.2a1.14,1.14,0,0,0-.27,2c2.29,1.51,5.69-.35,7.81-1.43a54.65,54.65,0,0,0,7.93-5.28l-1.36-1.77a66,66,0,0,1-11.43,11l1.14,2c3.26-2.46,6.53-4.91,10-7.08l-1.37-1.76q-3.28,4-6.93,7.65c-.87.88.29,2.51,1.37,1.77l7-4.83-1.13-1.94c-2.68,1.9-5.34,3.86-7.06,6.73a1.13,1.13,0,0,0,1.54,1.53A46.37,46.37,0,0,1,31.94,59l-1.27-1.65a8.58,8.58,0,0,1-1.47,2.3c-.82.91.23,2.49,1.36,1.77L32.83,60c1-.66.39-2.48-.86-2.06a9.89,9.89,0,0,0-3,1.61c-1.14.89.46,2.47,1.6,1.59Z"/></g><g class="cls-4"><path class="cls-5" d="M34.75,49.39l1-.57-1.36-1.76c-1.61,1.48-3.62,2.81-4.07,5.1a1.15,1.15,0,0,0,1.39,1.39l1-.19-.87-2c-1.82,1.32-4,2.42-5,4.56a1.14,1.14,0,0,0,1.54,1.54l4-2.2L31,53.44a22.36,22.36,0,0,0-2.73,3.26,2.46,2.46,0,0,0-.55,1.92c.31,1,1.44,1.05,2.26.71l-1.09-1.88a8.68,8.68,0,0,0-1.86,3.17c-.29.88.6,1.52,1.39,1.38a8.11,8.11,0,0,0,2.47-.88l-1.65-1.27A11,11,0,0,1,28.82,61c-.68,1.28,1.26,2.42,1.94,1.14a16.11,16.11,0,0,0,.69-1.66c.38-1-.86-1.7-1.65-1.28a6.11,6.11,0,0,1-1.94.66l1.38,1.38A6,6,0,0,1,30.52,59c.67-.75,0-2.35-1.1-1.88-.13.05-.27.09-.4.15s-.11,0,.08,0c-.13,0-.08,0,.16.06.41.06.65.35.7.87,0,.22-.05.27,0,.15a.56.56,0,0,1,0-.12c-.07.15-.07.17,0,.06a11.38,11.38,0,0,1,.75-1.12A23.38,23.38,0,0,1,32.63,55a1.13,1.13,0,0,0-1.36-1.77l-4,2.21L28.81,57c.82-1.78,2.68-2.66,4.2-3.76a1.13,1.13,0,0,0-.87-2.06l-1,.19,1.38,1.38c.36-1.84,2.2-2.93,3.49-4.11,1-.89-.27-2.37-1.37-1.77l-1,.57c-1.27.69-.14,2.64,1.14,1.94Z"/></g><g class="cls-4"><path class="cls-5" d="M33.08,52.72,31,55.06c-.32.36-.65.72-1,1.09a1.71,1.71,0,0,0-.32,1.94,1.14,1.14,0,0,0,1.54.4L34,57l-1.54-1.54c-.49.7-1,1.38-1.49,2.11a2.18,2.18,0,0,0-.37,1.29,1.49,1.49,0,0,0,.24.77,3.1,3.1,0,0,0,.27.34c.06.07.11.19,0,0L31,59.47l0,0-.06.15c-.07.14-.13.28-.19.43l-.38.87A1.12,1.12,0,0,0,32.29,62l.7-1.59a1.9,1.9,0,0,0,.18-1.26,1.46,1.46,0,0,0-.5-.76c-.24-.16.19.44.14.44s0,.06,0,0l.09-.16.46-.65,1-1.4a1.13,1.13,0,0,0-1.54-1.54l-2.72,1.46,1.54.4-.05-.1.16.57a.34.34,0,0,1-.11.28l.21-.24.41-.46.78-.88,1.61-1.81a1.12,1.12,0,0,0-1.59-1.59Z"/></g><g class="cls-4"><path class="cls-5" d="M25.47,52.25A25.67,25.67,0,0,0,37.16,40.12a1.15,1.15,0,0,0-.41-1.54,1.12,1.12,0,0,0-1.53.4A23.7,23.7,0,0,1,24.33,50.3c-1.29.65-.16,2.59,1.14,2Z"/></g><g class="cls-4"><path class="cls-5" d="M32,53.4a18.16,18.16,0,0,0,4.54-5.63c1-2.22,1.14-4.73,2.26-6.89.66-1.29-1.28-2.43-1.94-1.14-1.11,2.15-1.32,4.56-2.21,6.78S32,50.26,30.4,51.81c-1,1,.54,2.59,1.59,1.59Z"/></g><g class="cls-4"><path class="cls-5" d="M32.87,54.68a12.47,12.47,0,0,0,3.59-4,1.13,1.13,0,0,0-2-1.13A11.67,11.67,0,0,1,33.56,51l.17-.23a10.85,10.85,0,0,1-1.94,2l.23-.18-.29.22a1.25,1.25,0,0,0-.52.67,1.15,1.15,0,0,0,.12.87,1.14,1.14,0,0,0,1.54.4Z"/></g><g class="cls-4"><path class="cls-5" d="M8.42,56.35a4.21,4.21,0,0,0,3.48.83c1.5-.19,3-.49,4.47-.78a43.35,43.35,0,0,0,8.74-2.54,1.13,1.13,0,0,0,.41-1.54A1.16,1.16,0,0,0,24,51.91a39.29,39.29,0,0,1-7.38,2.16c-1.24.25-2.48.48-3.73.69-.78.14-2.17.59-2.86,0-1.09-.94-2.69.65-1.59,1.59Z"/></g><g class="cls-4"><path class="cls-5" d="M18.56,60a34.14,34.14,0,0,0,10.12-5.13,1.17,1.17,0,0,0,.4-1.54,1.14,1.14,0,0,0-1.54-.41A32,32,0,0,1,18,57.81c-1.38.44-.79,2.61.59,2.17Z"/></g><g class="cls-4"><path class="cls-5" d="M23.94,61.42a28.23,28.23,0,0,0,6.73-4.33,1.13,1.13,0,0,0,0-1.6,1.16,1.16,0,0,0-1.59,0c-.23.21-.47.4-.71.6l-.18.14-.16.13-.12.08-.18.14c-.51.38-1,.74-1.58,1.08a26.43,26.43,0,0,1-3.35,1.82A1.13,1.13,0,0,0,22.4,61a1.15,1.15,0,0,0,1.54.4Z"/></g><path class="cls-6" d="M9.19,2.61,0,53.54c-.17.94,1.28,1.35,1.45.4Q6.05,28.47,10.63,3c.17-.94-1.27-1.34-1.44-.39Z"/><path class="cls-6" d="M46.65,6.66A563.08,563.08,0,0,1,31.58,61.1c-.3.92,1.15,1.31,1.45.4A563.08,563.08,0,0,0,48.1,7.06c.21-.94-1.24-1.34-1.45-.4Z"/><path class="cls-6" d="M.52,55.3a171.78,171.78,0,0,0,31.83,7.94c.95.14,1.36-1.3.4-1.45A171.76,171.76,0,0,1,.92,53.86C0,53.54-.39,55,.52,55.3Z"/><path class="cls-6" d="M10.5,1.46,28.71,4.85C34.62,5.94,40.52,7.07,46.5,7.74c1,.1,1-1.4,0-1.5-6-.68-11.94-1.83-17.87-2.93L10.9,0C10-.16,9.55,1.28,10.5,1.46Z"/><path class="cls-6" d="M11.91,15.26,11,18.91l-.43,1.79-.21.86-.1.43-.07.29c-.06.17-.05.19,0,0l.33-.19-.08,0h.39l0,0,.45.35,0,0,.11.38v.1l-.35.45,0,0H10.3l0,0a.77.77,0,0,0,1-.27.75.75,0,0,0-.27-1l0,0a.74.74,0,0,0-.76,0A.89.89,0,0,0,10,23.2a.84.84,0,0,0,1.25.25,1.81,1.81,0,0,0,.52-1.13L12.09,21l1.27-5.3c.22-.94-1.22-1.34-1.45-.4Z"/><path class="cls-6" d="M13,15.2l5.61,1-.52-.92a45.93,45.93,0,0,1-2.61,9.05l.92-.52q-2.28-.75-4.51-1.67a.76.76,0,0,0-.92.52.78.78,0,0,0,.53.93c1.48.61,3,1.16,4.5,1.67a.79.79,0,0,0,.93-.53,45.23,45.23,0,0,0,2.6-9,.76.76,0,0,0-.52-.93l-5.61-1C12.41,13.58,12,15,13,15.2Z"/><path class="cls-6" d="M20.92,19.83c.38,1.15.87,3,2.24,3.27s2.3-.81,2.94-1.85l-1.18.15c.87,1,1.94,1.93,3.34,1.75.85-.1,1.27-.29,2,.19a14.13,14.13,0,0,0,1.42.9,2.58,2.58,0,0,0,1.47.26c.43-.07.53-.16.94,0s.65.29,1,.38c1.53.41,3.24.06,4.69.78.86.42,1.62-.87.76-1.3a11.46,11.46,0,0,0-4.1-.76,12.59,12.59,0,0,1-2.21-.68c-.59-.16-1.12.23-1.68.08-1.08-.28-1.75-1.33-2.91-1.5-.65-.09-1.24.27-1.86.2s-1.36-.81-1.83-1.34a.76.76,0,0,0-1.18.15c-.3.49-.91,1.58-1.57.94a5.69,5.69,0,0,1-.87-2c-.3-.91-1.75-.52-1.44.4Z"/><path class="cls-6" d="M9.09,28.11a25.17,25.17,0,0,0-1.63,6.51,2.42,2.42,0,0,0,1.08,2.55,6.79,6.79,0,0,0,2.62.65c1.14.16,2.31.4,3.46.48C16,38.4,16,37,16.14,36l.39-3.5c.11-1,.42-2.18-.19-3.06s-2.11-.94-3.19-1.06L9.24,28a.75.75,0,1,0,0,1.5l2.84.3a21.62,21.62,0,0,1,2.55.29c.29.07.5.16.56.47a4.06,4.06,0,0,1-.08,1.25l-.31,2.78L14.64,36l-.07.63a1.11,1.11,0,0,0,0,.29c0,.06,0,.05.08,0s.12-.09,0-.08a2.77,2.77,0,0,0-.71-.1l-.62-.08-1.42-.2A9.84,9.84,0,0,1,9.54,36c-.72-.29-.64-.88-.56-1.55a24.49,24.49,0,0,1,1.55-6,.75.75,0,0,0-.52-.92.76.76,0,0,0-.92.53Z"/><path class="cls-6" d="M19.69,33.68h.08a.77.77,0,0,0,.72-.55.91.91,0,0,0-.25-.91.77.77,0,0,0-.91-.12c-1.29.68-.47,2.72.47,3.34a2.5,2.5,0,0,0,3.51-1H22a4,4,0,0,0,2,1.94,2.2,2.2,0,0,0,1.22.05,1.91,1.91,0,0,0,.6-.27c.27-.23.11-.24.31-.1s.4.53.77.68a1.53,1.53,0,0,0,1,0c.21-.06.73-.42.89-.36s.2.38.26.45a1.26,1.26,0,0,0,.46.37c.76.37,1.17-.2,1.85-.37.12,0,.09,0-.11,0a1.59,1.59,0,0,0,.14.26,1,1,0,0,0,.31.35,1.55,1.55,0,0,0,1.15.22c.73,0,1.26.57,1.83.95a2.61,2.61,0,0,0,2.1.5c.94-.2.54-1.64-.4-1.44-.57.12-1.16-.52-1.59-.82a3.18,3.18,0,0,0-1.74-.7s-.51,0-.41.1c-.07,0-.14-.27-.19-.34a1.32,1.32,0,0,0-.72-.55,1.4,1.4,0,0,0-.86.07,6.83,6.83,0,0,0-.75.41c.09,0-.36-.66-.48-.75a1.27,1.27,0,0,0-.84-.25,2.26,2.26,0,0,0-.87.27c-.39.18-.37.26-.67-.06a1.4,1.4,0,0,0-1.71-.48c-.43.18-.65.51-1.16.32s-.83-.78-1.11-1.23a.75.75,0,0,0-1.29,0,1,1,0,0,1-1.13.58.89.89,0,0,1-.52-.37c-.06-.09-.19-.58-.28-.53l-.91-.12.08.07-.2-.73,0,.11.73-.55h-.08c-.94.13-1,1.63,0,1.5Z"/><path class="cls-6" d="M7.46,42.66,5.32,51.11l1.45.4L6.86,51a.78.78,0,0,0-.53-.93.76.76,0,0,0-.92.53l-.09.49c-.17.94,1.21,1.35,1.45.4L8.9,43.06a.75.75,0,0,0-1.44-.4Z"/><path class="cls-6" d="M8.59,43.28l5.51.23-.75-.75-1,7.76-.12,1c0,.07-.06.2,0,.25s.29-.05-.07-.06a10.3,10.3,0,0,1-1.65-.26A17.79,17.79,0,0,1,7,50.32a.77.77,0,0,0-1,.27.74.74,0,0,0,.27,1,19.61,19.61,0,0,0,4.17,1.31c1.16.22,3,.71,3.32-.9s.38-3.08.57-4.6l.58-4.66c.05-.42-.39-.74-.75-.75l-5.51-.23a.75.75,0,0,0,0,1.5Z"/><path class="cls-6" d="M17.79,47.23a9.48,9.48,0,0,0,.33,2.25c.18.63.41,1.43,1.1,1.67a1.46,1.46,0,0,0,1.57-.53,2.52,2.52,0,0,0,.45-.78c.05-.12.15-.51.3-.55l-.84-.35a3.38,3.38,0,0,0,2.38,1.69,3.47,3.47,0,0,0,1.57-.07,3,3,0,0,0,.69-.3c.12-.07.58-.48.72-.47s.31.35.42.46a1.66,1.66,0,0,0,.63.42c.67.21,1.14-.13,1.7-.45a2.44,2.44,0,0,0,.28-.14c-.17-.08-.2-.07-.11,0l.11.16a1.26,1.26,0,0,0,.59.37,1.77,1.77,0,0,0,.76,0,1,1,0,0,0,.25-.06c.26-.1.14.06,0-.09.63.73,1.68-.33,1.06-1.06a1.23,1.23,0,0,0-1.21-.35,4,4,0,0,0-.54.11c0-.08.31.27.11-.06a.92.92,0,0,0-.23-.25,1.45,1.45,0,0,0-1.54-.1c-.15.06-.66.5-.8.47a3.62,3.62,0,0,1-.36-.47,1.5,1.5,0,0,0-1.47-.42,15.45,15.45,0,0,0-1.39.74A2,2,0,0,1,22,48.18a.75.75,0,0,0-.84-.34c-.89.28-1,.95-1.39,1.65a.52.52,0,0,1-.2.24h.23a5.62,5.62,0,0,0-.28-.88,7.52,7.52,0,0,1-.22-1.63c0-1-1.54-1-1.5,0Z"/><path class="cls-6" d="M14.74,5.23,13.58,9a.75.75,0,0,0,.52.92A.76.76,0,0,0,15,9.41l1.16-3.78a.75.75,0,0,0-.52-.92.76.76,0,0,0-.92.52Z"/><path class="cls-6" d="M15.25,5.82A29.35,29.35,0,0,0,22,6.35l-.65-1.13a9.16,9.16,0,0,0-1.54,4.92v.15c-.09-.09.44-.16.06-.15-.22,0-.44,0-.65.06a12,12,0,0,1-1.34,0,10,10,0,0,1-2.58-.58.75.75,0,0,0-.92.52.77.77,0,0,0,.52.92,11,11,0,0,0,3.05.64,11.85,11.85,0,0,0,1.46,0,2.27,2.27,0,0,0,1.54-.46,1.93,1.93,0,0,0,.38-1.38,7.46,7.46,0,0,1,.19-1.34A7.89,7.89,0,0,1,22.64,6,.75.75,0,0,0,22,4.85a27.72,27.72,0,0,1-6.36-.48.79.79,0,0,0-.92.53.76.76,0,0,0,.53.92Z"/><path class="cls-6" d="M25.38,9l.25-.59-1.37-.18c.24.67,0,1.39.14,2.08a1.78,1.78,0,0,0,1.24,1.33c1.5.42,2.52-.88,3.1-2.07l-1.37-.18c.4,1.73,2.26,3.36,3.88,1.83L30,10.92A2.55,2.55,0,0,0,34.35,12H33.29c.63.58.88,1.45,1.77,1.75a1.56,1.56,0,0,0,1.18,0,1.24,1.24,0,0,0,.39-.29,2.11,2.11,0,0,0,.19-.23c-.33-.13-.42-.11-.29,0s.56.7.75.82a2.59,2.59,0,0,0,1.25.27c1.26,0,2.53,0,3.79,0a.75.75,0,0,0,0-1.5H39.16c-.34,0-.88.1-1.17-.11s-.34-.54-.57-.73a1.16,1.16,0,0,0-1.53,0c-.4.35-.45.36-.81-.13a5,5,0,0,0-.73-.92.75.75,0,0,0-1.06,0,1,1,0,0,1-1.84-.41.77.77,0,0,0-1.26-.33c-.73.69-1.26-.68-1.38-1.17a.76.76,0,0,0-1.37-.17c-.18.38-1.19,2.16-1.59,1.07a3.43,3.43,0,0,1,0-1,2.84,2.84,0,0,0-.17-1c-.19-.54-1.09-.83-1.37-.18l-.25.58c-.37.88.92,1.64,1.3.76Z"/></g></g></svg>