<?xml version="1.0" standalone="no"?>
<!DOCTYPE svg PUBLIC "-//W3C//DTD SVG 20010904//EN"
 "http://www.w3.org/TR/2001/REC-SVG-20010904/DTD/svg10.dtd">
<svg version="1.0" xmlns="http://www.w3.org/2000/svg"
 width="1100pt" height="1100pt" viewBox="0 0 1100 1100"
 preserveAspectRatio="xMidYMid meet">

<g transform="translate(0,1100) scale(0.1,-0.1)"
fill="#002d61" stroke="none">
<path d="M1205 9631 l-240 -6 -65 -39 c-93 -57 -190 -157 -230 -240 -32 -64
-34 -76 -41 -215 -18 -324 -28 -3224 -18 -4866 10 -1770 16 -2000 47 -2105 94
-314 307 -567 588 -696 174 -81 387 -117 567 -96 173 19 347 75 450 143 117
77 457 410 2209 2159 l1028 1025 437 -436 c2067 -2057 2616 -2596 2769 -2719
42 -34 104 -71 150 -90 427 -178 909 -83 1217 239 91 95 145 174 202 294 69
144 95 247 106 427 11 180 15 1989 11 4835 l-2 2000 -48 85 c-58 105 -162 212
-251 259 -62 33 -68 34 -235 43 -94 5 -398 8 -676 5 -556 -4 -559 -4 -666 -68
-83 -49 -164 -133 -217 -224 l-47 -80 -1 -1370 c-1 -753 -5 -1713 -8 -2131
l-6 -762 -935 927 c-966 956 -1144 1127 -1244 1192 -64 42 -180 90 -296 122
-63 17 -104 21 -255 21 -164 0 -189 -2 -277 -26 -125 -34 -248 -88 -313 -137
-117 -88 -331 -296 -1216 -1178 -509 -508 -928 -923 -932 -923 -4 0 -7 861 -7
1913 0 1897 -5 2215 -34 2357 -18 86 -33 114 -97 185 -63 69 -150 129 -227
158 -55 20 -75 21 -507 22 -247 1 -558 -1 -690 -4z"/>
</g>
</svg>
