<?xml version="1.0" encoding="utf-8"?>
<!-- Generator: Adobe Illustrator 16.0.0, SVG Export Plug-In . SVG Version: 6.00 Build 0)  -->
<!DOCTYPE svg PUBLIC "-//W3C//DTD SVG 1.1//EN" "http://www.w3.org/Graphics/SVG/1.1/DTD/svg11.dtd">
<svg version="1.1" id="Layer_1" xmlns="http://www.w3.org/2000/svg" xmlns:xlink="http://www.w3.org/1999/xlink" x="0px" y="0px"
	 width="292px" height="255.208px" viewBox="0 0 292 255.208" enable-background="new 0 0 292 255.208" xml:space="preserve">
<g>
	<polygon fill="#89DBBA" points="282.25,244.772 10.375,244.772 146.313,10.396 	"/>
	<g>
		<defs>
			<rect id="SVGID_1_" x="1" y="-22.25" width="300" height="300"/>
		</defs>
		<clipPath id="SVGID_2_">
			<use xlink:href="#SVGID_1_"  overflow="visible"/>
		</clipPath>
		<polygon clip-path="url(#SVGID_2_)" fill="#C9FFD5" points="146.313,33.833 282.25,244.772 146.313,10.396 10.375,244.772 		"/>
		<g opacity="0.2" clip-path="url(#SVGID_2_)" enable-background="new    ">
			<g>
				<defs>
					<rect id="SVGID_3_" x="10.375" y="230.71" width="271.875" height="14.063"/>
				</defs>
				<use xlink:href="#SVGID_3_"  overflow="visible" fill="#1E5929"/>
				<clipPath id="SVGID_4_">
					<use xlink:href="#SVGID_3_"  overflow="visible"/>
				</clipPath>
				<polygon clip-path="url(#SVGID_4_)" fill="#0F2B14" points="18.532,230.71 10.375,244.772 282.25,244.772 274.093,230.71 				
					"/>
			</g>
		</g>
		<path clip-path="url(#SVGID_2_)" fill="#415299" d="M282.25,249.46H10.375c-2.589,0-4.688-2.101-4.688-4.688
			c0-0.823,0.22-1.644,0.632-2.353L142.257,8.042c1.499-2.241,4.527-2.84,6.768-1.346c0.536,0.357,0.991,0.817,1.342,1.346
			L286.306,242.42c1.3,2.238,0.54,5.108-1.702,6.408C283.889,249.24,283.074,249.46,282.25,249.46 M18.512,240.085h255.6
			L146.313,19.738L18.512,240.085z"/>
		<g opacity="0.2" clip-path="url(#SVGID_2_)" enable-background="new    ">
			<g>
				<defs>
					<rect id="SVGID_5_" x="77.788" y="118.208" width="138.837" height="103.127"/>
				</defs>
				<clipPath id="SVGID_6_">
					<use xlink:href="#SVGID_5_"  overflow="visible"/>
				</clipPath>
				<path clip-path="url(#SVGID_6_)" fill="#2C4B75" d="M215.801,167.117c-0.714-1.034-1.557-2.416-2.568-4.064
					c-8.234-13.422-27.534-44.845-66.027-44.845c-37.853,0-57.287,31.038-65.588,44.286c-1.176,1.882-2.138,3.434-2.93,4.514
					c-1.142,1.565-1.204,3.672-0.153,5.301c0.547,0.856,1.19,1.914,1.932,3.131c8.329,13.738,27.822,45.896,66.739,45.896
					c27.416,0,50.396-16.26,68.294-48.326l0.521-0.938C216.899,170.514,216.817,168.592,215.801,167.117 M147.205,211.96
					c-33.632,0-51.217-28.995-58.724-41.372c-0.146-0.248-0.291-0.485-0.433-0.719c0.469-0.729,0.97-1.533,1.515-2.398
					c8.109-12.951,24.978-39.888,57.642-39.888c33.252,0,49.992,27.267,58.04,40.377c0.431,0.705,0.843,1.373,1.227,1.987
					C199.697,181.954,181.487,211.96,147.205,211.96"/>
			</g>
		</g>
		<path clip-path="url(#SVGID_2_)" fill="#FFFFFF" d="M147.208,207.272c39.809,0,59.457-37.5,64.73-46.875
			c-6.445-9.375-24.184-46.877-64.73-46.877c-40.551,0-58.317,38.088-64.735,46.877C88.891,170.358,107.4,207.272,147.208,207.272"
			/>
		<g clip-path="url(#SVGID_2_)">
			<defs>
				<rect id="SVGID_7_" x="82.475" y="153.521" width="129.462" height="53.751"/>
			</defs>
			<clipPath id="SVGID_8_">
				<use xlink:href="#SVGID_7_"  overflow="visible"/>
			</clipPath>
			<path clip-path="url(#SVGID_8_)" fill="#7B98B2" d="M147.208,193.21c-33.005,0-51.333-25.333-60.306-39.688
				c-1.84,2.921-3.318,5.356-4.429,6.876c6.418,9.961,24.928,46.875,64.735,46.875c39.809,0,59.457-37.5,64.73-46.875
				c-1.071-1.556-2.485-3.937-4.229-6.743C199.02,167.882,179.936,193.21,147.208,193.21"/>
		</g>
		<path clip-path="url(#SVGID_2_)" fill="#415299" d="M147.205,211.96c-38.917,0-58.411-32.153-66.742-45.891
			c-0.739-1.218-1.382-2.274-1.929-3.136c-1.05-1.629-0.991-3.735,0.153-5.301c0.788-1.08,1.753-2.637,2.93-4.514
			c8.301-13.252,27.736-44.284,65.588-44.284c38.498,0,57.793,31.426,66.027,44.843c1.012,1.644,1.863,3.03,2.568,4.064
			c1.017,1.475,1.099,3.388,0.22,4.953l-0.521,0.934C197.601,195.7,174.621,211.96,147.205,211.96 M88.048,160.498
			c0.14,0.229,0.286,0.467,0.43,0.71c7.51,12.382,25.093,41.377,58.727,41.377c34.282,0,52.492-30.001,59.267-42.018
			c-0.384-0.618-0.796-1.277-1.227-1.982c-8.048-13.11-24.788-40.375-58.04-40.375c-32.664,0-49.532,26.939-57.644,39.886
			C89.023,158.961,88.518,159.766,88.048,160.498"/>
		<path clip-path="url(#SVGID_2_)" fill="#7EC5E8" d="M147.208,140.307c11.098,0,20.089,8.995,20.089,20.091
			c0,11.087-8.991,20.087-20.089,20.087c-11.096,0-20.091-9-20.091-20.087C127.116,149.302,136.111,140.307,147.208,140.307"/>
		<path clip-path="url(#SVGID_2_)" fill="#415299" d="M147.205,185.172c-13.673-0.01-24.76-11.096-24.779-24.774
			c-0.009-3.827,0.876-7.599,2.584-11.019c1.162-2.312,3.978-3.245,6.289-2.092c2.303,1.163,3.244,3.96,2.106,6.263
			c-1.06,2.133-1.609,4.477-1.604,6.848c0,8.501,6.901,15.399,15.404,15.399c8.51,0,15.404-6.898,15.404-15.399
			c0-8.51-6.895-15.403-15.404-15.403c-2.589,0-4.688-2.102-4.688-4.688s2.099-4.688,4.688-4.688
			c13.683,0,24.779,11.092,24.779,24.778C171.984,174.076,160.888,185.172,147.205,185.172"/>
	</g>
</g>
<path fill="#FFFFFF" d="M157.444,162.448c-0.446-0.939-1.701-0.534-1.999,0.261c-0.204,0.545-0.561,1.109-0.881,1.594
	c0.437-0.66-0.486,0.48-0.589,0.605c-0.29,0.354-0.62,0.68-0.925,1.021c-0.896,1-2.142,2.009-3.551,1.852
	c-1.069-0.119-1.969,0.986-1.969,1.969c0,1.172,0.904,1.839,1.969,1.969C153.745,172.236,159.488,166.751,157.444,162.448z"/>
</svg>
