<svg xmlns="http://www.w3.org/2000/svg" width="178" height="80" viewBox="0 0 178 80">
    <g fill="none" fill-rule="evenodd">
        <path fill="#FFF" d="M105 22h64v36h-64z"/>
        <path fill="#058FD6" d="M137.33 0c22.004 0 39.84 17.836 39.84 39.838 0 22.002-17.836 39.839-39.84 39.839-22.002 0-39.838-17.837-39.838-39.839S115.329 0 137.33 0zm27.842 51.6c.736-1.358 1.102-3.013 1.102-4.959 0-.787-.057-1.498-.17-2.138-.231-1.244-.582-2.257-1.057-3.044-.721-1.161-1.596-1.939-2.625-2.332a4.642 4.642 0 0 0 1.619-1.203c1.096-1.243 1.647-2.896 1.647-4.96 0-1.26-.149-2.347-.444-3.264-.541-1.719-1.441-2.988-2.701-3.806-1.473-.965-3.127-1.448-4.959-1.448h-6.951v30.788h8.598c1.162 0 2.332-.361 3.509-1.08a6.642 6.642 0 0 0 2.432-2.554zm-17.727-22.489v-4.665h-13.211v30.788h13.211v-4.666h-8.57v-8.396h6.262v-4.666h-6.262v-8.395h8.57zm-19.931 26.123l4.812-30.764h-4.869l-2.252 16.461-2.429-16.461h-4.862l-2.234 16.475-2.43-16.475h-4.861l5.152 30.764h4.438l2.47-16.925 2.647 16.925h4.418zm30.071-13.774c1.145 0 2.014.36 2.602 1.08.656.785.984 2.037.984 3.757 0 .72-.107 1.358-.322 1.914-.604 1.62-1.692 2.431-3.264 2.431h-1.939V41.46h1.939zm2.896-6.555c-.49 1.407-1.455 2.11-2.896 2.11h-1.94V29.16h1.94c.916 0 1.66.303 2.234.908.623.654.932 1.62.932 2.898 0 .768-.09 1.416-.27 1.939z"/>
        <path fill="#E11A81" d="M12.193 30.227c0-.97-.291-1.751-.874-2.345-.584-.593-1.361-.89-2.329-.89H5.607V38.89H8.99c.89 0 1.646-.316 2.269-.95a3.145 3.145 0 0 0 .934-2.283v-5.43zM8.84 21.266c2.731 0 4.906.86 6.529 2.58 1.503 1.644 2.254 3.74 2.254 6.29v5.4c0 2.455-.856 4.55-2.567 6.29-1.711 1.743-3.782 2.612-6.216 2.612H5.607v14.004H0V21.266h8.84zM54.885 30.227c0-2.156-1.068-3.234-3.205-3.234H48.3V38.89h3.38c.891 0 1.648-.316 2.27-.95a3.143 3.143 0 0 0 .935-2.283v-5.43zm-3.352-8.961c3.123 0 5.418.86 6.883 2.58 1.285 1.505 1.928 3.602 1.928 6.29v5.4c0 2.632-.998 4.858-2.996 6.676l4.152 16.23h-6.064l-3.399-14.004H48.3v14.004H42.69V21.266h8.843zM64.7 58.442h5.608V21.266H64.7zM91.933 49.186c.04 2.59-.635 4.806-2.018 6.646-.91 1.245-2.197 2.125-3.857 2.64-.89.277-1.928.415-3.115.415-2.196 0-4.016-.543-5.459-1.632-1.207-.89-2.162-2.1-2.864-3.633-.703-1.534-.427-4.463-.427-4.463l4.537-1.19c.238 2.168.81 3.738 1.721 4.71.671.737 1.443 1.085 2.314 1.046 1.227-.04 2.205-.643 2.938-1.811.375-.575.562-1.396.562-2.466 0-1.543-.7-3.078-2.105-4.603l-4.985-4.721c-1.859-1.8-3.176-3.415-3.947-4.84-.83-1.604-1.246-3.346-1.246-5.227 0-3.385 1.138-5.95 3.412-7.691 1.404-1.05 3.144-1.575 5.223-1.575 1.998 0 3.71.446 5.132 1.336 1.108.692 2.004 1.66 2.686 2.908.682 1.246.428 3.498.428 3.498l-4.569 1.782c-.158-1.523-.59-2.71-1.304-3.56-.514-.613-1.256-.92-2.225-.92-1.029 0-1.81.455-2.344 1.365-.435.732-.652 1.64-.652 2.73 0 1.7.73 3.432 2.195 5.193.553.67 1.383 1.463 2.492 2.373 1.305 1.087 2.166 1.849 2.582 2.284 1.383 1.385 2.452 2.75 3.204 4.093.355.634.642 1.217.861 1.752.533 1.325.81 2.512.83 3.56M28.087 48.665l-4.256 2.085 3.085-14.465 8.037 12.418-4.718-.434 3.148 10.172h6.346L33.5 21.266h-9.32l-6.32 37.175h10.854z"/>
    </g>
</svg>
